0
SECTION
2
HEADER
9
$INSUNITS
70
4
9
$ACADVER
1
AC1014
9
$HANDSEED
5
FFFF
0
ENDSEC
0
SECTION
2
TABLES
0
TABLE
2
VPORT
5
8
100
AcDbSymbolTable
0
ENDTAB
0
TABLE
2
LTYPE
5
5
100
AcDbSymbolTable
0
LTYPE
5
14
100
AcDbSymbolTableRecord
100
AcDbLinetypeTableRecord
2
BYBLOCK
70
0
0
LTYPE
5
15
100
AcDbSymbolTableRecord
100
AcDbLinetypeTableRecord
2
BYLAYER
70
0
0
ENDTAB
0
TABLE
2
LAYER
5
2
100
AcDbSymbolTable
70
2
0
LAYER
5
50
100
AcDbSymbolTableRecord
100
AcDbLayerTableRecord
2
0
70
0
6
CONTINUOUS
0
ENDTAB
0
TABLE
2
STYLE
5
3
100
AcDbSymbolTable
70
1
0
STYLE
5
11
100
AcDbSymbolTableRecord
100
AcDbTextStyleTableRecord
2
STANDARD
70
0
0
ENDTAB
0
TABLE
2
VIEW
5
6
100
AcDbSymbolTable
70
0
0
ENDTAB
0
TABLE
2
UCS
5
7
100
AcDbSymbolTable
70
0
0
ENDTAB
0
TABLE
2
APPID
5
9
100
AcDbSymbolTable
70
2
0
APPID
5
12
100
AcDbSymbolTableRecord
100
AcDbRegAppTableRecord
2
ACAD
70
0
0
ENDTAB
0
TABLE
2
DIMSTYLE
5
A
100
AcDbSymbolTable
70
1
0
ENDTAB
0
TABLE
2
BLOCK_RECORD
5
1
100
AcDbSymbolTable
70
1
0
BLOCK_RECORD
5
1F
100
AcDbSymbolTableRecord
100
AcDbBlockTableRecord
2
*MODEL_SPACE
0
BLOCK_RECORD
5
1B
100
AcDbSymbolTableRecord
100
AcDbBlockTableRecord
2
*PAPER_SPACE
0
ENDTAB
0
ENDSEC
0
SECTION
2
BLOCKS
0
BLOCK
5
20
100
AcDbEntity
100
AcDbBlockBegin
2
*MODEL_SPACE
0
ENDBLK
5
21
100
AcDbEntity
100
AcDbBlockEnd
0
BLOCK
5
1C
100
AcDbEntity
100
AcDbBlockBegin
2
*PAPER_SPACE
0
ENDBLK
5
1D
100
AcDbEntity
100
AcDbBlockEnd
0
ENDSEC
0
SECTION
2
ENTITIES
0
LINE
5
100
100
AcDbEntity
8
0
100
AcDbLine
10
-28
20
7.9999999999999982
30
0
11
-35
21
7.9999999999999982
31
0
0
LINE
5
101
100
AcDbEntity
8
0
100
AcDbLine
10
-28
20
9
30
0
11
-28
21
7.9999999999999982
31
0
0
LINE
5
102
100
AcDbEntity
8
0
100
AcDbLine
10
-42
20
15
30
0
11
-42
21
17.5
31
0
0
LINE
5
103
100
AcDbEntity
8
0
100
AcDbLine
10
-42.800000000000004
20
9
30
0
11
-42
21
9
31
0
0
LINE
5
104
100
AcDbEntity
8
0
100
AcDbLine
10
-27.199999999999996
20
12.5
30
0
11
-27.199999999999996
21
9
31
0
0
LINE
5
105
100
AcDbEntity
8
0
100
AcDbLine
10
-42.800000000000004
20
12.5
30
0
11
-42.800000000000004
21
9
31
0
0
LINE
5
106
100
AcDbEntity
8
0
100
AcDbLine
10
-42
20
9
30
0
11
-42
21
7.9999999999999982
31
0
0
LINE
5
107
100
AcDbEntity
8
0
100
AcDbLine
10
-28
20
17.5
30
0
11
-27.199999999999996
21
17.5
31
0
0
LINE
5
108
100
AcDbEntity
8
0
100
AcDbLine
10
-42
20
12.5
30
0
11
-42.800000000000004
21
12.5
31
0
0
LINE
5
109
100
AcDbEntity
8
0
100
AcDbLine
10
-42.800000000000004
20
21
30
0
11
-42
21
21
31
0
0
LINE
5
110
100
AcDbEntity
8
0
100
AcDbLine
10
-27.199999999999996
20
9
30
0
11
-28
21
9
31
0
0
LINE
5
111
100
AcDbEntity
8
0
100
AcDbLine
10
-28
20
7.9999999999999982
30
0
11
-28
21
9
31
0
0
LINE
5
112
100
AcDbEntity
8
0
100
AcDbLine
10
-27.199999999999996
20
21
30
0
11
-28
21
21
31
0
0
LINE
5
113
100
AcDbEntity
8
0
100
AcDbLine
10
-28
20
15
30
0
11
-28
21
17.5
31
0
0
LINE
5
114
100
AcDbEntity
8
0
100
AcDbLine
10
-42
20
7.9999999999999982
30
0
11
-42
21
9
31
0
0
LINE
5
115
100
AcDbEntity
8
0
100
AcDbLine
10
-42
20
17.5
30
0
11
-42.800000000000004
21
17.5
31
0
0
LINE
5
116
100
AcDbEntity
8
0
100
AcDbLine
10
-28
20
12.5
30
0
11
-27.199999999999996
21
12.5
31
0
0
LINE
5
117
100
AcDbEntity
8
0
100
AcDbLine
10
-42
20
7.9999999999999982
30
0
11
-35
21
7.9999999999999982
31
0
0
LINE
5
118
100
AcDbEntity
8
0
100
AcDbLine
10
-28
20
22
30
0
11
-35
21
22
31
0
0
LINE
5
119
100
AcDbEntity
8
0
100
AcDbLine
10
-27.199999999999996
20
17.5
30
0
11
-27.199999999999996
21
21
31
0
0
LINE
5
120
100
AcDbEntity
8
0
100
AcDbLine
10
-28
20
15
30
0
11
-28
21
12.5
31
0
0
LINE
5
121
100
AcDbEntity
8
0
100
AcDbLine
10
-42.800000000000004
20
17.5
30
0
11
-42.800000000000004
21
21
31
0
0
LINE
5
122
100
AcDbEntity
8
0
100
AcDbLine
10
-28
20
21
30
0
11
-28
21
22
31
0
0
LINE
5
123
100
AcDbEntity
8
0
100
AcDbLine
10
-28
20
22
30
0
11
-28
21
21
31
0
0
LINE
5
124
100
AcDbEntity
8
0
100
AcDbLine
10
-42
20
21
30
0
11
-42
21
22
31
0
0
LINE
5
125
100
AcDbEntity
8
0
100
AcDbLine
10
-42
20
15
30
0
11
-42
21
12.5
31
0
0
LINE
5
126
100
AcDbEntity
8
0
100
AcDbLine
10
-42
20
22
30
0
11
-35
21
22
31
0
0
LINE
5
127
100
AcDbEntity
8
0
100
AcDbLine
10
-42
20
22
30
0
11
-42
21
21
31
0
0
LINE
5
128
100
AcDbEntity
8
0
100
AcDbLine
10
-28
20
-11.000000000000004
30
0
11
-28
21
-10.000000000000002
31
0
0
LINE
5
129
100
AcDbEntity
8
0
100
AcDbLine
10
-27.199999999999996
20
-10.000000000000002
30
0
11
-28
21
-10.000000000000002
31
0
0
LINE
5
130
100
AcDbEntity
8
0
100
AcDbLine
10
-28
20
-6.5000000000000018
30
0
11
-27.199999999999996
21
-6.5000000000000018
31
0
0
LINE
5
131
100
AcDbEntity
8
0
100
AcDbLine
10
-28
20
-4.0000000000000018
30
0
11
-28
21
-6.5000000000000018
31
0
0
LINE
5
132
100
AcDbEntity
8
0
100
AcDbLine
10
-42
20
-10.000000000000002
30
0
11
-42
21
-11.000000000000004
31
0
0
LINE
5
133
100
AcDbEntity
8
0
100
AcDbLine
10
-27.199999999999996
20
-6.5000000000000018
30
0
11
-27.199999999999996
21
-10.000000000000002
31
0
0
LINE
5
134
100
AcDbEntity
8
0
100
AcDbLine
10
-42
20
-6.5000000000000018
30
0
11
-42.800000000000004
21
-6.5000000000000018
31
0
0
LINE
5
135
100
AcDbEntity
8
0
100
AcDbLine
10
-42
20
3.0000000000000004
30
0
11
-42
21
1.9999999999999996
31
0
0
LINE
5
136
100
AcDbEntity
8
0
100
AcDbLine
10
-42
20
-4.0000000000000018
30
0
11
-42
21
-6.5000000000000018
31
0
0
LINE
5
137
100
AcDbEntity
8
0
100
AcDbLine
10
-42.800000000000004
20
-10.000000000000002
30
0
11
-42
21
-10.000000000000002
31
0
0
LINE
5
138
100
AcDbEntity
8
0
100
AcDbLine
10
-42
20
1.9999999999999996
30
0
11
-42
21
3.0000000000000004
31
0
0
LINE
5
139
100
AcDbEntity
8
0
100
AcDbLine
10
-42.800000000000004
20
1.9999999999999996
30
0
11
-42
21
1.9999999999999996
31
0
0
LINE
5
140
100
AcDbEntity
8
0
100
AcDbLine
10
-28
20
3.0000000000000004
30
0
11
-28
21
1.9999999999999996
31
0
0
LINE
5
141
100
AcDbEntity
8
0
100
AcDbLine
10
-27.199999999999996
20
1.9999999999999996
30
0
11
-28
21
1.9999999999999996
31
0
0
LINE
5
142
100
AcDbEntity
8
0
100
AcDbLine
10
-28
20
-11.000000000000004
30
0
11
-35
21
-11.000000000000004
31
0
0
LINE
5
143
100
AcDbEntity
8
0
100
AcDbLine
10
-28
20
-10.000000000000002
30
0
11
-28
21
-11.000000000000004
31
0
0
LINE
5
144
100
AcDbEntity
8
0
100
AcDbLine
10
-27.199999999999996
20
-1.5000000000000013
30
0
11
-27.199999999999996
21
1.9999999999999996
31
0
0
LINE
5
145
100
AcDbEntity
8
0
100
AcDbLine
10
-42.800000000000004
20
-1.5000000000000013
30
0
11
-42.800000000000004
21
1.9999999999999996
31
0
0
LINE
5
146
100
AcDbEntity
8
0
100
AcDbLine
10
-28
20
1.9999999999999996
30
0
11
-28
21
3.0000000000000004
31
0
0
LINE
5
147
100
AcDbEntity
8
0
100
AcDbLine
10
-28
20
3.0000000000000004
30
0
11
-35
21
3.0000000000000004
31
0
0
LINE
5
148
100
AcDbEntity
8
0
100
AcDbLine
10
-42
20
-11.000000000000004
30
0
11
-42
21
-10.000000000000002
31
0
0
LINE
5
149
100
AcDbEntity
8
0
100
AcDbLine
10
-42
20
3.0000000000000004
30
0
11
-35
21
3.0000000000000004
31
0
0
LINE
5
150
100
AcDbEntity
8
0
100
AcDbLine
10
-42
20
-11.000000000000004
30
0
11
-35
21
-11.000000000000004
31
0
0
LINE
5
151
100
AcDbEntity
8
0
100
AcDbLine
10
-28
20
-1.5000000000000013
30
0
11
-27.199999999999996
21
-1.5000000000000013
31
0
0
LINE
5
152
100
AcDbEntity
8
0
100
AcDbLine
10
-28
20
-4.0000000000000018
30
0
11
-28
21
-1.5000000000000013
31
0
0
LINE
5
153
100
AcDbEntity
8
0
100
AcDbLine
10
-42
20
-1.5000000000000013
30
0
11
-42.800000000000004
21
-1.5000000000000013
31
0
0
LINE
5
154
100
AcDbEntity
8
0
100
AcDbLine
10
-42
20
-4.0000000000000018
30
0
11
-42
21
-1.5000000000000013
31
0
0
LINE
5
155
100
AcDbEntity
8
0
100
AcDbLine
10
-42.800000000000004
20
-6.5000000000000018
30
0
11
-42.800000000000004
21
-10.000000000000002
31
0
0
LINE
5
156
100
AcDbEntity
8
0
100
AcDbLine
10
-28
20
-30.000000000000004
30
0
11
-28
21
-29.000000000000004
31
0
0
LINE
5
157
100
AcDbEntity
8
0
100
AcDbLine
10
-27.199999999999996
20
-29.000000000000004
30
0
11
-28
21
-29.000000000000004
31
0
0
LINE
5
158
100
AcDbEntity
8
0
100
AcDbLine
10
-28
20
-25.500000000000004
30
0
11
-27.199999999999996
21
-25.500000000000004
31
0
0
LINE
5
159
100
AcDbEntity
8
0
100
AcDbLine
10
-28
20
-23.000000000000004
30
0
11
-28
21
-25.500000000000004
31
0
0
LINE
5
160
100
AcDbEntity
8
0
100
AcDbLine
10
-42
20
-29.000000000000004
30
0
11
-42
21
-30.000000000000004
31
0
0
LINE
5
161
100
AcDbEntity
8
0
100
AcDbLine
10
-27.199999999999996
20
-25.500000000000004
30
0
11
-27.199999999999996
21
-29.000000000000004
31
0
0
LINE
5
162
100
AcDbEntity
8
0
100
AcDbLine
10
-42
20
-25.500000000000004
30
0
11
-42.800000000000004
21
-25.500000000000004
31
0
0
LINE
5
163
100
AcDbEntity
8
0
100
AcDbLine
10
-42
20
-16
30
0
11
-42
21
-17
31
0
0
LINE
5
164
100
AcDbEntity
8
0
100
AcDbLine
10
-42
20
-23.000000000000004
30
0
11
-42
21
-25.500000000000004
31
0
0
LINE
5
165
100
AcDbEntity
8
0
100
AcDbLine
10
-42.800000000000004
20
-29.000000000000004
30
0
11
-42
21
-29.000000000000004
31
0
0
LINE
5
166
100
AcDbEntity
8
0
100
AcDbLine
10
-42
20
-17
30
0
11
-42
21
-16
31
0
0
LINE
5
167
100
AcDbEntity
8
0
100
AcDbLine
10
-42.800000000000004
20
-17
30
0
11
-42
21
-17
31
0
0
LINE
5
168
100
AcDbEntity
8
0
100
AcDbLine
10
-28
20
-16
30
0
11
-28
21
-17
31
0
0
LINE
5
169
100
AcDbEntity
8
0
100
AcDbLine
10
-27.199999999999996
20
-17
30
0
11
-28
21
-17
31
0
0
LINE
5
170
100
AcDbEntity
8
0
100
AcDbLine
10
-28
20
-30.000000000000004
30
0
11
-35
21
-30.000000000000004
31
0
0
LINE
5
171
100
AcDbEntity
8
0
100
AcDbLine
10
-28
20
-29.000000000000004
30
0
11
-28
21
-30.000000000000004
31
0
0
LINE
5
172
100
AcDbEntity
8
0
100
AcDbLine
10
-27.199999999999996
20
-20.500000000000004
30
0
11
-27.199999999999996
21
-17
31
0
0
LINE
5
173
100
AcDbEntity
8
0
100
AcDbLine
10
-42.800000000000004
20
-20.500000000000004
30
0
11
-42.800000000000004
21
-17
31
0
0
LINE
5
174
100
AcDbEntity
8
0
100
AcDbLine
10
-28
20
-17
30
0
11
-28
21
-16
31
0
0
LINE
5
175
100
AcDbEntity
8
0
100
AcDbLine
10
-28
20
-16
30
0
11
-35
21
-16
31
0
0
LINE
5
176
100
AcDbEntity
8
0
100
AcDbLine
10
-42
20
-30.000000000000004
30
0
11
-42
21
-29.000000000000004
31
0
0
LINE
5
177
100
AcDbEntity
8
0
100
AcDbLine
10
-42
20
-16
30
0
11
-35
21
-16
31
0
0
LINE
5
178
100
AcDbEntity
8
0
100
AcDbLine
10
-42
20
-30.000000000000004
30
0
11
-35
21
-30.000000000000004
31
0
0
LINE
5
179
100
AcDbEntity
8
0
100
AcDbLine
10
-28
20
-20.500000000000004
30
0
11
-27.199999999999996
21
-20.500000000000004
31
0
0
LINE
5
180
100
AcDbEntity
8
0
100
AcDbLine
10
-28
20
-23.000000000000004
30
0
11
-28
21
-20.500000000000004
31
0
0
LINE
5
181
100
AcDbEntity
8
0
100
AcDbLine
10
-42
20
-20.500000000000004
30
0
11
-42.800000000000004
21
-20.500000000000004
31
0
0
LINE
5
182
100
AcDbEntity
8
0
100
AcDbLine
10
-42
20
-23.000000000000004
30
0
11
-42
21
-20.500000000000004
31
0
0
LINE
5
183
100
AcDbEntity
8
0
100
AcDbLine
10
-42.800000000000004
20
-25.500000000000004
30
0
11
-42.800000000000004
21
-29.000000000000004
31
0
0
LINE
5
184
100
AcDbEntity
8
0
100
AcDbLine
10
-27.199999999999996
20
-6.5000000000000018
30
0
11
-27.199999999999996
21
-10.000000000000002
31
0
0
LINE
5
185
100
AcDbEntity
8
0
100
AcDbLine
10
-42
20
-23.000000000000004
30
0
11
-42
21
-20.500000000000004
31
0
0
LINE
5
186
100
AcDbEntity
8
0
100
AcDbLine
10
-42
20
-16
30
0
11
-42
21
-17
31
0
0
LINE
5
187
100
AcDbEntity
8
0
100
AcDbLine
10
-27.199999999999996
20
-17
30
0
11
-28
21
-17
31
0
0
LINE
5
188
100
AcDbEntity
8
0
100
AcDbLine
10
-42
20
3.0000000000000004
30
0
11
-35
21
3.0000000000000004
31
0
0
LINE
5
189
100
AcDbEntity
8
0
100
AcDbLine
10
-42.800000000000004
20
21
30
0
11
-42
21
21
31
0
0
LINE
5
190
100
AcDbEntity
8
0
100
AcDbLine
10
-28
20
-17
30
0
11
-28
21
-16
31
0
0
LINE
5
191
100
AcDbEntity
8
0
100
AcDbLine
10
-42
20
22
30
0
11
-35
21
22
31
0
0
LINE
5
192
100
AcDbEntity
8
0
100
AcDbLine
10
-28
20
1.9999999999999996
30
0
11
-28
21
3.0000000000000004
31
0
0
LINE
5
193
100
AcDbEntity
8
0
100
AcDbLine
10
-28
20
22
30
0
11
-35
21
22
31
0
0
LINE
5
194
100
AcDbEntity
8
0
100
AcDbLine
10
-28
20
-16
30
0
11
-35
21
-16
31
0
0
LINE
5
195
100
AcDbEntity
8
0
100
AcDbLine
10
-28
20
3.0000000000000004
30
0
11
-35
21
3.0000000000000004
31
0
0
LINE
5
196
100
AcDbEntity
8
0
100
AcDbLine
10
-28
20
3.0000000000000004
30
0
11
-28
21
1.9999999999999996
31
0
0
LINE
5
197
100
AcDbEntity
8
0
100
AcDbLine
10
-42
20
-11.000000000000004
30
0
11
-35
21
-11.000000000000004
31
0
0
LINE
5
198
100
AcDbEntity
8
0
100
AcDbLine
10
-42
20
-16
30
0
11
-35
21
-16
31
0
0
LINE
5
199
100
AcDbEntity
8
0
100
AcDbLine
10
-28
20
-11.000000000000004
30
0
11
-35
21
-11.000000000000004
31
0
0
LINE
5
200
100
AcDbEntity
8
0
100
AcDbLine
10
-42.800000000000004
20
-17
30
0
11
-42
21
-17
31
0
0
LINE
5
201
100
AcDbEntity
8
0
100
AcDbLine
10
-28
20
-16
30
0
11
-28
21
-17
31
0
0
LINE
5
202
100
AcDbEntity
8
0
100
AcDbLine
10
-28
20
-10.000000000000002
30
0
11
-28
21
-11.000000000000004
31
0
0
LINE
5
203
100
AcDbEntity
8
0
100
AcDbLine
10
-42
20
-17
30
0
11
-42
21
-16
31
0
0
LINE
5
204
100
AcDbEntity
8
0
100
AcDbLine
10
-28
20
-30.000000000000004
30
0
11
-35
21
-30.000000000000004
31
0
0
LINE
5
205
100
AcDbEntity
8
0
100
AcDbLine
10
-42
20
1.9999999999999996
30
0
11
-42
21
3.0000000000000004
31
0
0
LINE
5
206
100
AcDbEntity
8
0
100
AcDbLine
10
-42
20
3.0000000000000004
30
0
11
-42
21
1.9999999999999996
31
0
0
LINE
5
207
100
AcDbEntity
8
0
100
AcDbLine
10
-42.800000000000004
20
1.9999999999999996
30
0
11
-42
21
1.9999999999999996
31
0
0
LINE
5
208
100
AcDbEntity
8
0
100
AcDbLine
10
-42
20
-11.000000000000004
30
0
11
-42
21
-10.000000000000002
31
0
0
LINE
5
209
100
AcDbEntity
8
0
100
AcDbLine
10
-27.199999999999996
20
1.9999999999999996
30
0
11
-28
21
1.9999999999999996
31
0
0
LINE
5
210
100
AcDbEntity
8
0
100
AcDbLine
10
-42
20
21
30
0
11
-42
21
22
31
0
0
LINE
5
211
100
AcDbEntity
8
0
100
AcDbLine
10
-42
20
-10.000000000000002
30
0
11
-42
21
-11.000000000000004
31
0
0
LINE
5
212
100
AcDbEntity
8
0
100
AcDbLine
10
-28
20
-11.000000000000004
30
0
11
-28
21
-10.000000000000002
31
0
0
LINE
5
213
100
AcDbEntity
8
0
100
AcDbLine
10
-28
20
15
30
0
11
-28
21
12.5
31
0
0
LINE
5
214
100
AcDbEntity
8
0
100
AcDbLine
10
-42.800000000000004
20
17.5
30
0
11
-42.800000000000004
21
21
31
0
0
LINE
5
215
100
AcDbEntity
8
0
100
AcDbLine
10
-42
20
-20.500000000000004
30
0
11
-42.800000000000004
21
-20.500000000000004
31
0
0
LINE
5
216
100
AcDbEntity
8
0
100
AcDbLine
10
-42
20
7.9999999999999982
30
0
11
-35
21
7.9999999999999982
31
0
0
LINE
5
217
100
AcDbEntity
8
0
100
AcDbLine
10
-27.199999999999996
20
-25.500000000000004
30
0
11
-27.199999999999996
21
-29.000000000000004
31
0
0
LINE
5
218
100
AcDbEntity
8
0
100
AcDbLine
10
-42.800000000000004
20
-25.500000000000004
30
0
11
-42.800000000000004
21
-29.000000000000004
31
0
0
LINE
5
219
100
AcDbEntity
8
0
100
AcDbLine
10
-42.800000000000004
20
-10.000000000000002
30
0
11
-42
21
-10.000000000000002
31
0
0
LINE
5
220
100
AcDbEntity
8
0
100
AcDbLine
10
-28
20
-1.5000000000000013
30
0
11
-27.199999999999996
21
-1.5000000000000013
31
0
0
LINE
5
221
100
AcDbEntity
8
0
100
AcDbLine
10
-28
20
-20.500000000000004
30
0
11
-27.199999999999996
21
-20.500000000000004
31
0
0
LINE
5
222
100
AcDbEntity
8
0
100
AcDbLine
10
-28
20
7.9999999999999982
30
0
11
-35
21
7.9999999999999982
31
0
0
LINE
5
223
100
AcDbEntity
8
0
100
AcDbLine
10
-28
20
9
30
0
11
-28
21
7.9999999999999982
31
0
0
LINE
5
224
100
AcDbEntity
8
0
100
AcDbLine
10
-42
20
-6.5000000000000018
30
0
11
-42.800000000000004
21
-6.5000000000000018
31
0
0
LINE
5
225
100
AcDbEntity
8
0
100
AcDbLine
10
-28
20
-4.0000000000000018
30
0
11
-28
21
-1.5000000000000013
31
0
0
LINE
5
226
100
AcDbEntity
8
0
100
AcDbLine
10
-42
20
15
30
0
11
-42
21
17.5
31
0
0
LINE
5
227
100
AcDbEntity
8
0
100
AcDbLine
10
-28
20
-4.0000000000000018
30
0
11
-28
21
-6.5000000000000018
31
0
0
LINE
5
228
100
AcDbEntity
8
0
100
AcDbLine
10
-27.199999999999996
20
17.5
30
0
11
-27.199999999999996
21
21
31
0
0
LINE
5
229
100
AcDbEntity
8
0
100
AcDbLine
10
-42
20
-1.5000000000000013
30
0
11
-42.800000000000004
21
-1.5000000000000013
31
0
0
LINE
5
230
100
AcDbEntity
8
0
100
AcDbLine
10
-28
20
17.5
30
0
11
-27.199999999999996
21
17.5
31
0
0
LINE
5
231
100
AcDbEntity
8
0
100
AcDbLine
10
-42.800000000000004
20
-20.500000000000004
30
0
11
-42.800000000000004
21
-17
31
0
0
LINE
5
232
100
AcDbEntity
8
0
100
AcDbLine
10
-42
20
17.5
30
0
11
-42.800000000000004
21
17.5
31
0
0
LINE
5
233
100
AcDbEntity
8
0
100
AcDbLine
10
-42
20
-4.0000000000000018
30
0
11
-42
21
-6.5000000000000018
31
0
0
LINE
5
234
100
AcDbEntity
8
0
100
AcDbLine
10
-27.199999999999996
20
-10.000000000000002
30
0
11
-28
21
-10.000000000000002
31
0
0
LINE
5
235
100
AcDbEntity
8
0
100
AcDbLine
10
-28
20
15
30
0
11
-28
21
17.5
31
0
0
LINE
5
236
100
AcDbEntity
8
0
100
AcDbLine
10
-42.800000000000004
20
-1.5000000000000013
30
0
11
-42.800000000000004
21
1.9999999999999996
31
0
0
LINE
5
237
100
AcDbEntity
8
0
100
AcDbLine
10
-28
20
7.9999999999999982
30
0
11
-28
21
9
31
0
0
LINE
5
238
100
AcDbEntity
8
0
100
AcDbLine
10
-42
20
-23.000000000000004
30
0
11
-42
21
-25.500000000000004
31
0
0
LINE
5
239
100
AcDbEntity
8
0
100
AcDbLine
10
-28
20
-25.500000000000004
30
0
11
-27.199999999999996
21
-25.500000000000004
31
0
0
LINE
5
240
100
AcDbEntity
8
0
100
AcDbLine
10
-28
20
-23.000000000000004
30
0
11
-28
21
-25.500000000000004
31
0
0
LINE
5
241
100
AcDbEntity
8
0
100
AcDbLine
10
-28
20
-23.000000000000004
30
0
11
-28
21
-20.500000000000004
31
0
0
LINE
5
242
100
AcDbEntity
8
0
100
AcDbLine
10
-42
20
9
30
0
11
-42
21
7.9999999999999982
31
0
0
LINE
5
243
100
AcDbEntity
8
0
100
AcDbLine
10
-42
20
-30.000000000000004
30
0
11
-42
21
-29.000000000000004
31
0
0
LINE
5
244
100
AcDbEntity
8
0
100
AcDbLine
10
-42
20
22
30
0
11
-42
21
21
31
0
0
LINE
5
245
100
AcDbEntity
8
0
100
AcDbLine
10
-42.800000000000004
20
-29.000000000000004
30
0
11
-42
21
-29.000000000000004
31
0
0
LINE
5
246
100
AcDbEntity
8
0
100
AcDbLine
10
-42
20
7.9999999999999982
30
0
11
-42
21
9
31
0
0
LINE
5
247
100
AcDbEntity
8
0
100
AcDbLine
10
-28
20
12.5
30
0
11
-27.199999999999996
21
12.5
31
0
0
LINE
5
248
100
AcDbEntity
8
0
100
AcDbLine
10
-27.199999999999996
20
12.5
30
0
11
-27.199999999999996
21
9
31
0
0
LINE
5
249
100
AcDbEntity
8
0
100
AcDbLine
10
-27.199999999999996
20
-1.5000000000000013
30
0
11
-27.199999999999996
21
1.9999999999999996
31
0
0
LINE
5
250
100
AcDbEntity
8
0
100
AcDbLine
10
-42
20
-29.000000000000004
30
0
11
-42
21
-30.000000000000004
31
0
0
LINE
5
251
100
AcDbEntity
8
0
100
AcDbLine
10
-28
20
21
30
0
11
-28
21
22
31
0
0
LINE
5
252
100
AcDbEntity
8
0
100
AcDbLine
10
-27.199999999999996
20
9
30
0
11
-28
21
9
31
0
0
LINE
5
253
100
AcDbEntity
8
0
100
AcDbLine
10
-28
20
22
30
0
11
-28
21
21
31
0
0
LINE
5
254
100
AcDbEntity
8
0
100
AcDbLine
10
-28
20
-29.000000000000004
30
0
11
-28
21
-30.000000000000004
31
0
0
LINE
5
255
100
AcDbEntity
8
0
100
AcDbLine
10
-42.800000000000004
20
12.5
30
0
11
-42.800000000000004
21
9
31
0
0
LINE
5
256
100
AcDbEntity
8
0
100
AcDbLine
10
-42.800000000000004
20
9
30
0
11
-42
21
9
31
0
0
LINE
5
257
100
AcDbEntity
8
0
100
AcDbLine
10
-42
20
15
30
0
11
-42
21
12.5
31
0
0
LINE
5
258
100
AcDbEntity
8
0
100
AcDbLine
10
-27.199999999999996
20
-29.000000000000004
30
0
11
-28
21
-29.000000000000004
31
0
0
LINE
5
259
100
AcDbEntity
8
0
100
AcDbLine
10
-42
20
-30.000000000000004
30
0
11
-35
21
-30.000000000000004
31
0
0
LINE
5
260
100
AcDbEntity
8
0
100
AcDbLine
10
-42
20
-25.500000000000004
30
0
11
-42.800000000000004
21
-25.500000000000004
31
0
0
LINE
5
261
100
AcDbEntity
8
0
100
AcDbLine
10
-42
20
12.5
30
0
11
-42.800000000000004
21
12.5
31
0
0
LINE
5
262
100
AcDbEntity
8
0
100
AcDbLine
10
-28
20
-30.000000000000004
30
0
11
-28
21
-29.000000000000004
31
0
0
LINE
5
263
100
AcDbEntity
8
0
100
AcDbLine
10
-27.199999999999996
20
21
30
0
11
-28
21
21
31
0
0
LINE
5
264
100
AcDbEntity
8
0
100
AcDbLine
10
-28
20
-6.5000000000000018
30
0
11
-27.199999999999996
21
-6.5000000000000018
31
0
0
LINE
5
265
100
AcDbEntity
8
0
100
AcDbLine
10
-42
20
-4.0000000000000018
30
0
11
-42
21
-1.5000000000000013
31
0
0
LINE
5
266
100
AcDbEntity
8
0
100
AcDbLine
10
-27.199999999999996
20
-20.500000000000004
30
0
11
-27.199999999999996
21
-17
31
0
0
LINE
5
267
100
AcDbEntity
8
0
100
AcDbLine
10
-42.800000000000004
20
-6.5000000000000018
30
0
11
-42.800000000000004
21
-10.000000000000002
31
0
0
LINE
5
268
100
AcDbEntity
8
0
100
AcDbLine
10
-28
20
7.9999999999999982
30
0
11
-35
21
7.9999999999999982
31
0
0
LINE
5
269
100
AcDbEntity
8
0
100
AcDbLine
10
-42
20
-1.5000000000000013
30
0
11
-42.800000000000004
21
-1.5000000000000013
31
0
0
LINE
5
270
100
AcDbEntity
8
0
100
AcDbLine
10
-42
20
15
30
0
11
-42
21
17.5
31
0
0
LINE
5
271
100
AcDbEntity
8
0
100
AcDbLine
10
-28
20
9
30
0
11
-28
21
7.9999999999999982
31
0
0
LINE
5
272
100
AcDbEntity
8
0
100
AcDbLine
10
-28
20
-4.0000000000000018
30
0
11
-28
21
-6.5000000000000018
31
0
0
LINE
5
273
100
AcDbEntity
8
0
100
AcDbLine
10
-42
20
-23.000000000000004
30
0
11
-42
21
-20.500000000000004
31
0
0
LINE
5
274
100
AcDbEntity
8
0
100
AcDbLine
10
-42
20
-20.500000000000004
30
0
11
-42.800000000000004
21
-20.500000000000004
31
0
0
LINE
5
275
100
AcDbEntity
8
0
100
AcDbLine
10
-28
20
-20.500000000000004
30
0
11
-27.199999999999996
21
-20.500000000000004
31
0
0
LINE
5
276
100
AcDbEntity
8
0
100
AcDbLine
10
-27.199999999999996
20
-1.5000000000000013
30
0
11
-27.199999999999996
21
1.9999999999999996
31
0
0
LINE
5
277
100
AcDbEntity
8
0
100
AcDbLine
10
-42.800000000000004
20
-25.500000000000004
30
0
11
-42.800000000000004
21
-29.000000000000004
31
0
0
LINE
5
278
100
AcDbEntity
8
0
100
AcDbLine
10
-42.800000000000004
20
-6.5000000000000018
30
0
11
-42.800000000000004
21
-10.000000000000002
31
0
0
LINE
5
279
100
AcDbEntity
8
0
100
AcDbLine
10
-27.199999999999996
20
17.5
30
0
11
-27.199999999999996
21
21
31
0
0
LINE
5
280
100
AcDbEntity
8
0
100
AcDbLine
10
-27.199999999999996
20
-25.500000000000004
30
0
11
-27.199999999999996
21
-29.000000000000004
31
0
0
LINE
5
281
100
AcDbEntity
8
0
100
AcDbLine
10
-42.800000000000004
20
-1.5000000000000013
30
0
11
-42.800000000000004
21
1.9999999999999996
31
0
0
LINE
5
282
100
AcDbEntity
8
0
100
AcDbLine
10
-28
20
-4.0000000000000018
30
0
11
-28
21
-1.5000000000000013
31
0
0
LINE
5
283
100
AcDbEntity
8
0
100
AcDbLine
10
-42
20
17.5
30
0
11
-42.800000000000004
21
17.5
31
0
0
LINE
5
284
100
AcDbEntity
8
0
100
AcDbLine
10
-42.800000000000004
20
-20.500000000000004
30
0
11
-42.800000000000004
21
-17
31
0
0
LINE
5
285
100
AcDbEntity
8
0
100
AcDbLine
10
-42
20
-4.0000000000000018
30
0
11
-42
21
-1.5000000000000013
31
0
0
LINE
5
286
100
AcDbEntity
8
0
100
AcDbLine
10
-28
20
-6.5000000000000018
30
0
11
-27.199999999999996
21
-6.5000000000000018
31
0
0
LINE
5
287
100
AcDbEntity
8
0
100
AcDbLine
10
-27.199999999999996
20
-20.500000000000004
30
0
11
-27.199999999999996
21
-17
31
0
0
LINE
5
288
100
AcDbEntity
8
0
100
AcDbLine
10
-42
20
-30.000000000000004
30
0
11
-42
21
-29.000000000000004
31
0
0
LINE
5
289
100
AcDbEntity
8
0
100
AcDbLine
10
-42.800000000000004
20
12.5
30
0
11
-42.800000000000004
21
9
31
0
0
LINE
5
290
100
AcDbEntity
8
0
100
AcDbLine
10
-28
20
15
30
0
11
-28
21
12.5
31
0
0
LINE
5
291
100
AcDbEntity
8
0
100
AcDbLine
10
-28
20
15
30
0
11
-28
21
17.5
31
0
0
LINE
5
292
100
AcDbEntity
8
0
100
AcDbLine
10
-42
20
-11.000000000000004
30
0
11
-42
21
-10.000000000000002
31
0
0
LINE
5
293
100
AcDbEntity
8
0
100
AcDbLine
10
-28
20
1.9999999999999996
30
0
11
-28
21
3.0000000000000004
31
0
0
LINE
5
294
100
AcDbEntity
8
0
100
AcDbLine
10
-42
20
12.5
30
0
11
-42.800000000000004
21
12.5
31
0
0
LINE
5
295
100
AcDbEntity
8
0
100
AcDbLine
10
-42
20
-6.5000000000000018
30
0
11
-42.800000000000004
21
-6.5000000000000018
31
0
0
LINE
5
296
100
AcDbEntity
8
0
100
AcDbLine
10
-42
20
7.9999999999999982
30
0
11
-35
21
7.9999999999999982
31
0
0
LINE
5
297
100
AcDbEntity
8
0
100
AcDbLine
10
-28
20
-23.000000000000004
30
0
11
-28
21
-20.500000000000004
31
0
0
LINE
5
298
100
AcDbEntity
8
0
100
AcDbLine
10
-42
20
-4.0000000000000018
30
0
11
-42
21
-6.5000000000000018
31
0
0
LINE
5
299
100
AcDbEntity
8
0
100
AcDbLine
10
-42
20
-25.500000000000004
30
0
11
-42.800000000000004
21
-25.500000000000004
31
0
0
LINE
5
300
100
AcDbEntity
8
0
100
AcDbLine
10
-28
20
-1.5000000000000013
30
0
11
-27.199999999999996
21
-1.5000000000000013
31
0
0
LINE
5
301
100
AcDbEntity
8
0
100
AcDbLine
10
-28
20
7.9999999999999982
30
0
11
-28
21
9
31
0
0
LINE
5
302
100
AcDbEntity
8
0
100
AcDbLine
10
-27.199999999999996
20
-10.000000000000002
30
0
11
-28
21
-10.000000000000002
31
0
0
LINE
5
303
100
AcDbEntity
8
0
100
AcDbLine
10
-42
20
-29.000000000000004
30
0
11
-42
21
-30.000000000000004
31
0
0
LINE
5
304
100
AcDbEntity
8
0
100
AcDbLine
10
-42.800000000000004
20
-10.000000000000002
30
0
11
-42
21
-10.000000000000002
31
0
0
LINE
5
305
100
AcDbEntity
8
0
100
AcDbLine
10
-27.199999999999996
20
1.9999999999999996
30
0
11
-28
21
1.9999999999999996
31
0
0
LINE
5
306
100
AcDbEntity
8
0
100
AcDbLine
10
-42
20
1.9999999999999996
30
0
11
-42
21
3.0000000000000004
31
0
0
LINE
5
307
100
AcDbEntity
8
0
100
AcDbLine
10
-28
20
-23.000000000000004
30
0
11
-28
21
-25.500000000000004
31
0
0
LINE
5
308
100
AcDbEntity
8
0
100
AcDbLine
10
-27.199999999999996
20
-29.000000000000004
30
0
11
-28
21
-29.000000000000004
31
0
0
LINE
5
309
100
AcDbEntity
8
0
100
AcDbLine
10
-42.800000000000004
20
-29.000000000000004
30
0
11
-42
21
-29.000000000000004
31
0
0
LINE
5
310
100
AcDbEntity
8
0
100
AcDbLine
10
-28
20
3.0000000000000004
30
0
11
-35
21
3.0000000000000004
31
0
0
LINE
5
311
100
AcDbEntity
8
0
100
AcDbLine
10
-28
20
17.5
30
0
11
-27.199999999999996
21
17.5
31
0
0
LINE
5
312
100
AcDbEntity
8
0
100
AcDbLine
10
-42.800000000000004
20
17.5
30
0
11
-42.800000000000004
21
21
31
0
0
LINE
5
313
100
AcDbEntity
8
0
100
AcDbLine
10
-28
20
-30.000000000000004
30
0
11
-28
21
-29.000000000000004
31
0
0
LINE
5
314
100
AcDbEntity
8
0
100
AcDbLine
10
-42
20
7.9999999999999982
30
0
11
-42
21
9
31
0
0
LINE
5
315
100
AcDbEntity
8
0
100
AcDbLine
10
-42
20
-23.000000000000004
30
0
11
-42
21
-25.500000000000004
31
0
0
LINE
5
316
100
AcDbEntity
8
0
100
AcDbLine
10
-42
20
-10.000000000000002
30
0
11
-42
21
-11.000000000000004
31
0
0
LINE
5
317
100
AcDbEntity
8
0
100
AcDbLine
10
-42
20
15
30
0
11
-42
21
12.5
31
0
0
LINE
5
318
100
AcDbEntity
8
0
100
AcDbLine
10
-28
20
-25.500000000000004
30
0
11
-27.199999999999996
21
-25.500000000000004
31
0
0
LINE
5
319
100
AcDbEntity
8
0
100
AcDbLine
10
-27.199999999999996
20
-6.5000000000000018
30
0
11
-27.199999999999996
21
-10.000000000000002
31
0
0
LINE
5
320
100
AcDbEntity
8
0
100
AcDbLine
10
-28
20
-29.000000000000004
30
0
11
-28
21
-30.000000000000004
31
0
0
LINE
5
321
100
AcDbEntity
8
0
100
AcDbLine
10
-42
20
3.0000000000000004
30
0
11
-35
21
3.0000000000000004
31
0
0
LINE
5
322
100
AcDbEntity
8
0
100
AcDbLine
10
-28
20
-10.000000000000002
30
0
11
-28
21
-11.000000000000004
31
0
0
LINE
5
323
100
AcDbEntity
8
0
100
AcDbLine
10
-42
20
-30.000000000000004
30
0
11
-35
21
-30.000000000000004
31
0
0
LINE
5
324
100
AcDbEntity
8
0
100
AcDbLine
10
-28
20
-11.000000000000004
30
0
11
-28
21
-10.000000000000002
31
0
0
LINE
5
325
100
AcDbEntity
8
0
100
AcDbLine
10
-27.199999999999996
20
-17
30
0
11
-28
21
-17
31
0
0
LINE
5
326
100
AcDbEntity
8
0
100
AcDbLine
10
-42.800000000000004
20
9
30
0
11
-42
21
9
31
0
0
LINE
5
327
100
AcDbEntity
8
0
100
AcDbLine
10
-42
20
-11.000000000000004
30
0
11
-35
21
-11.000000000000004
31
0
0
LINE
5
328
100
AcDbEntity
8
0
100
AcDbLine
10
-42.800000000000004
20
-17
30
0
11
-42
21
-17
31
0
0
LINE
5
329
100
AcDbEntity
8
0
100
AcDbLine
10
-28
20
3.0000000000000004
30
0
11
-28
21
1.9999999999999996
31
0
0
LINE
5
330
100
AcDbEntity
8
0
100
AcDbLine
10
-42
20
22
30
0
11
-35
21
22
31
0
0
LINE
5
331
100
AcDbEntity
8
0
100
AcDbLine
10
-28
20
22
30
0
11
-28
21
21
31
0
0
LINE
5
332
100
AcDbEntity
8
0
100
AcDbLine
10
-28
20
21
30
0
11
-28
21
22
31
0
0
LINE
5
333
100
AcDbEntity
8
0
100
AcDbLine
10
-42
20
9
30
0
11
-42
21
7.9999999999999982
31
0
0
LINE
5
334
100
AcDbEntity
8
0
100
AcDbLine
10
-27.199999999999996
20
9
30
0
11
-28
21
9
31
0
0
LINE
5
335
100
AcDbEntity
8
0
100
AcDbLine
10
-42
20
3.0000000000000004
30
0
11
-42
21
1.9999999999999996
31
0
0
LINE
5
336
100
AcDbEntity
8
0
100
AcDbLine
10
-42
20
21
30
0
11
-42
21
22
31
0
0
LINE
5
337
100
AcDbEntity
8
0
100
AcDbLine
10
-28
20
-11.000000000000004
30
0
11
-35
21
-11.000000000000004
31
0
0
LINE
5
338
100
AcDbEntity
8
0
100
AcDbLine
10
-28
20
-17
30
0
11
-28
21
-16
31
0
0
LINE
5
339
100
AcDbEntity
8
0
100
AcDbLine
10
-27.199999999999996
20
12.5
30
0
11
-27.199999999999996
21
9
31
0
0
LINE
5
340
100
AcDbEntity
8
0
100
AcDbLine
10
-42
20
22
30
0
11
-42
21
21
31
0
0
LINE
5
341
100
AcDbEntity
8
0
100
AcDbLine
10
-28
20
-16
30
0
11
-35
21
-16
31
0
0
LINE
5
342
100
AcDbEntity
8
0
100
AcDbLine
10
-42
20
-16
30
0
11
-42
21
-17
31
0
0
LINE
5
343
100
AcDbEntity
8
0
100
AcDbLine
10
-28
20
-30.000000000000004
30
0
11
-35
21
-30.000000000000004
31
0
0
LINE
5
344
100
AcDbEntity
8
0
100
AcDbLine
10
-42.800000000000004
20
21
30
0
11
-42
21
21
31
0
0
LINE
5
345
100
AcDbEntity
8
0
100
AcDbLine
10
-27.199999999999996
20
21
30
0
11
-28
21
21
31
0
0
LINE
5
346
100
AcDbEntity
8
0
100
AcDbLine
10
-42
20
-17
30
0
11
-42
21
-16
31
0
0
LINE
5
347
100
AcDbEntity
8
0
100
AcDbLine
10
-28
20
-16
30
0
11
-28
21
-17
31
0
0
LINE
5
348
100
AcDbEntity
8
0
100
AcDbLine
10
-28
20
22
30
0
11
-35
21
22
31
0
0
LINE
5
349
100
AcDbEntity
8
0
100
AcDbLine
10
-42
20
-16
30
0
11
-35
21
-16
31
0
0
LINE
5
350
100
AcDbEntity
8
0
100
AcDbLine
10
-28
20
12.5
30
0
11
-27.199999999999996
21
12.5
31
0
0
LINE
5
351
100
AcDbEntity
8
0
100
AcDbLine
10
-42.800000000000004
20
1.9999999999999996
30
0
11
-42
21
1.9999999999999996
31
0
0
LINE
5
352
100
AcDbEntity
8
0
100
AcDbLine
10
-47.574318763139011
20
5.0973000959411818
30
0
11
-54.570054552272673
21
5.3415965728586894
31
0
0
LINE
5
353
100
AcDbEntity
8
0
100
AcDbLine
10
-61.897335560080087
20
-3.9083198069052063
30
0
11
-62.696848221695369
21
-3.8804002095432057
31
0
0
LINE
5
354
100
AcDbEntity
8
0
100
AcDbLine
10
-61.321493864488829
20
12.581628838909861
30
0
11
-61.234245122732574
21
15.0801059064576
31
0
0
LINE
5
355
100
AcDbEntity
8
0
100
AcDbLine
10
-47.539419266436511
20
6.0966909229602795
30
0
11
-47.574318763139011
21
5.0973000959411818
31
0
0
LINE
5
356
100
AcDbEntity
8
0
100
AcDbLine
10
-47.99311272356902
20
-6.8953898282879571
30
0
11
-48.080361465325282
21
-9.3938668958356946
31
0
0
LINE
5
357
100
AcDbEntity
8
0
100
AcDbLine
10
-62.647674739183863
20
-25.395222587815745
30
0
11
-62.560425997427615
21
-22.896745520268009
31
0
0
LINE
5
358
100
AcDbEntity
8
0
100
AcDbLine
10
-62.560425997427615
20
-22.896745520268009
30
0
11
-63.359938659042889
21
-22.868825922906009
31
0
0
LINE
5
359
100
AcDbEntity
8
0
100
AcDbLine
10
-48.568954419160292
20
-23.385338474103019
30
0
11
-47.76944175754501
21
-23.41325807146502
31
0
0
LINE
5
360
100
AcDbEntity
8
0
100
AcDbLine
10
-47.10635132019749
20
-4.4248323581022184
30
0
11
-46.984203081738734
21
-0.92696446353538686
31
0
0
LINE
5
361
100
AcDbEntity
8
0
100
AcDbLine
10
-63.534436142555393
20
-27.865780058001484
30
0
11
-63.656584381014142
21
-31.363647952568314
31
0
0
LINE
5
362
100
AcDbEntity
8
0
100
AcDbLine
10
-62.871345705207879
20
-8.8773543446386824
30
0
11
-62.993493943666635
21
-12.375222239205513
31
0
0
LINE
5
363
100
AcDbEntity
8
0
100
AcDbLine
10
-46.443260882849977
20
14.563593355260585
30
0
11
-46.321112644391221
21
18.061461249827424
31
0
0
LINE
5
364
100
AcDbEntity
8
0
100
AcDbLine
10
-47.943939241057514
20
-28.410212206560495
30
0
11
-48.06608747951627
21
-31.908080101127325
31
0
0
LINE
5
365
100
AcDbEntity
8
0
100
AcDbLine
10
-62.696848221695369
20
-3.8804002095432057
30
0
11
-62.574699983236613
21
-0.38253231497637374
31
0
0
LINE
5
366
100
AcDbEntity
8
0
100
AcDbLine
10
-47.99311272356902
20
-6.8953898282879571
30
0
11
-47.905863981812765
21
-4.3969127607402179
31
0
0
LINE
5
367
100
AcDbEntity
8
0
100
AcDbLine
10
-61.234245122732574
20
15.0801059064576
30
0
11
-62.033757784347856
21
15.108025503819601
31
0
0
LINE
5
368
100
AcDbEntity
8
0
100
AcDbLine
10
-63.359938659042889
20
-22.868825922906009
30
0
11
-63.237790420584133
21
-19.370958028339174
31
0
0
LINE
5
369
100
AcDbEntity
8
0
100
AcDbLine
10
-61.984584301836342
20
-6.4067968744529447
30
0
11
-61.897335560080087
21
-3.9083198069052063
31
0
0
LINE
5
370
100
AcDbEntity
8
0
100
AcDbLine
10
-48.080361465325282
20
-9.3938668958356946
30
0
11
-47.280848803710001
21
-9.4217864931976951
31
0
0
LINE
5
371
100
AcDbEntity
8
0
100
AcDbLine
10
-47.76944175754501
20
-23.41325807146502
30
0
11
-47.647293519086261
21
-19.915390176898189
31
0
0
LINE
5
372
100
AcDbEntity
8
0
100
AcDbLine
10
-62.891971216101368
20
-32.390958376949413
30
0
11
-62.857071719398867
21
-31.391567549930315
31
0
0
LINE
5
373
100
AcDbEntity
8
0
100
AcDbLine
10
-62.208255267860359
20
10.111071368724126
30
0
11
-62.330403506319108
21
6.6132034741572916
31
0
0
LINE
5
374
100
AcDbEntity
8
0
100
AcDbLine
10
-47.330022286221507
20
12.093035885074848
30
0
11
-47.417271027977755
21
9.5945588175271102
31
0
0
LINE
5
375
100
AcDbEntity
8
0
100
AcDbLine
10
-47.330022286221507
20
12.093035885074848
30
0
11
-47.242773544465251
21
14.591512952622585
31
0
0
LINE
5
376
100
AcDbEntity
8
0
100
AcDbLine
10
-62.228880778753854
20
-13.40253266358661
30
0
11
-62.193981282051354
21
-12.403141836567514
31
0
0
LINE
5
377
100
AcDbEntity
8
0
100
AcDbLine
10
-47.783715743354016
20
-0.8990448661733863
30
0
11
-47.748816246651515
21
0.10034596084570691
31
0
0
LINE
5
378
100
AcDbEntity
8
0
100
AcDbLine
10
-61.408742606245077
20
10.083151771362125
30
0
11
-62.208255267860359
21
10.111071368724126
31
0
0
LINE
5
379
100
AcDbEntity
8
0
100
AcDbLine
10
-62.071833043592605
20
-8.905273942000683
30
0
11
-62.871345705207879
21
-8.8773543446386824
31
0
0
LINE
5
380
100
AcDbEntity
8
0
100
AcDbLine
10
-61.565790341406334
20
5.5858930497761961
30
0
11
-54.570054552272673
21
5.3415965728586894
31
0
0
LINE
5
381
100
AcDbEntity
8
0
100
AcDbLine
10
-48.65620316091654
20
-25.883815541650755
30
0
11
-48.568954419160292
21
-23.385338474103019
31
0
0
LINE
5
382
100
AcDbEntity
8
0
100
AcDbLine
10
-61.984584301836342
20
-6.4067968744529447
30
0
11
-62.071833043592605
21
-8.905273942000683
31
0
0
LINE
5
383
100
AcDbEntity
8
0
100
AcDbLine
10
-62.734923480940111
20
-27.893699655363484
30
0
11
-63.534436142555393
21
-27.865780058001484
31
0
0
LINE
5
384
100
AcDbEntity
8
0
100
AcDbLine
10
-47.905863981812765
20
-4.3969127607402179
30
0
11
-47.10635132019749
21
-4.4248323581022184
31
0
0
LINE
5
385
100
AcDbEntity
8
0
100
AcDbLine
10
-47.574318763139011
20
5.0973000959411818
30
0
11
-47.539419266436511
21
6.0966909229602795
31
0
0
LINE
5
386
100
AcDbEntity
8
0
100
AcDbLine
10
-47.402997042168749
20
-12.919654387764526
30
0
11
-48.202509703784031
21
-12.891734790402525
31
0
0
LINE
5
387
100
AcDbEntity
8
0
100
AcDbLine
10
-62.857071719398867
20
-31.391567549930315
30
0
11
-62.891971216101368
21
-32.390958376949413
31
0
0
LINE
5
388
100
AcDbEntity
8
0
100
AcDbLine
10
-62.993493943666635
20
-12.375222239205513
30
0
11
-62.193981282051354
21
-12.403141836567514
31
0
0
LINE
5
389
100
AcDbEntity
8
0
100
AcDbLine
10
-46.984203081738734
20
-0.92696446353538686
30
0
11
-47.783715743354016
21
-0.8990448661733863
31
0
0
LINE
5
390
100
AcDbEntity
8
0
100
AcDbLine
10
-61.775187321621338
20
-0.41045191233837208
30
0
11
-61.740287824918838
21
0.58893891468072113
31
0
0
LINE
5
391
100
AcDbEntity
8
0
100
AcDbLine
10
-48.65620316091654
20
-25.883815541650755
30
0
11
-48.743451902672788
21
-28.382292609198494
31
0
0
LINE
5
392
100
AcDbEntity
8
0
100
AcDbLine
10
-48.06608747951627
20
-31.908080101127325
30
0
11
-48.865600141131537
21
-31.880160503765325
31
0
0
LINE
5
393
100
AcDbEntity
8
0
100
AcDbLine
10
-63.656584381014142
20
-31.363647952568314
30
0
11
-62.857071719398867
21
-31.391567549930315
31
0
0
LINE
5
394
100
AcDbEntity
8
0
100
AcDbLine
10
-47.748816246651515
20
0.10034596084570691
30
0
11
-54.744552035785176
21
0.34464243776321402
31
0
0
LINE
5
395
100
AcDbEntity
8
0
100
AcDbLine
10
-47.242773544465251
20
14.591512952622585
30
0
11
-46.443260882849977
21
14.563593355260585
31
0
0
LINE
5
396
100
AcDbEntity
8
0
100
AcDbLine
10
-62.033757784347856
20
15.108025503819601
30
0
11
-61.9116095458891
21
18.605893398386435
31
0
0
LINE
5
397
100
AcDbEntity
8
0
100
AcDbLine
10
-48.900499637834038
20
-32.879551330784423
30
0
11
-48.865600141131537
21
-31.880160503765325
31
0
0
LINE
5
398
100
AcDbEntity
8
0
100
AcDbLine
10
-61.565790341406334
20
5.5858930497761961
30
0
11
-61.530890844703833
21
6.585283876795291
31
0
0
LINE
5
399
100
AcDbEntity
8
0
100
AcDbLine
10
-62.647674739183863
20
-25.395222587815745
30
0
11
-62.734923480940111
21
-27.893699655363484
31
0
0
LINE
5
400
100
AcDbEntity
8
0
100
AcDbLine
10
-62.193981282051354
20
-12.403141836567514
30
0
11
-62.228880778753854
21
-13.40253266358661
31
0
0
LINE
5
401
100
AcDbEntity
8
0
100
AcDbLine
10
-61.321493864488829
20
12.581628838909861
30
0
11
-61.408742606245077
21
10.083151771362125
31
0
0
LINE
5
402
100
AcDbEntity
8
0
100
AcDbLine
10
-48.743451902672788
20
-28.382292609198494
30
0
11
-47.943939241057514
21
-28.410212206560495
31
0
0
LINE
5
403
100
AcDbEntity
8
0
100
AcDbLine
10
-47.280848803710001
20
-9.4217864931976951
30
0
11
-47.402997042168749
21
-12.919654387764526
31
0
0
LINE
5
404
100
AcDbEntity
8
0
100
AcDbLine
10
-48.865600141131537
20
-31.880160503765325
30
0
11
-48.900499637834038
21
-32.879551330784423
31
0
0
LINE
5
405
100
AcDbEntity
8
0
100
AcDbLine
10
-61.740287824918838
20
0.58893891468072113
30
0
11
-54.744552035785176
21
0.34464243776321402
31
0
0
LINE
5
406
100
AcDbEntity
8
0
100
AcDbLine
10
-48.202509703784031
20
-12.891734790402525
30
0
11
-48.237409200486532
21
-13.891125617421622
31
0
0
LINE
5
407
100
AcDbEntity
8
0
100
AcDbLine
10
-62.891971216101368
20
-32.390958376949413
30
0
11
-55.896235426967706
21
-32.635254853866918
31
0
0
LINE
5
408
100
AcDbEntity
8
0
100
AcDbLine
10
-48.237409200486532
20
-13.891125617421622
30
0
11
-48.202509703784031
21
-12.891734790402525
31
0
0
LINE
5
409
100
AcDbEntity
8
0
100
AcDbLine
10
-47.647293519086261
20
-19.915390176898189
30
0
11
-48.446806180701536
21
-19.887470579536188
31
0
0
LINE
5
410
100
AcDbEntity
8
0
100
AcDbLine
10
-62.330403506319108
20
6.6132034741572916
30
0
11
-61.530890844703833
21
6.585283876795291
31
0
0
LINE
5
411
100
AcDbEntity
8
0
100
AcDbLine
10
-62.228880778753854
20
-13.40253266358661
30
0
11
-55.233144989620193
21
-13.646829140504115
31
0
0
LINE
5
412
100
AcDbEntity
8
0
100
AcDbLine
10
-63.237790420584133
20
-19.370958028339174
30
0
11
-62.438277758968859
21
-19.398877625701175
31
0
0
LINE
5
413
100
AcDbEntity
8
0
100
AcDbLine
10
-47.748816246651515
20
0.10034596084570691
30
0
11
-47.783715743354016
21
-0.8990448661733863
31
0
0
LINE
5
414
100
AcDbEntity
8
0
100
AcDbLine
10
-61.077197387571324
20
19.577364628043522
30
0
11
-54.081461598437663
21
19.333068151126021
31
0
0
LINE
5
415
100
AcDbEntity
8
0
100
AcDbLine
10
-47.085725809304002
20
19.088771674208516
30
0
11
-47.120625306006502
21
18.089380847189425
31
0
0
LINE
5
416
100
AcDbEntity
8
0
100
AcDbLine
10
-47.120625306006502
20
18.089380847189425
30
0
11
-47.085725809304002
21
19.088771674208516
31
0
0
LINE
5
417
100
AcDbEntity
8
0
100
AcDbLine
10
-61.530890844703833
20
6.585283876795291
30
0
11
-61.565790341406334
21
5.5858930497761961
31
0
0
LINE
5
418
100
AcDbEntity
8
0
100
AcDbLine
10
-46.739906604821229
20
6.0687713255982789
30
0
11
-47.539419266436511
21
6.0966909229602795
31
0
0
LINE
5
419
100
AcDbEntity
8
0
100
AcDbLine
10
-61.740287824918838
20
0.58893891468072113
30
0
11
-61.775187321621338
21
-0.41045191233837208
31
0
0
LINE
5
420
100
AcDbEntity
8
0
100
AcDbLine
10
-61.112096884273825
20
18.577973801024431
30
0
11
-61.077197387571324
21
19.577364628043522
31
0
0
LINE
5
421
100
AcDbEntity
8
0
100
AcDbLine
10
-48.237409200486532
20
-13.891125617421622
30
0
11
-55.233144989620193
21
-13.646829140504115
31
0
0
LINE
5
422
100
AcDbEntity
8
0
100
AcDbLine
10
-48.446806180701536
20
-19.887470579536188
30
0
11
-48.411906683999035
21
-18.888079752517093
31
0
0
LINE
5
423
100
AcDbEntity
8
0
100
AcDbLine
10
-46.61775836636248
20
9.5666392201651096
30
0
11
-46.739906604821229
21
6.0687713255982789
31
0
0
LINE
5
424
100
AcDbEntity
8
0
100
AcDbLine
10
-61.077197387571324
20
19.577364628043522
30
0
11
-61.112096884273825
21
18.577973801024431
31
0
0
LINE
5
425
100
AcDbEntity
8
0
100
AcDbLine
10
-48.411906683999035
20
-18.888079752517093
30
0
11
-55.407642473132697
21
-18.643783275599588
31
0
0
LINE
5
426
100
AcDbEntity
8
0
100
AcDbLine
10
-62.403378262266358
20
-18.399486798682084
30
0
11
-62.438277758968859
21
-19.398877625701175
31
0
0
LINE
5
427
100
AcDbEntity
8
0
100
AcDbLine
10
-48.900499637834038
20
-32.879551330784423
30
0
11
-55.896235426967706
21
-32.635254853866918
31
0
0
LINE
5
428
100
AcDbEntity
8
0
100
AcDbLine
10
-61.9116095458891
20
18.605893398386435
30
0
11
-61.112096884273825
21
18.577973801024431
31
0
0
LINE
5
429
100
AcDbEntity
8
0
100
AcDbLine
10
-46.321112644391221
20
18.061461249827424
30
0
11
-47.120625306006502
21
18.089380847189425
31
0
0
LINE
5
430
100
AcDbEntity
8
0
100
AcDbLine
10
-62.438277758968859
20
-19.398877625701175
30
0
11
-62.403378262266358
21
-18.399486798682084
31
0
0
LINE
5
431
100
AcDbEntity
8
0
100
AcDbLine
10
-48.411906683999035
20
-18.888079752517093
30
0
11
-48.446806180701536
21
-19.887470579536188
31
0
0
LINE
5
432
100
AcDbEntity
8
0
100
AcDbLine
10
-47.085725809304002
20
19.088771674208516
30
0
11
-54.081461598437663
21
19.333068151126021
31
0
0
LINE
5
433
100
AcDbEntity
8
0
100
AcDbLine
10
-62.403378262266358
20
-18.399486798682084
30
0
11
-55.407642473132697
21
-18.643783275599588
31
0
0
LINE
5
434
100
AcDbEntity
8
0
100
AcDbLine
10
-47.417271027977755
20
9.5945588175271102
30
0
11
-46.61775836636248
21
9.5666392201651096
31
0
0
LINE
5
435
100
AcDbEntity
8
0
100
AcDbLine
10
-62.574699983236613
20
-0.38253231497637374
30
0
11
-61.775187321621338
21
-0.41045191233837208
31
0
0
LINE
5
436
100
AcDbEntity
8
0
100
AcDbLine
10
-67.23801614589793
20
2.8795023113634421
30
0
11
-74.220964497716707
21
3.3677976275723243
31
0
0
LINE
5
437
100
AcDbEntity
8
0
100
AcDbLine
10
-81.866599350104678
20
-5.6207655336871243
30
0
11
-82.664650590312505
21
-5.5649603546918236
31
0
0
LINE
5
438
100
AcDbEntity
8
0
100
AcDbLine
10
-80.715617533326594
20
10.839041295599969
30
0
11
-80.541226348966291
21
13.332951421249524
31
0
0
LINE
5
439
100
AcDbEntity
8
0
100
AcDbLine
10
-67.168259672153809
20
3.8770663616232692
30
0
11
-67.23801614589793
21
2.8795023113634421
31
0
0
LINE
5
440
100
AcDbEntity
8
0
100
AcDbLine
10
-68.075093830827427
20
-9.0912662917544402
30
0
11
-68.249485015187744
21
-11.585176417404
31
0
0
LINE
5
441
100
AcDbEntity
8
0
100
AcDbLine
10
-83.366363535603369
20
-27.068392614273339
30
0
11
-83.191972351243038
21
-24.574482488623779
31
0
0
LINE
5
442
100
AcDbEntity
8
0
100
AcDbLine
10
-83.191972351243038
20
-24.574482488623779
30
0
11
-83.990023591450893
21
-24.51867730962848
31
0
0
LINE
5
443
100
AcDbEntity
8
0
100
AcDbLine
10
-69.226075647605512
20
-25.551073121041536
30
0
11
-68.428024407397643
21
-25.606878300036836
31
0
0
LINE
5
444
100
AcDbEntity
8
0
100
AcDbLine
10
-67.10265140625927
20
-6.6531613451001803
30
0
11
-66.858503748154831
21
-3.1616871691907988
31
0
0
LINE
5
445
100
AcDbEntity
8
0
100
AcDbLine
10
-84.338805960171541
20
-29.506497560927599
30
0
11
-84.58295361827598
21
-32.997971736836988
31
0
0
LINE
5
446
100
AcDbEntity
8
0
100
AcDbLine
10
-83.013432959033153
20
-10.552780605990947
30
0
11
-83.257580617137592
21
-14.044254781900328
31
0
0
LINE
5
447
100
AcDbEntity
8
0
100
AcDbLine
10
-65.777278405120882
20
12.300555609836469
30
0
11
-65.533130747016443
21
15.792029785745854
31
0
0
LINE
5
448
100
AcDbEntity
8
0
100
AcDbLine
10
-68.776806776118264
20
-30.594698551335952
30
0
11
-69.020954434222702
21
-34.086172727245341
31
0
0
LINE
5
449
100
AcDbEntity
8
0
100
AcDbLine
10
-82.664650590312505
20
-5.5649603546918236
30
0
11
-82.420502932208109
21
-2.0734861787824421
31
0
0
LINE
5
450
100
AcDbEntity
8
0
100
AcDbLine
10
-68.075093830827427
20
-9.0912662917544402
30
0
11
-67.900702646467124
21
-6.5973561661048796
31
0
0
LINE
5
451
100
AcDbEntity
8
0
100
AcDbLine
10
-80.541226348966291
20
13.332951421249524
30
0
11
-81.339277589174159
21
13.388756600244825
31
0
0
LINE
5
452
100
AcDbEntity
8
0
100
AcDbLine
10
-83.990023591450893
20
-24.51867730962848
30
0
11
-83.745875933346454
21
-21.027203133719095
31
0
0
LINE
5
453
100
AcDbEntity
8
0
100
AcDbLine
10
-82.040990534464981
20
-8.1146756593366849
30
0
11
-81.866599350104678
21
-5.6207655336871243
31
0
0
LINE
5
454
100
AcDbEntity
8
0
100
AcDbLine
10
-68.249485015187744
20
-11.585176417404
30
0
11
-67.45143377497989
21
-11.6409815963993
31
0
0
LINE
5
455
100
AcDbEntity
8
0
100
AcDbLine
10
-68.428024407397643
20
-25.606878300036836
30
0
11
-68.183876749293205
21
-22.115404124127451
31
0
0
LINE
5
456
100
AcDbEntity
8
0
100
AcDbLine
10
-83.854658851812218
20
-34.051340966092106
30
0
11
-83.784902378068125
21
-33.053776915832287
31
0
0
LINE
5
457
100
AcDbEntity
8
0
100
AcDbLine
10
-81.688059957894765
20
8.4009363489457112
30
0
11
-81.932207615999204
21
4.9094621730363253
31
0
0
LINE
5
458
100
AcDbEntity
8
0
100
AcDbLine
10
-66.749720829689053
20
9.8624506631822086
30
0
11
-66.924112014049371
21
7.3685405375326507
31
0
0
LINE
5
459
100
AcDbEntity
8
0
100
AcDbLine
10
-66.749720829689053
20
9.8624506631822086
30
0
11
-66.57532964532875
21
12.356360788831768
31
0
0
LINE
5
460
100
AcDbEntity
8
0
100
AcDbLine
10
-82.52928585067383
20
-15.097624011155455
30
0
11
-82.459529376929737
21
-14.100059960895628
31
0
0
LINE
5
461
100
AcDbEntity
8
0
100
AcDbLine
10
-67.656554988362686
20
-3.1058819901954982
30
0
11
-67.586798514618579
21
-2.1083179399356733
31
0
0
LINE
5
462
100
AcDbEntity
8
0
100
AcDbLine
10
-80.890008717686896
20
8.3451311699504096
30
0
11
-81.688059957894765
21
8.4009363489457112
31
0
0
LINE
5
463
100
AcDbEntity
8
0
100
AcDbLine
10
-82.215381718825284
20
-10.608585784986246
30
0
11
-83.013432959033153
21
-10.552780605990947
31
0
0
LINE
5
464
100
AcDbEntity
8
0
100
AcDbLine
10
-81.203912849535484
20
3.8560929437811975
30
0
11
-74.220964497716707
21
3.3677976275723243
31
0
0
LINE
5
465
100
AcDbEntity
8
0
100
AcDbLine
10
-69.400466831965815
20
-28.044983246691096
30
0
11
-69.226075647605512
21
-25.551073121041536
31
0
0
LINE
5
466
100
AcDbEntity
8
0
100
AcDbLine
10
-82.040990534464981
20
-8.1146756593366849
30
0
11
-82.215381718825284
21
-10.608585784986246
31
0
0
LINE
5
467
100
AcDbEntity
8
0
100
AcDbLine
10
-83.540754719963672
20
-29.562302739922899
30
0
11
-84.338805960171541
21
-29.506497560927599
31
0
0
LINE
5
468
100
AcDbEntity
8
0
100
AcDbLine
10
-67.900702646467124
20
-6.5973561661048796
30
0
11
-67.10265140625927
21
-6.6531613451001803
31
0
0
LINE
5
469
100
AcDbEntity
8
0
100
AcDbLine
10
-67.23801614589793
20
2.8795023113634421
30
0
11
-67.168259672153809
21
3.8770663616232692
31
0
0
LINE
5
470
100
AcDbEntity
8
0
100
AcDbLine
10
-67.695581433084328
20
-15.132455772308685
30
0
11
-68.493632673292183
21
-15.076650593313383
31
0
0
LINE
5
471
100
AcDbEntity
8
0
100
AcDbLine
10
-83.784902378068125
20
-33.053776915832287
30
0
11
-83.854658851812218
21
-34.051340966092106
31
0
0
LINE
5
472
100
AcDbEntity
8
0
100
AcDbLine
10
-83.257580617137592
20
-14.044254781900328
30
0
11
-82.459529376929737
21
-14.100059960895628
31
0
0
LINE
5
473
100
AcDbEntity
8
0
100
AcDbLine
10
-66.858503748154831
20
-3.1616871691907988
30
0
11
-67.656554988362686
21
-3.1058819901954982
31
0
0
LINE
5
474
100
AcDbEntity
8
0
100
AcDbLine
10
-81.622451692000226
20
-2.1292913577777428
30
0
11
-81.55269521825609
21
-1.1317273075179202
31
0
0
LINE
5
475
100
AcDbEntity
8
0
100
AcDbLine
10
-69.400466831965815
20
-28.044983246691096
30
0
11
-69.574858016326118
21
-30.538893372340652
31
0
0
LINE
5
476
100
AcDbEntity
8
0
100
AcDbLine
10
-69.020954434222702
20
-34.086172727245341
30
0
11
-69.819005674430571
21
-34.030367548250034
31
0
0
LINE
5
477
100
AcDbEntity
8
0
100
AcDbLine
10
-84.58295361827598
20
-32.997971736836988
30
0
11
-83.784902378068125
21
-33.053776915832287
31
0
0
LINE
5
478
100
AcDbEntity
8
0
100
AcDbLine
10
-67.586798514618579
20
-2.1083179399356733
30
0
11
-74.569746866437342
21
-1.6200226237267956
31
0
0
LINE
5
479
100
AcDbEntity
8
0
100
AcDbLine
10
-66.57532964532875
20
12.356360788831768
30
0
11
-65.777278405120882
21
12.300555609836469
31
0
0
LINE
5
480
100
AcDbEntity
8
0
100
AcDbLine
10
-81.339277589174159
20
13.388756600244825
30
0
11
-81.095129931069721
21
16.88023077615421
31
0
0
LINE
5
481
100
AcDbEntity
8
0
100
AcDbLine
10
-69.888762148174706
20
-35.027931598509866
30
0
11
-69.819005674430571
21
-34.030367548250034
31
0
0
LINE
5
482
100
AcDbEntity
8
0
100
AcDbLine
10
-81.203912849535484
20
3.8560929437811975
30
0
11
-81.134156375791349
21
4.8536569940410246
31
0
0
LINE
5
483
100
AcDbEntity
8
0
100
AcDbLine
10
-83.366363535603369
20
-27.068392614273339
30
0
11
-83.540754719963672
21
-29.562302739922899
31
0
0
LINE
5
484
100
AcDbEntity
8
0
100
AcDbLine
10
-82.459529376929737
20
-14.100059960895628
30
0
11
-82.52928585067383
21
-15.097624011155455
31
0
0
LINE
5
485
100
AcDbEntity
8
0
100
AcDbLine
10
-80.715617533326594
20
10.839041295599969
30
0
11
-80.890008717686896
21
8.3451311699504096
31
0
0
LINE
5
486
100
AcDbEntity
8
0
100
AcDbLine
10
-69.574858016326118
20
-30.538893372340652
30
0
11
-68.776806776118264
21
-30.594698551335952
31
0
0
LINE
5
487
100
AcDbEntity
8
0
100
AcDbLine
10
-67.45143377497989
20
-11.6409815963993
30
0
11
-67.695581433084328
21
-15.132455772308685
31
0
0
LINE
5
488
100
AcDbEntity
8
0
100
AcDbLine
10
-69.819005674430571
20
-34.030367548250034
30
0
11
-69.888762148174706
21
-35.027931598509866
31
0
0
LINE
5
489
100
AcDbEntity
8
0
100
AcDbLine
10
-81.55269521825609
20
-1.1317273075179202
30
0
11
-74.569746866437342
21
-1.6200226237267956
31
0
0
LINE
5
490
100
AcDbEntity
8
0
100
AcDbLine
10
-68.493632673292183
20
-15.076650593313383
30
0
11
-68.563389147036318
21
-16.07421464357321
31
0
0
LINE
5
491
100
AcDbEntity
8
0
100
AcDbLine
10
-83.854658851812218
20
-34.051340966092106
30
0
11
-76.871710499993469
21
-34.539636282300982
31
0
0
LINE
5
492
100
AcDbEntity
8
0
100
AcDbLine
10
-68.563389147036318
20
-16.07421464357321
30
0
11
-68.493632673292183
21
-15.076650593313383
31
0
0
LINE
5
493
100
AcDbEntity
8
0
100
AcDbLine
10
-68.183876749293205
20
-22.115404124127451
30
0
11
-68.981927989501074
21
-22.059598945132151
31
0
0
LINE
5
494
100
AcDbEntity
8
0
100
AcDbLine
10
-81.932207615999204
20
4.9094621730363253
30
0
11
-81.134156375791349
21
4.8536569940410246
31
0
0
LINE
5
495
100
AcDbEntity
8
0
100
AcDbLine
10
-82.52928585067383
20
-15.097624011155455
30
0
11
-75.546337498855081
21
-15.585919327364333
31
0
0
LINE
5
496
100
AcDbEntity
8
0
100
AcDbLine
10
-83.745875933346454
20
-21.027203133719095
30
0
11
-82.947824693138614
21
-21.083008312714394
31
0
0
LINE
5
497
100
AcDbEntity
8
0
100
AcDbLine
10
-67.586798514618579
20
-2.1083179399356733
30
0
11
-67.656554988362686
21
-3.1058819901954982
31
0
0
LINE
5
498
100
AcDbEntity
8
0
100
AcDbLine
10
-80.227322217117703
20
17.821989647418736
30
0
11
-73.244373865298954
21
17.333694331209859
31
0
0
LINE
5
499
100
AcDbEntity
8
0
100
AcDbLine
10
-66.261425513480177
20
16.845399015000982
30
0
11
-66.331181987224312
21
15.847834964741153
31
0
0
LINE
5
500
100
AcDbEntity
8
0
100
AcDbLine
10
-66.331181987224312
20
15.847834964741153
30
0
11
-66.261425513480177
21
16.845399015000982
31
0
0
LINE
5
501
100
AcDbEntity
8
0
100
AcDbLine
10
-81.134156375791349
20
4.8536569940410246
30
0
11
-81.203912849535484
21
3.8560929437811975
31
0
0
LINE
5
502
100
AcDbEntity
8
0
100
AcDbLine
10
-66.37020843194594
20
3.8212611826279685
30
0
11
-67.168259672153809
21
3.8770663616232692
31
0
0
LINE
5
503
100
AcDbEntity
8
0
100
AcDbLine
10
-81.55269521825609
20
-1.1317273075179202
30
0
11
-81.622451692000226
21
-2.1292913577777428
31
0
0
LINE
5
504
100
AcDbEntity
8
0
100
AcDbLine
10
-80.297078690861838
20
16.824425597158911
30
0
11
-80.227322217117703
21
17.821989647418736
31
0
0
LINE
5
505
100
AcDbEntity
8
0
100
AcDbLine
10
-68.563389147036318
20
-16.07421464357321
30
0
11
-75.546337498855081
21
-15.585919327364333
31
0
0
LINE
5
506
100
AcDbEntity
8
0
100
AcDbLine
10
-68.981927989501074
20
-22.059598945132151
30
0
11
-68.912171515756938
21
-21.062034894872326
31
0
0
LINE
5
507
100
AcDbEntity
8
0
100
AcDbLine
10
-66.126060773841516
20
7.31273535853735
30
0
11
-66.37020843194594
21
3.8212611826279685
31
0
0
LINE
5
508
100
AcDbEntity
8
0
100
AcDbLine
10
-80.227322217117703
20
17.821989647418736
30
0
11
-80.297078690861838
21
16.824425597158911
31
0
0
LINE
5
509
100
AcDbEntity
8
0
100
AcDbLine
10
-68.912171515756938
20
-21.062034894872326
30
0
11
-75.89511986757573
21
-20.573739578663449
31
0
0
LINE
5
510
100
AcDbEntity
8
0
100
AcDbLine
10
-82.878068219394478
20
-20.085444262454573
30
0
11
-82.947824693138614
21
-21.083008312714394
31
0
0
LINE
5
511
100
AcDbEntity
8
0
100
AcDbLine
10
-69.888762148174706
20
-35.027931598509866
30
0
11
-76.871710499993469
21
-34.539636282300982
31
0
0
LINE
5
512
100
AcDbEntity
8
0
100
AcDbLine
10
-81.095129931069721
20
16.88023077615421
30
0
11
-80.297078690861838
21
16.824425597158911
31
0
0
LINE
5
513
100
AcDbEntity
8
0
100
AcDbLine
10
-65.533130747016443
20
15.792029785745854
30
0
11
-66.331181987224312
21
15.847834964741153
31
0
0
LINE
5
514
100
AcDbEntity
8
0
100
AcDbLine
10
-82.947824693138614
20
-21.083008312714394
30
0
11
-82.878068219394478
21
-20.085444262454573
31
0
0
LINE
5
515
100
AcDbEntity
8
0
100
AcDbLine
10
-68.912171515756938
20
-21.062034894872326
30
0
11
-68.981927989501074
21
-22.059598945132151
31
0
0
LINE
5
516
100
AcDbEntity
8
0
100
AcDbLine
10
-66.261425513480177
20
16.845399015000982
30
0
11
-73.244373865298954
21
17.333694331209859
31
0
0
LINE
5
517
100
AcDbEntity
8
0
100
AcDbLine
10
-82.878068219394478
20
-20.085444262454573
30
0
11
-75.89511986757573
21
-20.573739578663449
31
0
0
LINE
5
518
100
AcDbEntity
8
0
100
AcDbLine
10
-66.924112014049371
20
7.3685405375326507
30
0
11
-66.126060773841516
21
7.31273535853735
31
0
0
LINE
5
519
100
AcDbEntity
8
0
100
AcDbLine
10
-82.420502932208109
20
-2.0734861787824421
30
0
11
-81.622451692000226
21
-2.1292913577777428
31
0
0
LINE
5
520
100
AcDbEntity
8
0
100
AcDbLine
10
-87.318867496101973
20
4.4988005755928695
30
0
11
-94.25074397729297
21
5.4730122823133298
31
0
0
LINE
5
521
100
AcDbEntity
8
0
100
AcDbLine
10
-102.50476491760459
20
-2.9603226640111258
30
0
11
-103.29697937259783
21
-2.8489841832430729
31
0
0
LINE
5
522
100
AcDbEntity
8
0
100
AcDbLine
10
-100.2084087517635
20
13.379100470224783
30
0
11
-99.860475999363345
21
15.854770642078702
31
0
0
LINE
5
523
100
AcDbEntity
8
0
100
AcDbLine
10
-87.179694395141908
20
5.4890686443344405
30
0
11
-87.318867496101973
21
4.4988005755928695
31
0
0
LINE
5
524
100
AcDbEntity
8
0
100
AcDbLine
10
-88.98894470762275
20
-7.3844162493059695
30
0
11
-89.336877460022919
21
-9.86008642115989
31
0
0
LINE
5
525
100
AcDbEntity
8
0
100
AcDbLine
10
-105.49698658824599
20
-24.251086141954875
30
0
11
-105.14905383584582
21
-21.775415970100951
31
0
0
LINE
5
526
100
AcDbEntity
8
0
100
AcDbLine
10
-105.14905383584582
20
-21.775415970100951
30
0
11
-105.94126829083906
21
-21.6640774893329
31
0
0
LINE
5
527
100
AcDbEntity
8
0
100
AcDbLine
10
-91.285300873463825
20
-23.723839383541868
30
0
11
-90.493086418470597
21
-23.835177864309919
31
0
0
LINE
5
528
100
AcDbEntity
8
0
100
AcDbLine
10
-87.848797500229367
20
-5.0200845582200948
30
0
11
-87.361691646869133
21
-1.5541463176245962
31
0
0
LINE
5
529
100
AcDbEntity
8
0
100
AcDbLine
10
-106.63713379563941
20
-26.615417833040745
30
0
11
-107.12423964899963
21
-30.08135607363624
31
0
0
LINE
5
530
100
AcDbEntity
8
0
100
AcDbLine
10
-103.99284487739817
20
-7.8003245269509236
30
0
11
-104.47995073075839
21
-11.266262767546419
31
0
0
LINE
5
531
100
AcDbEntity
8
0
100
AcDbLine
10
-85.204508581988122
20
13.795008747869737
30
0
11
-84.717402728627889
21
17.260946988465228
31
0
0
LINE
5
532
100
AcDbEntity
8
0
100
AcDbLine
10
-91.188951923270935
20
-28.786518208017768
30
0
11
-91.676057776631154
21
-32.252456448613259
31
0
0
LINE
5
533
100
AcDbEntity
8
0
100
AcDbLine
10
-103.29697937259783
20
-2.8489841832430729
30
0
11
-102.80987351923761
21
0.61695405735242126
31
0
0
LINE
5
534
100
AcDbEntity
8
0
100
AcDbLine
10
-88.98894470762275
20
-7.3844162493059695
30
0
11
-88.641011955222595
21
-4.9087460774520419
31
0
0
LINE
5
535
100
AcDbEntity
8
0
100
AcDbLine
10
-99.860475999363345
20
15.854770642078702
30
0
11
-100.65269045435659
21
15.966109122846754
31
0
0
LINE
5
536
100
AcDbEntity
8
0
100
AcDbLine
10
-105.94126829083906
20
-21.6640774893329
30
0
11
-105.45416243747886
21
-18.198139248737405
31
0
0
LINE
5
537
100
AcDbEntity
8
0
100
AcDbLine
10
-102.85269767000474
20
-5.4359928358650489
30
0
11
-102.50476491760459
21
-2.9603226640111258
31
0
0
LINE
5
538
100
AcDbEntity
8
0
100
AcDbLine
10
-89.336877460022919
20
-9.86008642115989
30
0
11
-88.54466300502969
21
-9.9714249019279411
31
0
0
LINE
5
539
100
AcDbEntity
8
0
100
AcDbLine
10
-90.493086418470597
20
-23.835177864309919
30
0
11
-90.005980565110377
21
-20.369239623714424
31
0
0
LINE
5
540
100
AcDbEntity
8
0
100
AcDbLine
10
-106.47119829496644
20
-31.182962623145865
30
0
11
-106.33202519400639
21
-30.192694554404294
31
0
0
LINE
5
541
100
AcDbEntity
8
0
100
AcDbLine
10
-101.34855595915693
20
11.014768779138905
30
0
11
-101.83566181251715
21
7.5488305385434096
31
0
0
LINE
5
542
100
AcDbEntity
8
0
100
AcDbLine
10
-86.344655789381505
20
11.430677056783862
30
0
11
-86.692588541781674
21
8.9550068849299347
31
0
0
LINE
5
543
100
AcDbEntity
8
0
100
AcDbLine
10
-86.344655789381505
20
11.430677056783862
30
0
11
-85.996723036981351
21
13.90634722863779
31
0
0
LINE
5
544
100
AcDbEntity
8
0
100
AcDbLine
10
-103.82690937672521
20
-12.367869317056041
30
0
11
-103.68773627576515
21
-11.37760124831447
31
0
0
LINE
5
545
100
AcDbEntity
8
0
100
AcDbLine
10
-88.153906101862361
20
-1.4428078368565478
30
0
11
-88.014733000902297
21
-0.45253976811497676
31
0
0
LINE
5
546
100
AcDbEntity
8
0
100
AcDbLine
10
-100.55634150416367
20
10.90343029837085
30
0
11
-101.34855595915693
21
11.014768779138905
31
0
0
LINE
5
547
100
AcDbEntity
8
0
100
AcDbLine
10
-103.20063042240491
20
-7.9116630077189765
30
0
11
-103.99284487739817
21
-7.8003245269509236
31
0
0
LINE
5
548
100
AcDbEntity
8
0
100
AcDbLine
10
-101.18262045848397
20
6.4472239890337857
30
0
11
-94.25074397729297
21
5.4730122823133298
31
0
0
LINE
5
549
100
AcDbEntity
8
0
100
AcDbLine
10
-91.633233625863994
20
-26.199509555395796
30
0
11
-91.285300873463825
21
-23.723839383541868
31
0
0
LINE
5
550
100
AcDbEntity
8
0
100
AcDbLine
10
-102.85269767000474
20
-5.4359928358650489
30
0
11
-103.20063042240491
21
-7.9116630077189765
31
0
0
LINE
5
551
100
AcDbEntity
8
0
100
AcDbLine
10
-105.84491934064616
20
-26.726756313808799
30
0
11
-106.63713379563941
21
-26.615417833040745
31
0
0
LINE
5
552
100
AcDbEntity
8
0
100
AcDbLine
10
-88.641011955222595
20
-4.9087460774520419
30
0
11
-87.848797500229367
21
-5.0200845582200948
31
0
0
LINE
5
553
100
AcDbEntity
8
0
100
AcDbLine
10
-87.318867496101973
20
4.4988005755928695
30
0
11
-87.179694395141908
21
5.4890686443344405
31
0
0
LINE
5
554
100
AcDbEntity
8
0
100
AcDbLine
10
-89.03176885838991
20
-13.437363142523434
30
0
11
-89.823983313383152
21
-13.326024661755387
31
0
0
LINE
5
555
100
AcDbEntity
8
0
100
AcDbLine
10
-106.33202519400639
20
-30.192694554404294
30
0
11
-106.47119829496644
21
-31.182962623145865
31
0
0
LINE
5
556
100
AcDbEntity
8
0
100
AcDbLine
10
-104.47995073075839
20
-11.266262767546419
30
0
11
-103.68773627576515
21
-11.37760124831447
31
0
0
LINE
5
557
100
AcDbEntity
8
0
100
AcDbLine
10
-87.361691646869133
20
-1.5541463176245962
30
0
11
-88.153906101862361
21
-1.4428078368565478
31
0
0
LINE
5
558
100
AcDbEntity
8
0
100
AcDbLine
10
-102.01765906424436
20
0.5056155765843684
30
0
11
-101.87848596328429
21
1.4958836453259394
31
0
0
LINE
5
559
100
AcDbEntity
8
0
100
AcDbLine
10
-91.633233625863994
20
-26.199509555395796
30
0
11
-91.981166378264163
21
-28.675179727249716
31
0
0
LINE
5
560
100
AcDbEntity
8
0
100
AcDbLine
10
-91.676057776631154
20
-32.252456448613259
30
0
11
-92.468272231624397
21
-32.141117967845211
31
0
0
LINE
5
561
100
AcDbEntity
8
0
100
AcDbLine
10
-107.12423964899963
20
-30.08135607363624
30
0
11
-106.33202519400639
21
-30.192694554404294
31
0
0
LINE
5
562
100
AcDbEntity
8
0
100
AcDbLine
10
-88.014733000902297
20
-0.45253976811497676
30
0
11
-94.946609482093294
21
0.52167193860548355
31
0
0
LINE
5
563
100
AcDbEntity
8
0
100
AcDbLine
10
-85.996723036981351
20
13.90634722863779
30
0
11
-85.204508581988122
21
13.795008747869737
31
0
0
LINE
5
564
100
AcDbEntity
8
0
100
AcDbLine
10
-100.65269045435659
20
15.966109122846754
30
0
11
-100.16558460099637
21
19.432047363442251
31
0
0
LINE
5
565
100
AcDbEntity
8
0
100
AcDbLine
10
-92.607445332584447
20
-33.131386036586775
30
0
11
-92.468272231624397
21
-32.141117967845211
31
0
0
LINE
5
566
100
AcDbEntity
8
0
100
AcDbLine
10
-101.18262045848397
20
6.4472239890337857
30
0
11
-101.0434473575239
21
7.4374920577753567
31
0
0
LINE
5
567
100
AcDbEntity
8
0
100
AcDbLine
10
-105.49698658824599
20
-24.251086141954875
30
0
11
-105.84491934064616
21
-26.726756313808799
31
0
0
LINE
5
568
100
AcDbEntity
8
0
100
AcDbLine
10
-103.68773627576515
20
-11.37760124831447
30
0
11
-103.82690937672521
21
-12.367869317056041
31
0
0
LINE
5
569
100
AcDbEntity
8
0
100
AcDbLine
10
-100.2084087517635
20
13.379100470224783
30
0
11
-100.55634150416367
21
10.90343029837085
31
0
0
LINE
5
570
100
AcDbEntity
8
0
100
AcDbLine
10
-91.981166378264163
20
-28.675179727249716
30
0
11
-91.188951923270935
21
-28.786518208017768
31
0
0
LINE
5
571
100
AcDbEntity
8
0
100
AcDbLine
10
-88.54466300502969
20
-9.9714249019279411
30
0
11
-89.03176885838991
21
-13.437363142523434
31
0
0
LINE
5
572
100
AcDbEntity
8
0
100
AcDbLine
10
-92.468272231624397
20
-32.141117967845211
30
0
11
-92.607445332584447
21
-33.131386036586775
31
0
0
LINE
5
573
100
AcDbEntity
8
0
100
AcDbLine
10
-101.87848596328429
20
1.4958836453259394
30
0
11
-94.946609482093294
21
0.52167193860548355
31
0
0
LINE
5
574
100
AcDbEntity
8
0
100
AcDbLine
10
-89.823983313383152
20
-13.326024661755387
30
0
11
-89.963156414343217
21
-14.316292730496958
31
0
0
LINE
5
575
100
AcDbEntity
8
0
100
AcDbLine
10
-106.47119829496644
20
-31.182962623145865
30
0
11
-99.539321813775445
21
-32.157174329866315
31
0
0
LINE
5
576
100
AcDbEntity
8
0
100
AcDbLine
10
-89.963156414343217
20
-14.316292730496958
30
0
11
-89.823983313383152
21
-13.326024661755387
31
0
0
LINE
5
577
100
AcDbEntity
8
0
100
AcDbLine
10
-90.005980565110377
20
-20.369239623714424
30
0
11
-90.798195020103606
21
-20.257901142946373
31
0
0
LINE
5
578
100
AcDbEntity
8
0
100
AcDbLine
10
-101.83566181251715
20
7.5488305385434096
30
0
11
-101.0434473575239
21
7.4374920577753567
31
0
0
LINE
5
579
100
AcDbEntity
8
0
100
AcDbLine
10
-103.82690937672521
20
-12.367869317056041
30
0
11
-96.895032895534214
21
-13.342081023776498
31
0
0
LINE
5
580
100
AcDbEntity
8
0
100
AcDbLine
10
-105.45416243747886
20
-18.198139248737405
30
0
11
-104.6619479824856
21
-18.309477729505456
31
0
0
LINE
5
581
100
AcDbEntity
8
0
100
AcDbLine
10
-88.014733000902297
20
-0.45253976811497676
30
0
11
-88.153906101862361
21
-1.4428078368565478
31
0
0
LINE
5
582
100
AcDbEntity
8
0
100
AcDbLine
10
-99.234197045043047
20
20.310976951415761
30
0
11
-92.302320563852049
21
19.336765244695311
31
0
0
LINE
5
583
100
AcDbEntity
8
0
100
AcDbLine
10
-85.370444082661052
20
18.362553537974851
30
0
11
-85.509617183621117
21
17.37228546923328
31
0
0
LINE
5
584
100
AcDbEntity
8
0
100
AcDbLine
10
-85.509617183621117
20
17.37228546923328
30
0
11
-85.370444082661052
21
18.362553537974851
31
0
0
LINE
5
585
100
AcDbEntity
8
0
100
AcDbLine
10
-101.0434473575239
20
7.4374920577753567
30
0
11
-101.18262045848397
21
6.4472239890337857
31
0
0
LINE
5
586
100
AcDbEntity
8
0
100
AcDbLine
10
-86.387479940148665
20
5.3777301635663921
30
0
11
-87.179694395141908
21
5.4890686443344405
31
0
0
LINE
5
587
100
AcDbEntity
8
0
100
AcDbLine
10
-101.87848596328429
20
1.4958836453259394
30
0
11
-102.01765906424436
21
0.5056155765843684
31
0
0
LINE
5
588
100
AcDbEntity
8
0
100
AcDbLine
10
-99.373370146003111
20
19.32070888267419
30
0
11
-99.234197045043047
21
20.310976951415761
31
0
0
LINE
5
589
100
AcDbEntity
8
0
100
AcDbLine
10
-89.963156414343217
20
-14.316292730496958
30
0
11
-96.895032895534214
21
-13.342081023776498
31
0
0
LINE
5
590
100
AcDbEntity
8
0
100
AcDbLine
10
-90.798195020103606
20
-20.257901142946373
30
0
11
-90.659021919143541
21
-19.267633074204802
31
0
0
LINE
5
591
100
AcDbEntity
8
0
100
AcDbLine
10
-85.900374086788446
20
8.8436684041618818
30
0
11
-86.387479940148665
21
5.3777301635663921
31
0
0
LINE
5
592
100
AcDbEntity
8
0
100
AcDbLine
10
-99.234197045043047
20
20.310976951415761
30
0
11
-99.373370146003111
21
19.32070888267419
31
0
0
LINE
5
593
100
AcDbEntity
8
0
100
AcDbLine
10
-90.659021919143541
20
-19.267633074204802
30
0
11
-97.590898400334538
21
-18.293421367484342
31
0
0
LINE
5
594
100
AcDbEntity
8
0
100
AcDbLine
10
-104.52277488152554
20
-17.319209660763885
30
0
11
-104.6619479824856
21
-18.309477729505456
31
0
0
LINE
5
595
100
AcDbEntity
8
0
100
AcDbLine
10
-92.607445332584447
20
-33.131386036586775
30
0
11
-99.539321813775445
21
-32.157174329866315
31
0
0
LINE
5
596
100
AcDbEntity
8
0
100
AcDbLine
10
-100.16558460099637
20
19.432047363442251
30
0
11
-99.373370146003111
21
19.32070888267419
31
0
0
LINE
5
597
100
AcDbEntity
8
0
100
AcDbLine
10
-84.717402728627889
20
17.260946988465228
30
0
11
-85.509617183621117
21
17.37228546923328
31
0
0
LINE
5
598
100
AcDbEntity
8
0
100
AcDbLine
10
-104.6619479824856
20
-18.309477729505456
30
0
11
-104.52277488152554
21
-17.319209660763885
31
0
0
LINE
5
599
100
AcDbEntity
8
0
100
AcDbLine
10
-90.659021919143541
20
-19.267633074204802
30
0
11
-90.798195020103606
21
-20.257901142946373
31
0
0
LINE
5
600
100
AcDbEntity
8
0
100
AcDbLine
10
-85.370444082661052
20
18.362553537974851
30
0
11
-92.302320563852049
21
19.336765244695311
31
0
0
LINE
5
601
100
AcDbEntity
8
0
100
AcDbLine
10
-104.52277488152554
20
-17.319209660763885
30
0
11
-97.590898400334538
21
-18.293421367484342
31
0
0
LINE
5
602
100
AcDbEntity
8
0
100
AcDbLine
10
-86.692588541781674
20
8.9550068849299347
30
0
11
-85.900374086788446
21
8.8436684041618818
31
0
0
LINE
5
603
100
AcDbEntity
8
0
100
AcDbLine
10
-102.80987351923761
20
0.61695405735242126
30
0
11
-102.01765906424436
21
0.5056155765843684
31
0
0
LINE
5
604
100
AcDbEntity
8
0
100
AcDbLine
10
-106.96435084682896
20
7.4147538372247634
30
0
11
-113.8357411309626
21
8.7504168048605813
31
0
0
LINE
5
605
100
AcDbEntity
8
0
100
AcDbLine
10
-122.51981687117343
20
0.76062152974359698
30
0
11
-123.30511861793156
21
0.91326872604483356
31
0
0
LINE
5
606
100
AcDbEntity
8
0
100
AcDbLine
10
-119.37146844746046
20
16.957470056630044
30
0
11
-118.89444595901908
21
19.411538015249199
31
0
0
LINE
5
607
100
AcDbEntity
8
0
100
AcDbLine
10
-106.77354185145241
20
8.3963810206724343
30
0
11
-106.96435084682896
21
7.4147538372247634
31
0
0
LINE
5
608
100
AcDbEntity
8
0
100
AcDbLine
10
-109.2540587913475
20
-4.3647723641471892
30
0
11
-109.73108127978887
21
-6.8188403227663441
31
0
0
LINE
5
609
100
AcDbEntity
8
0
100
AcDbLine
10
-126.62221027176913
20
-20.344362914381158
30
0
11
-126.14518778332778
21
-17.890294955762002
31
0
0
LINE
5
610
100
AcDbEntity
8
0
100
AcDbLine
10
-126.14518778332778
20
-17.890294955762002
30
0
11
-126.93048953008591
21
-17.737647759460771
31
0
0
LINE
5
611
100
AcDbEntity
8
0
100
AcDbLine
10
-112.40240721506048
20
-20.56162089103363
30
0
11
-111.61710546830236
21
-20.714268087334865
31
0
0
LINE
5
612
100
AcDbEntity
8
0
100
AcDbLine
10
-107.991734556148
20
-2.0633516018292664
30
0
11
-107.32390307233011
21
1.372343540237555
31
0
0
LINE
5
613
100
AcDbEntity
8
0
100
AcDbLine
10
-127.88453450696863
20
-22.645783676699086
30
0
11
-128.55236599078654
21
-26.081478818765905
31
0
0
LINE
5
614
100
AcDbEntity
8
0
100
AcDbLine
10
-124.25916359481428
20
-3.9948671911934852
30
0
11
-124.92699507863219
21
-7.4305623332603066
31
0
0
LINE
5
615
100
AcDbEntity
8
0
100
AcDbLine
10
-104.36636364399365
20
16.587564883676336
30
0
11
-103.69853216017576
21
20.023260025743159
31
0
0
LINE
5
616
100
AcDbEntity
8
0
100
AcDbLine
10
-112.57115044518508
20
-25.62240400457318
30
0
11
-113.23898192900299
21
-29.058099146640004
31
0
0
LINE
5
617
100
AcDbEntity
8
0
100
AcDbLine
10
-123.30511861793156
20
0.91326872604483356
30
0
11
-122.63728713411366
21
4.3489638681116505
31
0
0
LINE
5
618
100
AcDbEntity
8
0
100
AcDbLine
10
-109.2540587913475
20
-4.3647723641471892
30
0
11
-108.77703630290613
21
-1.9107044055280298
31
0
0
LINE
5
619
100
AcDbEntity
8
0
100
AcDbLine
10
-118.89444595901908
20
19.411538015249199
30
0
11
-119.6797477057772
21
19.564185211550431
31
0
0
LINE
5
620
100
AcDbEntity
8
0
100
AcDbLine
10
-126.93048953008591
20
-17.737647759460771
30
0
11
-126.262658046268
21
-14.301952617393949
31
0
0
LINE
5
621
100
AcDbEntity
8
0
100
AcDbLine
10
-122.99683935961481
20
-1.6934464288755624
30
0
11
-122.51981687117343
21
0.76062152974359698
31
0
0
LINE
5
622
100
AcDbEntity
8
0
100
AcDbLine
10
-109.73108127978887
20
-6.8188403227663441
30
0
11
-108.94577953303073
21
-6.9714875190675807
31
0
0
LINE
5
623
100
AcDbEntity
8
0
100
AcDbLine
10
-111.61710546830236
20
-20.714268087334865
30
0
11
-110.94927398448446
21
-17.278572945268046
31
0
0
LINE
5
624
100
AcDbEntity
8
0
100
AcDbLine
10
-127.95787323940496
20
-27.2157531985148
30
0
11
-127.7670642440284
21
-26.23412601506714
31
0
0
LINE
5
625
100
AcDbEntity
8
0
100
AcDbLine
10
-120.63379268265993
20
14.656049294312119
30
0
11
-121.30162416647784
21
11.220354152245298
31
0
0
LINE
5
626
100
AcDbEntity
8
0
100
AcDbLine
10
-105.62868787919314
20
14.286144121358415
30
0
11
-106.10571036763452
21
11.832076162739265
31
0
0
LINE
5
627
100
AcDbEntity
8
0
100
AcDbLine
10
-105.62868787919314
20
14.286144121358415
30
0
11
-105.15166539075179
21
16.740212079977567
31
0
0
LINE
5
628
100
AcDbEntity
8
0
100
AcDbLine
10
-124.33250232725061
20
-8.5648367130092051
30
0
11
-124.14169333187405
21
-7.5832095295615387
31
0
0
LINE
5
629
100
AcDbEntity
8
0
100
AcDbLine
10
-108.10920481908823
20
1.5249907365387916
30
0
11
-107.91839582371168
21
2.506617919986458
31
0
0
LINE
5
630
100
AcDbEntity
8
0
100
AcDbLine
10
-119.84849093590182
20
14.503402098010882
30
0
11
-120.63379268265993
21
14.656049294312119
31
0
0
LINE
5
631
100
AcDbEntity
8
0
100
AcDbLine
10
-123.47386184805616
20
-4.1475143874947173
30
0
11
-124.25916359481428
21
-3.9948671911934852
31
0
0
LINE
5
632
100
AcDbEntity
8
0
100
AcDbLine
10
-120.70713141509627
20
10.086079772496399
30
0
11
-113.8357411309626
21
8.7504168048605813
31
0
0
LINE
5
633
100
AcDbEntity
8
0
100
AcDbLine
10
-112.87942970350184
20
-23.015688849652783
30
0
11
-112.40240721506048
21
-20.56162089103363
31
0
0
LINE
5
634
100
AcDbEntity
8
0
100
AcDbLine
10
-122.99683935961481
20
-1.6934464288755624
30
0
11
-123.47386184805616
21
-4.1475143874947173
31
0
0
LINE
5
635
100
AcDbEntity
8
0
100
AcDbLine
10
-127.09923276021051
20
-22.798430873000317
30
0
11
-127.88453450696863
21
-22.645783676699086
31
0
0
LINE
5
636
100
AcDbEntity
8
0
100
AcDbLine
10
-108.77703630290613
20
-1.9107044055280298
30
0
11
-107.991734556148
21
-2.0633516018292664
31
0
0
LINE
5
637
100
AcDbEntity
8
0
100
AcDbLine
10
-106.96435084682896
20
7.4147538372247634
30
0
11
-106.77354185145241
21
8.3963810206724343
31
0
0
LINE
5
638
100
AcDbEntity
8
0
100
AcDbLine
10
-109.61361101684864
20
-10.407182661134403
30
0
11
-110.39891276360676
21
-10.254535464833165
31
0
0
LINE
5
639
100
AcDbEntity
8
0
100
AcDbLine
10
-127.7670642440284
20
-26.23412601506714
30
0
11
-127.95787323940496
21
-27.2157531985148
31
0
0
LINE
5
640
100
AcDbEntity
8
0
100
AcDbLine
10
-124.92699507863219
20
-7.4305623332603066
30
0
11
-124.14169333187405
21
-7.5832095295615387
31
0
0
LINE
5
641
100
AcDbEntity
8
0
100
AcDbLine
10
-107.32390307233011
20
1.372343540237555
30
0
11
-108.10920481908823
21
1.5249907365387916
31
0
0
LINE
5
642
100
AcDbEntity
8
0
100
AcDbLine
10
-121.85198538735554
20
4.1963166718104183
30
0
11
-121.66117639197898
21
5.1779438552580848
31
0
0
LINE
5
643
100
AcDbEntity
8
0
100
AcDbLine
10
-112.87942970350184
20
-23.015688849652783
30
0
11
-113.35645219194321
21
-25.469756808271946
31
0
0
LINE
5
644
100
AcDbEntity
8
0
100
AcDbLine
10
-113.23898192900299
20
-29.058099146640004
30
0
11
-114.0242836757611
21
-28.905451950338765
31
0
0
LINE
5
645
100
AcDbEntity
8
0
100
AcDbLine
10
-128.55236599078654
20
-26.081478818765905
30
0
11
-127.7670642440284
21
-26.23412601506714
31
0
0
LINE
5
646
100
AcDbEntity
8
0
100
AcDbLine
10
-107.91839582371168
20
2.506617919986458
30
0
11
-114.78978610784532
21
3.8422808876222714
31
0
0
LINE
5
647
100
AcDbEntity
8
0
100
AcDbLine
10
-105.15166539075179
20
16.740212079977567
30
0
11
-104.36636364399365
21
16.587564883676336
31
0
0
LINE
5
648
100
AcDbEntity
8
0
100
AcDbLine
10
-119.6797477057772
20
19.564185211550431
30
0
11
-119.01191622195931
21
22.999880353617257
31
0
0
LINE
5
649
100
AcDbEntity
8
0
100
AcDbLine
10
-114.21509267113765
20
-29.887079133786429
30
0
11
-114.0242836757611
21
-28.905451950338765
31
0
0
LINE
5
650
100
AcDbEntity
8
0
100
AcDbLine
10
-120.70713141509627
20
10.086079772496399
30
0
11
-120.51632241971971
21
11.067706955944061
31
0
0
LINE
5
651
100
AcDbEntity
8
0
100
AcDbLine
10
-126.62221027176913
20
-20.344362914381158
30
0
11
-127.09923276021051
21
-22.798430873000317
31
0
0
LINE
5
652
100
AcDbEntity
8
0
100
AcDbLine
10
-124.14169333187405
20
-7.5832095295615387
30
0
11
-124.33250232725061
21
-8.5648367130092051
31
0
0
LINE
5
653
100
AcDbEntity
8
0
100
AcDbLine
10
-119.37146844746046
20
16.957470056630044
30
0
11
-119.84849093590182
21
14.503402098010882
31
0
0
LINE
5
654
100
AcDbEntity
8
0
100
AcDbLine
10
-113.35645219194321
20
-25.469756808271946
30
0
11
-112.57115044518508
21
-25.62240400457318
31
0
0
LINE
5
655
100
AcDbEntity
8
0
100
AcDbLine
10
-108.94577953303073
20
-6.9714875190675807
30
0
11
-109.61361101684864
21
-10.407182661134403
31
0
0
LINE
5
656
100
AcDbEntity
8
0
100
AcDbLine
10
-114.0242836757611
20
-28.905451950338765
30
0
11
-114.21509267113765
21
-29.887079133786429
31
0
0
LINE
5
657
100
AcDbEntity
8
0
100
AcDbLine
10
-121.66117639197898
20
5.1779438552580848
30
0
11
-114.78978610784532
21
3.8422808876222714
31
0
0
LINE
5
658
100
AcDbEntity
8
0
100
AcDbLine
10
-110.39891276360676
20
-10.254535464833165
30
0
11
-110.58972175898332
21
-11.236162648280832
31
0
0
LINE
5
659
100
AcDbEntity
8
0
100
AcDbLine
10
-127.95787323940496
20
-27.2157531985148
30
0
11
-121.08648295527131
21
-28.551416166150617
31
0
0
LINE
5
660
100
AcDbEntity
8
0
100
AcDbLine
10
-110.58972175898332
20
-11.236162648280832
30
0
11
-110.39891276360676
21
-10.254535464833165
31
0
0
LINE
5
661
100
AcDbEntity
8
0
100
AcDbLine
10
-110.94927398448446
20
-17.278572945268046
30
0
11
-111.73457573124259
21
-17.125925748966807
31
0
0
LINE
5
662
100
AcDbEntity
8
0
100
AcDbLine
10
-121.30162416647784
20
11.220354152245298
30
0
11
-120.51632241971971
21
11.067706955944061
31
0
0
LINE
5
663
100
AcDbEntity
8
0
100
AcDbLine
10
-124.33250232725061
20
-8.5648367130092051
30
0
11
-117.46111204311696
21
-9.9004996806450194
31
0
0
LINE
5
664
100
AcDbEntity
8
0
100
AcDbLine
10
-126.262658046268
20
-14.301952617393949
30
0
11
-125.47735629950989
21
-14.454599813695182
31
0
0
LINE
5
665
100
AcDbEntity
8
0
100
AcDbLine
10
-107.91839582371168
20
2.506617919986458
30
0
11
-108.10920481908823
21
1.5249907365387916
31
0
0
LINE
5
666
100
AcDbEntity
8
0
100
AcDbLine
10
-118.03580547982463
20
23.828860340763683
30
0
11
-111.16441519569096
21
22.493197373127877
31
0
0
LINE
5
667
100
AcDbEntity
8
0
100
AcDbLine
10
-104.29302491155732
20
21.157534405492058
30
0
11
-104.48383390693388
21
20.175907222044394
31
0
0
LINE
5
668
100
AcDbEntity
8
0
100
AcDbLine
10
-104.48383390693388
20
20.175907222044394
30
0
11
-104.29302491155732
21
21.157534405492058
31
0
0
LINE
5
669
100
AcDbEntity
8
0
100
AcDbLine
10
-120.51632241971971
20
11.067706955944061
30
0
11
-120.70713141509627
21
10.086079772496399
31
0
0
LINE
5
670
100
AcDbEntity
8
0
100
AcDbLine
10
-105.98824010469428
20
8.2437338243711977
30
0
11
-106.77354185145241
21
8.3963810206724343
31
0
0
LINE
5
671
100
AcDbEntity
8
0
100
AcDbLine
10
-121.66117639197898
20
5.1779438552580848
30
0
11
-121.85198538735554
21
4.1963166718104183
31
0
0
LINE
5
672
100
AcDbEntity
8
0
100
AcDbLine
10
-118.22661447520119
20
22.847233157316023
30
0
11
-118.03580547982463
21
23.828860340763683
31
0
0
LINE
5
673
100
AcDbEntity
8
0
100
AcDbLine
10
-110.58972175898332
20
-11.236162648280832
30
0
11
-117.46111204311696
21
-9.9004996806450194
31
0
0
LINE
5
674
100
AcDbEntity
8
0
100
AcDbLine
10
-111.73457573124259
20
-17.125925748966807
30
0
11
-111.54376673586603
21
-16.144298565519144
31
0
0
LINE
5
675
100
AcDbEntity
8
0
100
AcDbLine
10
-105.32040862087639
20
11.679428966438019
30
0
11
-105.98824010469428
21
8.2437338243711977
31
0
0
LINE
5
676
100
AcDbEntity
8
0
100
AcDbLine
10
-118.03580547982463
20
23.828860340763683
30
0
11
-118.22661447520119
21
22.847233157316023
31
0
0
LINE
5
677
100
AcDbEntity
8
0
100
AcDbLine
10
-111.54376673586603
20
-16.144298565519144
30
0
11
-118.41515701999967
21
-14.808635597883331
31
0
0
LINE
5
678
100
AcDbEntity
8
0
100
AcDbLine
10
-125.28654730413334
20
-13.472972630247515
30
0
11
-125.47735629950989
21
-14.454599813695182
31
0
0
LINE
5
679
100
AcDbEntity
8
0
100
AcDbLine
10
-114.21509267113765
20
-29.887079133786429
30
0
11
-121.08648295527131
21
-28.551416166150617
31
0
0
LINE
5
680
100
AcDbEntity
8
0
100
AcDbLine
10
-119.01191622195931
20
22.999880353617257
30
0
11
-118.22661447520119
21
22.847233157316023
31
0
0
LINE
5
681
100
AcDbEntity
8
0
100
AcDbLine
10
-103.69853216017576
20
20.023260025743159
30
0
11
-104.48383390693388
21
20.175907222044394
31
0
0
LINE
5
682
100
AcDbEntity
8
0
100
AcDbLine
10
-125.47735629950989
20
-14.454599813695182
30
0
11
-125.28654730413334
21
-13.472972630247515
31
0
0
LINE
5
683
100
AcDbEntity
8
0
100
AcDbLine
10
-111.54376673586603
20
-16.144298565519144
30
0
11
-111.73457573124259
21
-17.125925748966807
31
0
0
LINE
5
684
100
AcDbEntity
8
0
100
AcDbLine
10
-104.29302491155732
20
21.157534405492058
30
0
11
-111.16441519569096
21
22.493197373127877
31
0
0
LINE
5
685
100
AcDbEntity
8
0
100
AcDbLine
10
-125.28654730413334
20
-13.472972630247515
30
0
11
-118.41515701999967
21
-14.808635597883331
31
0
0
LINE
5
686
100
AcDbEntity
8
0
100
AcDbLine
10
-106.10571036763452
20
11.832076162739265
30
0
11
-105.32040862087639
21
11.679428966438019
31
0
0
LINE
5
687
100
AcDbEntity
8
0
100
AcDbLine
10
-122.63728713411366
20
4.3489638681116505
30
0
11
-121.85198538735554
21
4.1963166718104183
31
0
0
LINE
5
688
100
AcDbEntity
8
0
100
AcDbLine
10
-125.04284034620495
20
13.985006299722116
30
0
11
-131.91423063033858
21
15.320669267357934
31
0
0
LINE
5
689
100
AcDbEntity
8
0
100
AcDbLine
10
-140.59830637054941
20
7.3308739922409494
30
0
11
-141.38360811730757
21
7.483521188542186
31
0
0
LINE
5
690
100
AcDbEntity
8
0
100
AcDbLine
10
-137.44995794683643
20
23.527722519127376
30
0
11
-136.97293545839506
21
25.981790477746536
31
0
0
LINE
5
691
100
AcDbEntity
8
0
100
AcDbLine
10
-124.85203135082841
20
14.966633483169778
30
0
11
-125.04284034620495
21
13.985006299722116
31
0
0
LINE
5
692
100
AcDbEntity
8
0
100
AcDbLine
10
-127.33254829072349
20
2.2054800983501677
30
0
11
-127.80957077916484
21
-0.24858786026898727
31
0
0
LINE
5
693
100
AcDbEntity
8
0
100
AcDbLine
10
-144.70069977114514
20
-13.7741104518838
30
0
11
-144.22367728270376
21
-11.320042493264646
31
0
0
LINE
5
694
100
AcDbEntity
8
0
100
AcDbLine
10
-144.22367728270376
20
-11.320042493264646
30
0
11
-145.0089790294619
21
-11.167395296963406
31
0
0
LINE
5
695
100
AcDbEntity
8
0
100
AcDbLine
10
-130.48089671443645
20
-13.991368428536269
30
0
11
-129.69559496767835
21
-14.1440156248375
31
0
0
LINE
5
696
100
AcDbEntity
8
0
100
AcDbLine
10
-126.07022405552401
20
4.5069008606680949
30
0
11
-125.40239257170612
21
7.9425960027349163
31
0
0
LINE
5
697
100
AcDbEntity
8
0
100
AcDbLine
10
-145.96302400634465
20
-16.075531214201717
30
0
11
-146.63085549016253
21
-19.511226356268541
31
0
0
LINE
5
698
100
AcDbEntity
8
0
100
AcDbLine
10
-142.3376530941903
20
2.5753852713038761
30
0
11
-143.00548457800821
21
-0.86030987076294529
31
0
0
LINE
5
699
100
AcDbEntity
8
0
100
AcDbLine
10
-122.44485314336968
20
23.15781734617368
30
0
11
-121.77702165955176
21
26.593512488240503
31
0
0
LINE
5
700
100
AcDbEntity
8
0
100
AcDbLine
10
-130.6496399445611
20
-19.052151542075816
30
0
11
-131.31747142837898
21
-22.487846684142632
31
0
0
LINE
5
701
100
AcDbEntity
8
0
100
AcDbLine
10
-141.38360811730757
20
7.483521188542186
30
0
11
-140.71577663348967
21
10.919216330609007
31
0
0
LINE
5
702
100
AcDbEntity
8
0
100
AcDbLine
10
-127.33254829072349
20
2.2054800983501677
30
0
11
-126.85552580228212
21
4.6595480569693226
31
0
0
LINE
5
703
100
AcDbEntity
8
0
100
AcDbLine
10
-136.97293545839506
20
25.981790477746536
30
0
11
-137.75823720515322
21
26.134437674047781
31
0
0
LINE
5
704
100
AcDbEntity
8
0
100
AcDbLine
10
-145.0089790294619
20
-11.167395296963406
30
0
11
-144.34114754564399
21
-7.7317001548965836
31
0
0
LINE
5
705
100
AcDbEntity
8
0
100
AcDbLine
10
-141.07532885899079
20
4.87680603362179
30
0
11
-140.59830637054941
21
7.3308739922409494
31
0
0
LINE
5
706
100
AcDbEntity
8
0
100
AcDbLine
10
-127.80957077916484
20
-0.24858786026898727
30
0
11
-127.02426903240675
21
-0.40123505657021941
31
0
0
LINE
5
707
100
AcDbEntity
8
0
100
AcDbLine
10
-129.69559496767835
20
-14.1440156248375
30
0
11
-129.02776348386047
21
-10.708320482770679
31
0
0
LINE
5
708
100
AcDbEntity
8
0
100
AcDbLine
10
-146.03636273878092
20
-20.645500736017443
30
0
11
-145.84555374340437
21
-19.663873552569775
31
0
0
LINE
5
709
100
AcDbEntity
8
0
100
AcDbLine
10
-138.71228218203595
20
21.226301756809463
30
0
11
-139.38011366585386
21
17.79060661474265
31
0
0
LINE
5
710
100
AcDbEntity
8
0
100
AcDbLine
10
-123.70717737856914
20
20.856396583855759
30
0
11
-124.18419986701051
21
18.402328625236599
31
0
0
LINE
5
711
100
AcDbEntity
8
0
100
AcDbLine
10
-123.70717737856914
20
20.856396583855759
30
0
11
-123.23015489012776
21
23.310464542474918
31
0
0
LINE
5
712
100
AcDbEntity
8
0
100
AcDbLine
10
-142.41099182662657
20
-1.9945842505118483
30
0
11
-142.22018283125004
21
-1.0129570670641863
31
0
0
LINE
5
713
100
AcDbEntity
8
0
100
AcDbLine
10
-126.18769431846422
20
8.095243199036144
30
0
11
-125.99688532308767
21
9.076870382483806
31
0
0
LINE
5
714
100
AcDbEntity
8
0
100
AcDbLine
10
-137.92698043527778
20
21.073654560508217
30
0
11
-138.71228218203595
21
21.226301756809463
31
0
0
LINE
5
715
100
AcDbEntity
8
0
100
AcDbLine
10
-141.55235134743214
20
2.422738075002635
30
0
11
-142.3376530941903
21
2.5753852713038761
31
0
0
LINE
5
716
100
AcDbEntity
8
0
100
AcDbLine
10
-138.78562091447225
20
16.656332234993741
30
0
11
-131.91423063033858
21
15.320669267357934
31
0
0
LINE
5
717
100
AcDbEntity
8
0
100
AcDbLine
10
-130.95791920287783
20
-16.445436387155425
30
0
11
-130.48089671443645
21
-13.991368428536269
31
0
0
LINE
5
718
100
AcDbEntity
8
0
100
AcDbLine
10
-141.07532885899079
20
4.87680603362179
30
0
11
-141.55235134743214
21
2.422738075002635
31
0
0
LINE
5
719
100
AcDbEntity
8
0
100
AcDbLine
10
-145.17772225958646
20
-16.228178410502959
30
0
11
-145.96302400634465
21
-16.075531214201717
31
0
0
LINE
5
720
100
AcDbEntity
8
0
100
AcDbLine
10
-126.85552580228212
20
4.6595480569693226
30
0
11
-126.07022405552401
21
4.5069008606680949
31
0
0
LINE
5
721
100
AcDbEntity
8
0
100
AcDbLine
10
-125.04284034620495
20
13.985006299722116
30
0
11
-124.85203135082841
21
14.966633483169778
31
0
0
LINE
5
722
100
AcDbEntity
8
0
100
AcDbLine
10
-127.69210051622466
20
-3.8369301986370408
30
0
11
-128.47740226298276
21
-3.6842830023358086
31
0
0
LINE
5
723
100
AcDbEntity
8
0
100
AcDbLine
10
-145.84555374340437
20
-19.663873552569775
30
0
11
-146.03636273878092
21
-20.645500736017443
31
0
0
LINE
5
724
100
AcDbEntity
8
0
100
AcDbLine
10
-143.00548457800821
20
-0.86030987076294529
30
0
11
-142.22018283125004
21
-1.0129570670641863
31
0
0
LINE
5
725
100
AcDbEntity
8
0
100
AcDbLine
10
-125.40239257170612
20
7.9425960027349163
30
0
11
-126.18769431846422
21
8.095243199036144
31
0
0
LINE
5
726
100
AcDbEntity
8
0
100
AcDbLine
10
-139.9304748867315
20
10.766569134307771
30
0
11
-139.73966589135495
21
11.748196317755433
31
0
0
LINE
5
727
100
AcDbEntity
8
0
100
AcDbLine
10
-130.95791920287783
20
-16.445436387155425
30
0
11
-131.43494169131918
21
-18.899504345774581
31
0
0
LINE
5
728
100
AcDbEntity
8
0
100
AcDbLine
10
-131.31747142837898
20
-22.487846684142632
30
0
11
-132.10277317513709
21
-22.335199487841404
31
0
0
LINE
5
729
100
AcDbEntity
8
0
100
AcDbLine
10
-146.63085549016253
20
-19.511226356268541
30
0
11
-145.84555374340437
21
-19.663873552569775
31
0
0
LINE
5
730
100
AcDbEntity
8
0
100
AcDbLine
10
-125.99688532308767
20
9.076870382483806
30
0
11
-132.86827560722134
21
10.412533350119624
31
0
0
LINE
5
731
100
AcDbEntity
8
0
100
AcDbLine
10
-123.23015489012776
20
23.310464542474918
30
0
11
-122.44485314336968
21
23.15781734617368
31
0
0
LINE
5
732
100
AcDbEntity
8
0
100
AcDbLine
10
-137.75823720515322
20
26.134437674047781
30
0
11
-137.09040572133532
21
29.570132816114594
31
0
0
LINE
5
733
100
AcDbEntity
8
0
100
AcDbLine
10
-132.29358217051364
20
-23.316826671289064
30
0
11
-132.10277317513709
21
-22.335199487841404
31
0
0
LINE
5
734
100
AcDbEntity
8
0
100
AcDbLine
10
-138.78562091447225
20
16.656332234993741
30
0
11
-138.59481191909569
21
17.637959418441405
31
0
0
LINE
5
735
100
AcDbEntity
8
0
100
AcDbLine
10
-144.70069977114514
20
-13.7741104518838
30
0
11
-145.17772225958646
21
-16.228178410502959
31
0
0
LINE
5
736
100
AcDbEntity
8
0
100
AcDbLine
10
-142.22018283125004
20
-1.0129570670641863
30
0
11
-142.41099182662657
21
-1.9945842505118483
31
0
0
LINE
5
737
100
AcDbEntity
8
0
100
AcDbLine
10
-137.44995794683643
20
23.527722519127376
30
0
11
-137.92698043527778
21
21.073654560508217
31
0
0
LINE
5
738
100
AcDbEntity
8
0
100
AcDbLine
10
-131.43494169131918
20
-18.899504345774581
30
0
11
-130.6496399445611
21
-19.052151542075816
31
0
0
LINE
5
739
100
AcDbEntity
8
0
100
AcDbLine
10
-127.02426903240675
20
-0.40123505657021941
30
0
11
-127.69210051622466
21
-3.8369301986370408
31
0
0
LINE
5
740
100
AcDbEntity
8
0
100
AcDbLine
10
-132.10277317513709
20
-22.335199487841404
30
0
11
-132.29358217051364
21
-23.316826671289064
31
0
0
LINE
5
741
100
AcDbEntity
8
0
100
AcDbLine
10
-139.73966589135495
20
11.748196317755433
30
0
11
-132.86827560722134
21
10.412533350119624
31
0
0
LINE
5
742
100
AcDbEntity
8
0
100
AcDbLine
10
-128.47740226298276
20
-3.6842830023358086
30
0
11
-128.66821125835929
21
-4.6659101857834706
31
0
0
LINE
5
743
100
AcDbEntity
8
0
100
AcDbLine
10
-146.03636273878092
20
-20.645500736017443
30
0
11
-139.16497245464728
21
-21.981163703653252
31
0
0
LINE
5
744
100
AcDbEntity
8
0
100
AcDbLine
10
-128.66821125835929
20
-4.6659101857834706
30
0
11
-128.47740226298276
21
-3.6842830023358086
31
0
0
LINE
5
745
100
AcDbEntity
8
0
100
AcDbLine
10
-129.02776348386047
20
-10.708320482770679
30
0
11
-129.81306523061858
21
-10.555673286469446
31
0
0
LINE
5
746
100
AcDbEntity
8
0
100
AcDbLine
10
-139.38011366585386
20
17.79060661474265
30
0
11
-138.59481191909569
21
17.637959418441405
31
0
0
LINE
5
747
100
AcDbEntity
8
0
100
AcDbLine
10
-142.41099182662657
20
-1.9945842505118483
30
0
11
-135.53960154249293
21
-3.3302472181476572
31
0
0
LINE
5
748
100
AcDbEntity
8
0
100
AcDbLine
10
-144.34114754564399
20
-7.7317001548965836
30
0
11
-143.55584579888588
21
-7.8843473511978246
31
0
0
LINE
5
749
100
AcDbEntity
8
0
100
AcDbLine
10
-125.99688532308767
20
9.076870382483806
30
0
11
-126.18769431846422
21
8.095243199036144
31
0
0
LINE
5
750
100
AcDbEntity
8
0
100
AcDbLine
10
-136.11429497920062
20
30.399112803261012
30
0
11
-129.24290469506698
21
29.0634498356252
31
0
0
LINE
5
751
100
AcDbEntity
8
0
100
AcDbLine
10
-122.37151441093333
20
27.727786867989384
30
0
11
-122.56232340630987
21
26.74615968454173
31
0
0
LINE
5
752
100
AcDbEntity
8
0
100
AcDbLine
10
-122.56232340630987
20
26.74615968454173
30
0
11
-122.37151441093333
21
27.727786867989384
31
0
0
LINE
5
753
100
AcDbEntity
8
0
100
AcDbLine
10
-138.59481191909569
20
17.637959418441405
30
0
11
-138.78562091447225
21
16.656332234993741
31
0
0
LINE
5
754
100
AcDbEntity
8
0
100
AcDbLine
10
-124.0667296040703
20
14.813986286868541
30
0
11
-124.85203135082841
21
14.966633483169778
31
0
0
LINE
5
755
100
AcDbEntity
8
0
100
AcDbLine
10
-139.73966589135495
20
11.748196317755433
30
0
11
-139.9304748867315
21
10.766569134307771
31
0
0
LINE
5
756
100
AcDbEntity
8
0
100
AcDbLine
10
-136.30510397457715
20
29.417485619813355
30
0
11
-136.11429497920062
21
30.399112803261012
31
0
0
LINE
5
757
100
AcDbEntity
8
0
100
AcDbLine
10
-128.66821125835929
20
-4.6659101857834706
30
0
11
-135.53960154249293
21
-3.3302472181476572
31
0
0
LINE
5
758
100
AcDbEntity
8
0
100
AcDbLine
10
-129.81306523061858
20
-10.555673286469446
30
0
11
-129.62225623524202
21
-9.5740461030217805
31
0
0
LINE
5
759
100
AcDbEntity
8
0
100
AcDbLine
10
-123.3988981202524
20
18.249681428935371
30
0
11
-124.0667296040703
21
14.813986286868541
31
0
0
LINE
5
760
100
AcDbEntity
8
0
100
AcDbLine
10
-136.11429497920062
20
30.399112803261012
30
0
11
-136.30510397457715
21
29.417485619813355
31
0
0
LINE
5
761
100
AcDbEntity
8
0
100
AcDbLine
10
-129.62225623524202
20
-9.5740461030217805
30
0
11
-136.49364651937566
21
-8.2383831353859716
31
0
0
LINE
5
762
100
AcDbEntity
8
0
100
AcDbLine
10
-143.36503680350933
20
-6.9027201677501626
30
0
11
-143.55584579888588
21
-7.8843473511978246
31
0
0
LINE
5
763
100
AcDbEntity
8
0
100
AcDbLine
10
-132.29358217051364
20
-23.316826671289064
30
0
11
-139.16497245464728
21
-21.981163703653252
31
0
0
LINE
5
764
100
AcDbEntity
8
0
100
AcDbLine
10
-137.09040572133532
20
29.570132816114594
30
0
11
-136.30510397457715
21
29.417485619813355
31
0
0
LINE
5
765
100
AcDbEntity
8
0
100
AcDbLine
10
-121.77702165955176
20
26.593512488240503
30
0
11
-122.56232340630987
21
26.74615968454173
31
0
0
LINE
5
766
100
AcDbEntity
8
0
100
AcDbLine
10
-143.55584579888588
20
-7.8843473511978246
30
0
11
-143.36503680350933
21
-6.9027201677501626
31
0
0
LINE
5
767
100
AcDbEntity
8
0
100
AcDbLine
10
-129.62225623524202
20
-9.5740461030217805
30
0
11
-129.81306523061858
21
-10.555673286469446
31
0
0
LINE
5
768
100
AcDbEntity
8
0
100
AcDbLine
10
-122.37151441093333
20
27.727786867989384
30
0
11
-129.24290469506698
21
29.0634498356252
31
0
0
LINE
5
769
100
AcDbEntity
8
0
100
AcDbLine
10
-143.36503680350933
20
-6.9027201677501626
30
0
11
-136.49364651937566
21
-8.2383831353859716
31
0
0
LINE
5
770
100
AcDbEntity
8
0
100
AcDbLine
10
-124.18419986701051
20
18.402328625236599
30
0
11
-123.3988981202524
21
18.249681428935371
31
0
0
LINE
5
771
100
AcDbEntity
8
0
100
AcDbLine
10
-140.71577663348967
20
10.919216330609007
30
0
11
-139.9304748867315
21
10.766569134307771
31
0
0
LINE
5
772
100
AcDbEntity
8
0
100
AcDbLine
10
-28
20
7.9999999999999982
30
0
11
-35
21
7.9999999999999982
31
0
0
LINE
5
773
100
AcDbEntity
8
0
100
AcDbLine
10
-42
20
-1.5000000000000013
30
0
11
-42.800000000000004
21
-1.5000000000000013
31
0
0
LINE
5
774
100
AcDbEntity
8
0
100
AcDbLine
10
-42
20
15
30
0
11
-42
21
17.5
31
0
0
LINE
5
775
100
AcDbEntity
8
0
100
AcDbLine
10
-28
20
9
30
0
11
-28
21
7.9999999999999982
31
0
0
LINE
5
776
100
AcDbEntity
8
0
100
AcDbLine
10
-28
20
-4.0000000000000018
30
0
11
-28
21
-6.5000000000000018
31
0
0
LINE
5
777
100
AcDbEntity
8
0
100
AcDbLine
10
-42
20
-23.000000000000004
30
0
11
-42
21
-20.500000000000004
31
0
0
LINE
5
778
100
AcDbEntity
8
0
100
AcDbLine
10
-42
20
-20.500000000000004
30
0
11
-42.800000000000004
21
-20.500000000000004
31
0
0
LINE
5
779
100
AcDbEntity
8
0
100
AcDbLine
10
-28
20
-20.500000000000004
30
0
11
-27.199999999999996
21
-20.500000000000004
31
0
0
LINE
5
780
100
AcDbEntity
8
0
100
AcDbLine
10
-27.199999999999996
20
-1.5000000000000013
30
0
11
-27.199999999999996
21
1.9999999999999996
31
0
0
LINE
5
781
100
AcDbEntity
8
0
100
AcDbLine
10
-42.800000000000004
20
-25.500000000000004
30
0
11
-42.800000000000004
21
-29.000000000000004
31
0
0
LINE
5
782
100
AcDbEntity
8
0
100
AcDbLine
10
-42.800000000000004
20
-6.5000000000000018
30
0
11
-42.800000000000004
21
-10.000000000000002
31
0
0
LINE
5
783
100
AcDbEntity
8
0
100
AcDbLine
10
-27.199999999999996
20
17.5
30
0
11
-27.199999999999996
21
21
31
0
0
LINE
5
784
100
AcDbEntity
8
0
100
AcDbLine
10
-27.199999999999996
20
-25.500000000000004
30
0
11
-27.199999999999996
21
-29.000000000000004
31
0
0
LINE
5
785
100
AcDbEntity
8
0
100
AcDbLine
10
-42.800000000000004
20
-1.5000000000000013
30
0
11
-42.800000000000004
21
1.9999999999999996
31
0
0
LINE
5
786
100
AcDbEntity
8
0
100
AcDbLine
10
-28
20
-4.0000000000000018
30
0
11
-28
21
-1.5000000000000013
31
0
0
LINE
5
787
100
AcDbEntity
8
0
100
AcDbLine
10
-42
20
17.5
30
0
11
-42.800000000000004
21
17.5
31
0
0
LINE
5
788
100
AcDbEntity
8
0
100
AcDbLine
10
-42.800000000000004
20
-20.500000000000004
30
0
11
-42.800000000000004
21
-17
31
0
0
LINE
5
789
100
AcDbEntity
8
0
100
AcDbLine
10
-42
20
-4.0000000000000018
30
0
11
-42
21
-1.5000000000000013
31
0
0
LINE
5
790
100
AcDbEntity
8
0
100
AcDbLine
10
-28
20
-6.5000000000000018
30
0
11
-27.199999999999996
21
-6.5000000000000018
31
0
0
LINE
5
791
100
AcDbEntity
8
0
100
AcDbLine
10
-27.199999999999996
20
-20.500000000000004
30
0
11
-27.199999999999996
21
-17
31
0
0
LINE
5
792
100
AcDbEntity
8
0
100
AcDbLine
10
-42
20
-30.000000000000004
30
0
11
-42
21
-29.000000000000004
31
0
0
LINE
5
793
100
AcDbEntity
8
0
100
AcDbLine
10
-42.800000000000004
20
12.5
30
0
11
-42.800000000000004
21
9
31
0
0
LINE
5
794
100
AcDbEntity
8
0
100
AcDbLine
10
-28
20
15
30
0
11
-28
21
12.5
31
0
0
LINE
5
795
100
AcDbEntity
8
0
100
AcDbLine
10
-28
20
15
30
0
11
-28
21
17.5
31
0
0
LINE
5
796
100
AcDbEntity
8
0
100
AcDbLine
10
-42
20
-11.000000000000004
30
0
11
-42
21
-10.000000000000002
31
0
0
LINE
5
797
100
AcDbEntity
8
0
100
AcDbLine
10
-28
20
1.9999999999999996
30
0
11
-28
21
3.0000000000000004
31
0
0
LINE
5
798
100
AcDbEntity
8
0
100
AcDbLine
10
-42
20
12.5
30
0
11
-42.800000000000004
21
12.5
31
0
0
LINE
5
799
100
AcDbEntity
8
0
100
AcDbLine
10
-42
20
-6.5000000000000018
30
0
11
-42.800000000000004
21
-6.5000000000000018
31
0
0
LINE
5
800
100
AcDbEntity
8
0
100
AcDbLine
10
-42
20
7.9999999999999982
30
0
11
-35
21
7.9999999999999982
31
0
0
LINE
5
801
100
AcDbEntity
8
0
100
AcDbLine
10
-28
20
-23.000000000000004
30
0
11
-28
21
-20.500000000000004
31
0
0
LINE
5
802
100
AcDbEntity
8
0
100
AcDbLine
10
-42
20
-4.0000000000000018
30
0
11
-42
21
-6.5000000000000018
31
0
0
LINE
5
803
100
AcDbEntity
8
0
100
AcDbLine
10
-42
20
-25.500000000000004
30
0
11
-42.800000000000004
21
-25.500000000000004
31
0
0
LINE
5
804
100
AcDbEntity
8
0
100
AcDbLine
10
-28
20
-1.5000000000000013
30
0
11
-27.199999999999996
21
-1.5000000000000013
31
0
0
LINE
5
805
100
AcDbEntity
8
0
100
AcDbLine
10
-28
20
7.9999999999999982
30
0
11
-28
21
9
31
0
0
LINE
5
806
100
AcDbEntity
8
0
100
AcDbLine
10
-27.199999999999996
20
-10.000000000000002
30
0
11
-28
21
-10.000000000000002
31
0
0
LINE
5
807
100
AcDbEntity
8
0
100
AcDbLine
10
-42
20
-29.000000000000004
30
0
11
-42
21
-30.000000000000004
31
0
0
LINE
5
808
100
AcDbEntity
8
0
100
AcDbLine
10
-42.800000000000004
20
-10.000000000000002
30
0
11
-42
21
-10.000000000000002
31
0
0
LINE
5
809
100
AcDbEntity
8
0
100
AcDbLine
10
-27.199999999999996
20
1.9999999999999996
30
0
11
-28
21
1.9999999999999996
31
0
0
LINE
5
810
100
AcDbEntity
8
0
100
AcDbLine
10
-42
20
1.9999999999999996
30
0
11
-42
21
3.0000000000000004
31
0
0
LINE
5
811
100
AcDbEntity
8
0
100
AcDbLine
10
-28
20
-23.000000000000004
30
0
11
-28
21
-25.500000000000004
31
0
0
LINE
5
812
100
AcDbEntity
8
0
100
AcDbLine
10
-27.199999999999996
20
-29.000000000000004
30
0
11
-28
21
-29.000000000000004
31
0
0
LINE
5
813
100
AcDbEntity
8
0
100
AcDbLine
10
-42.800000000000004
20
-29.000000000000004
30
0
11
-42
21
-29.000000000000004
31
0
0
LINE
5
814
100
AcDbEntity
8
0
100
AcDbLine
10
-28
20
3.0000000000000004
30
0
11
-35
21
3.0000000000000004
31
0
0
LINE
5
815
100
AcDbEntity
8
0
100
AcDbLine
10
-28
20
17.5
30
0
11
-27.199999999999996
21
17.5
31
0
0
LINE
5
816
100
AcDbEntity
8
0
100
AcDbLine
10
-42.800000000000004
20
17.5
30
0
11
-42.800000000000004
21
21
31
0
0
LINE
5
817
100
AcDbEntity
8
0
100
AcDbLine
10
-28
20
-30.000000000000004
30
0
11
-28
21
-29.000000000000004
31
0
0
LINE
5
818
100
AcDbEntity
8
0
100
AcDbLine
10
-42
20
7.9999999999999982
30
0
11
-42
21
9
31
0
0
LINE
5
819
100
AcDbEntity
8
0
100
AcDbLine
10
-42
20
-23.000000000000004
30
0
11
-42
21
-25.500000000000004
31
0
0
LINE
5
820
100
AcDbEntity
8
0
100
AcDbLine
10
-42
20
-10.000000000000002
30
0
11
-42
21
-11.000000000000004
31
0
0
LINE
5
821
100
AcDbEntity
8
0
100
AcDbLine
10
-42
20
15
30
0
11
-42
21
12.5
31
0
0
LINE
5
822
100
AcDbEntity
8
0
100
AcDbLine
10
-28
20
-25.500000000000004
30
0
11
-27.199999999999996
21
-25.500000000000004
31
0
0
LINE
5
823
100
AcDbEntity
8
0
100
AcDbLine
10
-27.199999999999996
20
-6.5000000000000018
30
0
11
-27.199999999999996
21
-10.000000000000002
31
0
0
LINE
5
824
100
AcDbEntity
8
0
100
AcDbLine
10
-28
20
-29.000000000000004
30
0
11
-28
21
-30.000000000000004
31
0
0
LINE
5
825
100
AcDbEntity
8
0
100
AcDbLine
10
-42
20
3.0000000000000004
30
0
11
-35
21
3.0000000000000004
31
0
0
LINE
5
826
100
AcDbEntity
8
0
100
AcDbLine
10
-28
20
-10.000000000000002
30
0
11
-28
21
-11.000000000000004
31
0
0
LINE
5
827
100
AcDbEntity
8
0
100
AcDbLine
10
-42
20
-30.000000000000004
30
0
11
-35
21
-30.000000000000004
31
0
0
LINE
5
828
100
AcDbEntity
8
0
100
AcDbLine
10
-28
20
-11.000000000000004
30
0
11
-28
21
-10.000000000000002
31
0
0
LINE
5
829
100
AcDbEntity
8
0
100
AcDbLine
10
-27.199999999999996
20
-17
30
0
11
-28
21
-17
31
0
0
LINE
5
830
100
AcDbEntity
8
0
100
AcDbLine
10
-42.800000000000004
20
9
30
0
11
-42
21
9
31
0
0
LINE
5
831
100
AcDbEntity
8
0
100
AcDbLine
10
-42
20
-11.000000000000004
30
0
11
-35
21
-11.000000000000004
31
0
0
LINE
5
832
100
AcDbEntity
8
0
100
AcDbLine
10
-42.800000000000004
20
-17
30
0
11
-42
21
-17
31
0
0
LINE
5
833
100
AcDbEntity
8
0
100
AcDbLine
10
-28
20
3.0000000000000004
30
0
11
-28
21
1.9999999999999996
31
0
0
LINE
5
834
100
AcDbEntity
8
0
100
AcDbLine
10
-42
20
22
30
0
11
-35
21
22
31
0
0
LINE
5
835
100
AcDbEntity
8
0
100
AcDbLine
10
-28
20
22
30
0
11
-28
21
21
31
0
0
LINE
5
836
100
AcDbEntity
8
0
100
AcDbLine
10
-28
20
21
30
0
11
-28
21
22
31
0
0
LINE
5
837
100
AcDbEntity
8
0
100
AcDbLine
10
-42
20
9
30
0
11
-42
21
7.9999999999999982
31
0
0
LINE
5
838
100
AcDbEntity
8
0
100
AcDbLine
10
-27.199999999999996
20
9
30
0
11
-28
21
9
31
0
0
LINE
5
839
100
AcDbEntity
8
0
100
AcDbLine
10
-42
20
3.0000000000000004
30
0
11
-42
21
1.9999999999999996
31
0
0
LINE
5
840
100
AcDbEntity
8
0
100
AcDbLine
10
-42
20
21
30
0
11
-42
21
22
31
0
0
LINE
5
841
100
AcDbEntity
8
0
100
AcDbLine
10
-28
20
-11.000000000000004
30
0
11
-35
21
-11.000000000000004
31
0
0
LINE
5
842
100
AcDbEntity
8
0
100
AcDbLine
10
-28
20
-17
30
0
11
-28
21
-16
31
0
0
LINE
5
843
100
AcDbEntity
8
0
100
AcDbLine
10
-27.199999999999996
20
12.5
30
0
11
-27.199999999999996
21
9
31
0
0
LINE
5
844
100
AcDbEntity
8
0
100
AcDbLine
10
-42
20
22
30
0
11
-42
21
21
31
0
0
LINE
5
845
100
AcDbEntity
8
0
100
AcDbLine
10
-28
20
-16
30
0
11
-35
21
-16
31
0
0
LINE
5
846
100
AcDbEntity
8
0
100
AcDbLine
10
-42
20
-16
30
0
11
-42
21
-17
31
0
0
LINE
5
847
100
AcDbEntity
8
0
100
AcDbLine
10
-28
20
-30.000000000000004
30
0
11
-35
21
-30.000000000000004
31
0
0
LINE
5
848
100
AcDbEntity
8
0
100
AcDbLine
10
-42.800000000000004
20
21
30
0
11
-42
21
21
31
0
0
LINE
5
849
100
AcDbEntity
8
0
100
AcDbLine
10
-27.199999999999996
20
21
30
0
11
-28
21
21
31
0
0
LINE
5
850
100
AcDbEntity
8
0
100
AcDbLine
10
-42
20
-17
30
0
11
-42
21
-16
31
0
0
LINE
5
851
100
AcDbEntity
8
0
100
AcDbLine
10
-28
20
-16
30
0
11
-28
21
-17
31
0
0
LINE
5
852
100
AcDbEntity
8
0
100
AcDbLine
10
-28
20
22
30
0
11
-35
21
22
31
0
0
LINE
5
853
100
AcDbEntity
8
0
100
AcDbLine
10
-42
20
-16
30
0
11
-35
21
-16
31
0
0
LINE
5
854
100
AcDbEntity
8
0
100
AcDbLine
10
-28
20
12.5
30
0
11
-27.199999999999996
21
12.5
31
0
0
LINE
5
855
100
AcDbEntity
8
0
100
AcDbLine
10
-42.800000000000004
20
1.9999999999999996
30
0
11
-42
21
1.9999999999999996
31
0
0
LINE
5
856
100
AcDbEntity
8
0
100
AcDbLine
10
-55.858563231022529
20
40.077806560552247
30
0
11
-55.823663734320029
21
41.077197387571346
31
0
0
LINE
5
857
100
AcDbEntity
8
0
100
AcDbLine
10
-69.815135312587387
20
41.565790341406355
30
0
11
-69.85003480928988
21
40.566399514387257
31
0
0
LINE
5
858
100
AcDbEntity
8
0
100
AcDbLine
10
-70.946193192876422
20
32.099497082086941
30
0
11
-71.06834143133517
21
28.601629187520111
31
0
0
LINE
5
859
100
AcDbEntity
8
0
100
AcDbLine
10
-55.355696291378521
20
31.55506493352793
30
0
11
-55.47784452983727
21
28.0571970389611
31
0
0
LINE
5
860
100
AcDbEntity
8
0
100
AcDbLine
10
-56.312256688155045
20
27.085725809304002
30
0
11
-63.307992477288707
21
27.330022286221507
31
0
0
LINE
5
861
100
AcDbEntity
8
0
100
AcDbLine
10
-56.067960211237533
20
34.08146159843767
30
0
11
-55.980711469481285
21
36.579938665985416
31
0
0
LINE
5
862
100
AcDbEntity
8
0
100
AcDbLine
10
-70.771695709363911
20
37.096451217182427
30
0
11
-70.649547470905162
21
40.594319111749257
31
0
0
LINE
5
863
100
AcDbEntity
8
0
100
AcDbLine
10
-56.277357191452538
20
28.0851166363231
30
0
11
-56.312256688155045
21
27.085725809304002
31
0
0
LINE
5
864
100
AcDbEntity
8
0
100
AcDbLine
10
-55.181198807866011
20
36.552019068623416
30
0
11
-55.059050569407262
21
40.049886963190247
31
0
0
LINE
5
865
100
AcDbEntity
8
0
100
AcDbLine
10
-55.823663734320029
20
41.077197387571346
30
0
11
-55.858563231022529
21
40.077806560552247
31
0
0
LINE
5
866
100
AcDbEntity
8
0
100
AcDbLine
10
-70.268828769719889
20
28.57370959015811
30
0
11
-70.303728266422382
21
27.574318763139011
31
0
0
LINE
5
867
100
AcDbEntity
8
0
100
AcDbLine
10
-71.06834143133517
20
28.601629187520111
30
0
11
-70.268828769719889
21
28.57370959015811
31
0
0
LINE
5
868
100
AcDbEntity
8
0
100
AcDbLine
10
-70.303728266422382
20
27.574318763139011
30
0
11
-63.307992477288707
21
27.330022286221507
31
0
0
LINE
5
869
100
AcDbEntity
8
0
100
AcDbLine
10
-69.972183047748629
20
37.068531619820426
30
0
11
-70.771695709363911
21
37.096451217182427
31
0
0
LINE
5
870
100
AcDbEntity
8
0
100
AcDbLine
10
-70.303728266422382
20
27.574318763139011
30
0
11
-70.268828769719889
21
28.57370959015811
31
0
0
LINE
5
871
100
AcDbEntity
8
0
100
AcDbLine
10
-55.980711469481285
20
36.579938665985416
30
0
11
-55.181198807866011
21
36.552019068623416
31
0
0
LINE
5
872
100
AcDbEntity
8
0
100
AcDbLine
10
-56.155208952993789
20
31.582984530889931
30
0
11
-55.355696291378521
21
31.55506493352793
31
0
0
LINE
5
873
100
AcDbEntity
8
0
100
AcDbLine
10
-56.067960211237533
20
34.08146159843767
30
0
11
-56.155208952993789
21
31.582984530889931
31
0
0
LINE
5
874
100
AcDbEntity
8
0
100
AcDbLine
10
-55.823663734320029
20
41.077197387571346
30
0
11
-62.819399523453697
21
41.321493864488858
31
0
0
LINE
5
875
100
AcDbEntity
8
0
100
AcDbLine
10
-70.14668053126114
20
32.071577484724941
30
0
11
-70.946193192876422
21
32.099497082086941
31
0
0
LINE
5
876
100
AcDbEntity
8
0
100
AcDbLine
10
-70.649547470905162
20
40.594319111749257
30
0
11
-69.85003480928988
21
40.566399514387257
31
0
0
LINE
5
877
100
AcDbEntity
8
0
100
AcDbLine
10
-69.815135312587387
20
41.565790341406355
30
0
11
-62.819399523453697
21
41.321493864488858
31
0
0
LINE
5
878
100
AcDbEntity
8
0
100
AcDbLine
10
-55.059050569407262
20
40.049886963190247
30
0
11
-55.858563231022529
21
40.077806560552247
31
0
0
LINE
5
879
100
AcDbEntity
8
0
100
AcDbLine
10
-69.85003480928988
20
40.566399514387257
30
0
11
-69.815135312587387
21
41.565790341406355
31
0
0
LINE
5
880
100
AcDbEntity
8
0
100
AcDbLine
10
-70.059431789504885
20
34.57005455227268
30
0
11
-69.972183047748629
21
37.068531619820426
31
0
0
LINE
5
881
100
AcDbEntity
8
0
100
AcDbLine
10
-55.47784452983727
20
28.0571970389611
30
0
11
-56.277357191452538
21
28.0851166363231
31
0
0
LINE
5
882
100
AcDbEntity
8
0
100
AcDbLine
10
-70.059431789504885
20
34.57005455227268
30
0
11
-70.14668053126114
21
32.071577484724941
31
0
0
LINE
5
883
100
AcDbEntity
8
0
100
AcDbLine
10
-56.312256688155045
20
27.085725809304002
30
0
11
-56.277357191452538
21
28.0851166363231
31
0
0
LINE
5
884
100
AcDbEntity
8
0
100
AcDbLine
10
-34.602158624939051
20
29.445358744967987
30
0
11
-34.741331725899116
21
30.435626813709568
31
0
0
LINE
5
885
100
AcDbEntity
8
0
100
AcDbLine
10
-49.397299143274367
20
28.3758649195006
30
0
11
-48.60508468828111
21
28.487203400268655
31
0
0
LINE
5
886
100
AcDbEntity
8
0
100
AcDbLine
10
-48.465911587321038
20
27.496935331527077
30
0
11
-41.534035106130048
21
28.471147038247537
31
0
0
LINE
5
887
100
AcDbEntity
8
0
100
AcDbLine
10
-34.741331725899116
20
30.435626813709568
30
0
11
-34.602158624939051
21
29.445358744967987
31
0
0
LINE
5
888
100
AcDbEntity
8
0
100
AcDbLine
10
-49.440123294041499
20
34.428811812718074
30
0
11
-49.78805604644166
21
36.904481984572001
31
0
0
LINE
5
889
100
AcDbEntity
8
0
100
AcDbLine
10
-34.436223124266093
20
34.012903535073107
30
0
11
-33.949117270905859
21
30.546965294477619
31
0
0
LINE
5
890
100
AcDbEntity
8
0
100
AcDbLine
10
-48.465911587321038
20
27.496935331527077
30
0
11
-48.60508468828111
21
28.487203400268655
31
0
0
LINE
5
891
100
AcDbEntity
8
0
100
AcDbLine
10
-49.440123294041499
20
34.428811812718074
30
0
11
-49.092190541641337
21
31.953141640864146
31
0
0
LINE
5
892
100
AcDbEntity
8
0
100
AcDbLine
10
-49.884404996634586
20
31.841803160096092
30
0
11
-49.397299143274367
21
28.3758649195006
31
0
0
LINE
5
893
100
AcDbEntity
8
0
100
AcDbLine
10
-51.067376354795151
20
40.259081744399438
30
0
11
-50.275161899801894
21
40.370420225167493
31
0
0
LINE
5
894
100
AcDbEntity
8
0
100
AcDbLine
10
-48.60508468828111
20
28.487203400268655
30
0
11
-48.465911587321038
21
27.496935331527077
31
0
0
LINE
5
895
100
AcDbEntity
8
0
100
AcDbLine
10
-35.132088629066416
20
38.964243878780962
30
0
11
-35.619194482426643
21
42.430182119376454
31
0
0
LINE
5
896
100
AcDbEntity
8
0
100
AcDbLine
10
-33.949117270905859
20
30.546965294477619
30
0
11
-34.741331725899116
21
30.435626813709568
31
0
0
LINE
5
897
100
AcDbEntity
8
0
100
AcDbLine
10
-49.092190541641337
20
31.953141640864146
30
0
11
-49.884404996634586
21
31.841803160096092
31
0
0
LINE
5
898
100
AcDbEntity
8
0
100
AcDbLine
10
-35.576370331659511
20
36.377235226158987
30
0
11
-35.924303084059673
21
38.852905398012908
31
0
0
LINE
5
899
100
AcDbEntity
8
0
100
AcDbLine
10
-49.78805604644166
20
36.904481984572001
30
0
11
-50.580270501434924
21
36.793143503803947
31
0
0
LINE
5
900
100
AcDbEntity
8
0
100
AcDbLine
10
-36.550582038379964
20
43.30911170734997
30
0
11
-36.4114089374199
21
42.318843638608399
31
0
0
LINE
5
901
100
AcDbEntity
8
0
100
AcDbLine
10
-35.228437579259342
20
33.901565054305053
30
0
11
-34.436223124266093
21
34.012903535073107
31
0
0
LINE
5
902
100
AcDbEntity
8
0
100
AcDbLine
10
-36.550582038379964
20
43.30911170734997
30
0
11
-43.482458519570962
21
42.334900000629517
31
0
0
LINE
5
903
100
AcDbEntity
8
0
100
AcDbLine
10
-35.619194482426643
20
42.430182119376454
30
0
11
-36.4114089374199
21
42.318843638608399
31
0
0
LINE
5
904
100
AcDbEntity
8
0
100
AcDbLine
10
-50.275161899801894
20
40.370420225167493
30
0
11
-50.414335000761959
21
41.360688293909064
31
0
0
LINE
5
905
100
AcDbEntity
8
0
100
AcDbLine
10
-34.602158624939051
20
29.445358744967987
30
0
11
-41.534035106130048
21
28.471147038247537
31
0
0
LINE
5
906
100
AcDbEntity
8
0
100
AcDbLine
10
-35.576370331659511
20
36.377235226158987
30
0
11
-35.228437579259342
21
33.901565054305053
31
0
0
LINE
5
907
100
AcDbEntity
8
0
100
AcDbLine
10
-36.4114089374199
20
42.318843638608399
30
0
11
-36.550582038379964
21
43.30911170734997
31
0
0
LINE
5
908
100
AcDbEntity
8
0
100
AcDbLine
10
-35.924303084059673
20
38.852905398012908
30
0
11
-35.132088629066416
21
38.964243878780962
31
0
0
LINE
5
909
100
AcDbEntity
8
0
100
AcDbLine
10
-50.580270501434924
20
36.793143503803947
30
0
11
-51.067376354795151
21
40.259081744399438
31
0
0
LINE
5
910
100
AcDbEntity
8
0
100
AcDbLine
10
-50.414335000761959
20
41.360688293909064
30
0
11
-50.275161899801894
21
40.370420225167493
31
0
0
LINE
5
911
100
AcDbEntity
8
0
100
AcDbLine
10
-50.414335000761959
20
41.360688293909064
30
0
11
-43.482458519570962
21
42.334900000629517
31
0
0
LINE
5
912
100
AcDbEntity
8
0
100
AcDbLine
10
-13.631631692869535
20
35.539062519920677
30
0
11
-13.940648687244487
21
36.49011903621583
31
0
0
LINE
5
913
100
AcDbEntity
8
0
100
AcDbLine
10
-28.016285128412758
20
31.9166675194666
30
0
11
-27.25543991537663
21
32.163881114966557
31
0
0
LINE
5
914
100
AcDbEntity
8
0
100
AcDbLine
10
-26.946422921001684
20
31.212824598671407
30
0
11
-20.289027306935612
21
33.37594355929604
31
0
0
LINE
5
915
100
AcDbEntity
8
0
100
AcDbLine
10
-13.940648687244487
20
36.49011903621583
30
0
11
-13.631631692869535
21
35.539062519920677
31
0
0
LINE
5
916
100
AcDbEntity
8
0
100
AcDbLine
10
-29.109541881626321
20
37.870220212737486
30
0
11
-29.882084367563685
21
40.24786150347537
31
0
0
LINE
5
917
100
AcDbEntity
8
0
100
AcDbLine
10
-14.261362954520674
20
40.066030438748825
30
0
11
-13.179803474208359
21
36.73733263171578
31
0
0
LINE
5
918
100
AcDbEntity
8
0
100
AcDbLine
10
-26.946422921001684
20
31.212824598671407
30
0
11
-27.25543991537663
21
32.163881114966557
31
0
0
LINE
5
919
100
AcDbEntity
8
0
100
AcDbLine
10
-29.109541881626321
20
37.870220212737486
30
0
11
-28.336999395688949
21
35.492578921999602
31
0
0
LINE
5
920
100
AcDbEntity
8
0
100
AcDbLine
10
-29.097844608725076
20
35.245365326499638
30
0
11
-28.016285128412758
21
31.9166675194666
31
0
0
LINE
5
921
100
AcDbEntity
8
0
100
AcDbLine
10
-31.724489060912127
20
43.329345715008436
30
0
11
-30.963643847876003
21
43.576559310508401
31
0
0
LINE
5
922
100
AcDbEntity
8
0
100
AcDbLine
10
-27.25543991537663
20
32.163881114966557
30
0
11
-26.946422921001684
21
31.212824598671407
31
0
0
LINE
5
923
100
AcDbEntity
8
0
100
AcDbLine
10
-15.806447926395411
20
44.821313020224594
30
0
11
-16.888007406707729
21
48.150010827257631
31
0
0
LINE
5
924
100
AcDbEntity
8
0
100
AcDbLine
10
-13.179803474208359
20
36.73733263171578
30
0
11
-13.940648687244487
21
36.49011903621583
31
0
0
LINE
5
925
100
AcDbEntity
8
0
100
AcDbLine
10
-28.336999395688949
20
35.492578921999602
30
0
11
-29.097844608725076
21
35.245365326499638
31
0
0
LINE
5
926
100
AcDbEntity
8
0
100
AcDbLine
10
-15.794750653494166
20
42.196458133986745
30
0
11
-16.567293139431534
21
44.574099424724629
31
0
0
LINE
5
927
100
AcDbEntity
8
0
100
AcDbLine
10
-29.882084367563685
20
40.24786150347537
30
0
11
-30.642929580599812
21
40.000647907975406
31
0
0
LINE
5
928
100
AcDbEntity
8
0
100
AcDbLine
10
-17.957869614118799
20
48.853853748052821
30
0
11
-17.648852619743852
21
47.90279723175766
31
0
0
LINE
5
929
100
AcDbEntity
8
0
100
AcDbLine
10
-15.022208167556798
20
39.818816843248861
30
0
11
-14.261362954520674
21
40.066030438748825
31
0
0
LINE
5
930
100
AcDbEntity
8
0
100
AcDbLine
10
-17.957869614118799
20
48.853853748052821
30
0
11
-24.615265228184878
21
46.690734787428184
31
0
0
LINE
5
931
100
AcDbEntity
8
0
100
AcDbLine
10
-16.888007406707729
20
48.150010827257631
30
0
11
-17.648852619743852
21
47.90279723175766
31
0
0
LINE
5
932
100
AcDbEntity
8
0
100
AcDbLine
10
-30.963643847876003
20
43.576559310508401
30
0
11
-31.27266084225095
21
44.527615826803562
31
0
0
LINE
5
933
100
AcDbEntity
8
0
100
AcDbLine
10
-13.631631692869535
20
35.539062519920677
30
0
11
-20.289027306935612
21
33.37594355929604
31
0
0
LINE
5
934
100
AcDbEntity
8
0
100
AcDbLine
10
-15.794750653494166
20
42.196458133986745
30
0
11
-15.022208167556798
21
39.818816843248861
31
0
0
LINE
5
935
100
AcDbEntity
8
0
100
AcDbLine
10
-17.648852619743852
20
47.90279723175766
30
0
11
-17.957869614118799
21
48.853853748052821
31
0
0
LINE
5
936
100
AcDbEntity
8
0
100
AcDbLine
10
-16.567293139431534
20
44.574099424724629
30
0
11
-15.806447926395411
21
44.821313020224594
31
0
0
LINE
5
937
100
AcDbEntity
8
0
100
AcDbLine
10
-30.642929580599812
20
40.000647907975406
30
0
11
-31.724489060912127
21
43.329345715008436
31
0
0
LINE
5
938
100
AcDbEntity
8
0
100
AcDbLine
10
-31.27266084225095
20
44.527615826803562
30
0
11
-30.963643847876003
21
43.576559310508401
31
0
0
LINE
5
939
100
AcDbEntity
8
0
100
AcDbLine
10
-31.27266084225095
20
44.527615826803562
30
0
11
-24.615265228184878
21
46.690734787428184
31
0
0
LINE
5
940
100
AcDbEntity
8
0
100
AcDbLine
10
5.9621452588212076
20
45.181683028522968
30
0
11
5.4926736960353129
21
46.064630621381902
31
0
0
LINE
5
941
100
AcDbEntity
8
0
100
AcDbLine
10
-7.5749506782767995
20
39.116451492150716
30
0
11
-6.8685926039896561
21
39.492028742379432
31
0
0
LINE
5
942
100
AcDbEntity
8
0
100
AcDbLine
10
-6.3991210412037614
20
38.609081149520499
30
0
11
-0.21848789119127687
21
41.895382089021737
31
0
0
LINE
5
943
100
AcDbEntity
8
0
100
AcDbLine
10
5.4926736960353129
20
46.064630621381902
30
0
11
5.9621452588212076
21
45.181683028522968
31
0
0
LINE
5
944
100
AcDbEntity
8
0
100
AcDbLine
10
-9.6854219807050015
20
44.789714299532989
30
0
11
-10.859100887669729
21
46.997083281680304
31
0
0
LINE
5
945
100
AcDbEntity
8
0
100
AcDbLine
10
4.5558813005718424
20
49.530524446616866
30
0
11
6.1990317703224651
21
46.44020787161061
31
0
0
LINE
5
946
100
AcDbEntity
8
0
100
AcDbLine
10
-6.3991210412037614
20
38.609081149520499
30
0
11
-6.8685926039896561
21
39.492028742379432
31
0
0
LINE
5
947
100
AcDbEntity
8
0
100
AcDbLine
10
-9.6854219807050015
20
44.789714299532989
30
0
11
-8.5117430737402788
21
42.582345317385673
31
0
0
LINE
5
948
100
AcDbEntity
8
0
100
AcDbLine
10
-9.2181011480274222
20
42.206768067156958
30
0
11
-7.5749506782767995
21
39.116451492150716
31
0
0
LINE
5
949
100
AcDbEntity
8
0
100
AcDbLine
10
-13.208609431707487
20
49.711822606457837
30
0
11
-12.502251357420345
21
50.087399856686545
31
0
0
LINE
5
950
100
AcDbEntity
8
0
100
AcDbLine
10
-6.8685926039896561
20
39.492028742379432
30
0
11
-6.3991210412037614
21
38.609081149520499
31
0
0
LINE
5
951
100
AcDbEntity
8
0
100
AcDbLine
10
2.2085234866423864
20
53.945262410911496
30
0
11
0.56537301689178143
21
57.035578985917738
31
0
0
LINE
5
952
100
AcDbEntity
8
0
100
AcDbLine
10
6.1990317703224651
20
46.44020787161061
30
0
11
5.4926736960353129
21
46.064630621381902
31
0
0
LINE
5
953
100
AcDbEntity
8
0
100
AcDbLine
10
-8.5117430737402788
20
42.582345317385673
30
0
11
-9.2181011480274222
21
42.206768067156958
31
0
0
LINE
5
954
100
AcDbEntity
8
0
100
AcDbLine
10
2.6758443193199799
20
51.362316178535465
30
0
11
1.5021654123552519
21
53.569685160682781
31
0
0
LINE
5
955
100
AcDbEntity
8
0
100
AcDbLine
10
-10.859100887669729
20
46.997083281680304
30
0
11
-11.565458961956875
21
46.621506031451602
31
0
0
LINE
5
956
100
AcDbEntity
8
0
100
AcDbLine
10
-0.61045662018126556
20
57.542949328547962
30
0
11
-0.14098505739537082
21
56.660001735689022
31
0
0
LINE
5
957
100
AcDbEntity
8
0
100
AcDbLine
10
3.8495232262847079
20
49.15494719638815
30
0
11
4.5558813005718424
21
49.530524446616866
31
0
0
LINE
5
958
100
AcDbEntity
8
0
100
AcDbLine
10
-0.61045662018126556
20
57.542949328547962
30
0
11
-6.79108977019375
21
54.256648389046717
31
0
0
LINE
5
959
100
AcDbEntity
8
0
100
AcDbLine
10
0.56537301689178143
20
57.035578985917738
30
0
11
-0.14098505739537082
21
56.660001735689022
31
0
0
LINE
5
960
100
AcDbEntity
8
0
100
AcDbLine
10
-12.502251357420345
20
50.087399856686545
30
0
11
-12.97172292020624
21
50.970347449545478
31
0
0
LINE
5
961
100
AcDbEntity
8
0
100
AcDbLine
10
5.9621452588212076
20
45.181683028522968
30
0
11
-0.21848789119127687
21
41.895382089021737
31
0
0
LINE
5
962
100
AcDbEntity
8
0
100
AcDbLine
10
2.6758443193199799
20
51.362316178535465
30
0
11
3.8495232262847079
21
49.15494719638815
31
0
0
LINE
5
963
100
AcDbEntity
8
0
100
AcDbLine
10
-0.14098505739537082
20
56.660001735689022
30
0
11
-0.61045662018126556
21
57.542949328547962
31
0
0
LINE
5
964
100
AcDbEntity
8
0
100
AcDbLine
10
1.5021654123552519
20
53.569685160682781
30
0
11
2.2085234866423864
21
53.945262410911496
31
0
0
LINE
5
965
100
AcDbEntity
8
0
100
AcDbLine
10
-11.565458961956875
20
46.621506031451602
30
0
11
-13.208609431707487
21
49.711822606457837
31
0
0
LINE
5
966
100
AcDbEntity
8
0
100
AcDbLine
10
-12.97172292020624
20
50.970347449545478
30
0
11
-12.502251357420345
21
50.087399856686545
31
0
0
LINE
5
967
100
AcDbEntity
8
0
100
AcDbLine
10
-12.97172292020624
20
50.970347449545478
30
0
11
-6.79108977019375
21
54.256648389046717
31
0
0
LINE
5
968
100
AcDbEntity
8
0
100
AcDbLine
10
-75.579896566760311
20
32.504893597443605
30
0
11
-76.067002420120559
21
29.038955356848124
31
0
0
LINE
5
969
100
AcDbEntity
8
0
100
AcDbLine
10
-91.028078439128819
20
34.675993972420621
30
0
11
-91.515184292489025
21
31.210055731825122
31
0
0
LINE
5
970
100
AcDbEntity
8
0
100
AcDbLine
10
-75.579896566760311
20
32.504893597443605
30
0
11
-76.067002420120559
21
29.038955356848124
31
0
0
LINE
5
971
100
AcDbEntity
8
0
100
AcDbLine
10
-91.028078439128819
20
34.675993972420621
30
0
11
-91.515184292489025
21
31.210055731825122
31
0
0
LINE
5
972
100
AcDbEntity
8
0
100
AcDbLine
10
-88.91371952501494
20
43.972202144697505
30
0
11
-81.981843043823943
21
42.997990437977037
31
0
0
LINE
5
973
100
AcDbEntity
8
0
100
AcDbLine
10
-76.372111021753597
20
32.616232078211659
30
0
11
-75.579896566760311
21
32.504893597443605
31
0
0
LINE
5
974
100
AcDbEntity
8
0
100
AcDbLine
10
-90.722969837495839
20
31.098717251057082
30
0
11
-90.862142938455889
21
30.10844918231551
31
0
0
LINE
5
975
100
AcDbEntity
8
0
100
AcDbLine
10
-76.998389976073852
20
28.16002576887459
30
0
11
-83.930266457264864
21
29.134237475595057
31
0
0
LINE
5
976
100
AcDbEntity
8
0
100
AcDbLine
10
-88.91371952501494
20
43.972202144697505
30
0
11
-89.052892625975034
21
42.981934075955934
31
0
0
LINE
5
977
100
AcDbEntity
8
0
100
AcDbLine
10
-74.884031061960002
20
37.456233941151453
30
0
11
-74.396925208599768
21
40.922172181746959
31
0
0
LINE
5
978
100
AcDbEntity
8
0
100
AcDbLine
10
-90.862142938455889
20
30.10844918231551
30
0
11
-83.930266457264864
21
29.134237475595057
31
0
0
LINE
5
979
100
AcDbEntity
8
0
100
AcDbLine
10
-89.887931231735394
20
37.040325663506508
30
0
11
-90.235863984135563
21
34.56465549165258
31
0
0
LINE
5
980
100
AcDbEntity
8
0
100
AcDbLine
10
-76.024178269353399
20
35.091902250065587
30
0
11
-76.372111021753597
21
32.616232078211659
31
0
0
LINE
5
981
100
AcDbEntity
8
0
100
AcDbLine
10
-74.396925208599768
20
40.922172181746959
30
0
11
-75.189139663593011
21
41.033510662514999
31
0
0
LINE
5
982
100
AcDbEntity
8
0
100
AcDbLine
10
-88.91371952501494
20
43.972202144697505
30
0
11
-89.052892625975034
21
42.981934075955934
31
0
0
LINE
5
983
100
AcDbEntity
8
0
100
AcDbLine
10
-74.396925208599768
20
40.922172181746959
30
0
11
-75.189139663593011
21
41.033510662514999
31
0
0
LINE
5
984
100
AcDbEntity
8
0
100
AcDbLine
10
-75.049966562632946
20
42.023778731256584
30
0
11
-81.981843043823943
21
42.997990437977037
31
0
0
LINE
5
985
100
AcDbEntity
8
0
100
AcDbLine
10
-76.998389976073852
20
28.16002576887459
30
0
11
-76.859216875113773
21
29.150293837616168
31
0
0
LINE
5
986
100
AcDbEntity
8
0
100
AcDbLine
10
-90.235863984135563
20
34.56465549165258
30
0
11
-91.028078439128819
21
34.675993972420621
31
0
0
LINE
5
987
100
AcDbEntity
8
0
100
AcDbLine
10
-89.887931231735394
20
37.040325663506508
30
0
11
-89.539998479335239
21
39.515995835360428
31
0
0
LINE
5
988
100
AcDbEntity
8
0
100
AcDbLine
10
-76.998389976073852
20
28.16002576887459
30
0
11
-83.930266457264864
21
29.134237475595057
31
0
0
LINE
5
989
100
AcDbEntity
8
0
100
AcDbLine
10
-90.722969837495839
20
31.098717251057082
30
0
11
-90.862142938455889
21
30.10844918231551
31
0
0
LINE
5
990
100
AcDbEntity
8
0
100
AcDbLine
10
-76.859216875113773
20
29.150293837616168
30
0
11
-76.998389976073852
21
28.16002576887459
31
0
0
LINE
5
991
100
AcDbEntity
8
0
100
AcDbLine
10
-76.024178269353399
20
35.091902250065587
30
0
11
-75.676245516953244
21
37.567572421919508
31
0
0
LINE
5
992
100
AcDbEntity
8
0
100
AcDbLine
10
-88.91371952501494
20
43.972202144697505
30
0
11
-81.981843043823943
21
42.997990437977037
31
0
0
LINE
5
993
100
AcDbEntity
8
0
100
AcDbLine
10
-89.539998479335239
20
39.515995835360428
30
0
11
-90.332212934328481
21
39.627334316128476
31
0
0
LINE
5
994
100
AcDbEntity
8
0
100
AcDbLine
10
-76.998389976073852
20
28.16002576887459
30
0
11
-76.859216875113773
21
29.150293837616168
31
0
0
LINE
5
995
100
AcDbEntity
8
0
100
AcDbLine
10
-76.372111021753597
20
32.616232078211659
30
0
11
-75.579896566760311
21
32.504893597443605
31
0
0
LINE
5
996
100
AcDbEntity
8
0
100
AcDbLine
10
-76.067002420120559
20
29.038955356848124
30
0
11
-76.859216875113773
21
29.150293837616168
31
0
0
LINE
5
997
100
AcDbEntity
8
0
100
AcDbLine
10
-89.845107080968234
20
43.093272556723988
30
0
11
-89.052892625975034
21
42.981934075955934
31
0
0
LINE
5
998
100
AcDbEntity
8
0
100
AcDbLine
10
-89.052892625975034
20
42.981934075955934
30
0
11
-88.91371952501494
21
43.972202144697505
31
0
0
LINE
5
999
100
AcDbEntity
8
0
100
AcDbLine
10
-76.024178269353399
20
35.091902250065587
30
0
11
-75.676245516953244
21
37.567572421919508
31
0
0
LINE
5
1000
100
AcDbEntity
8
0
100
AcDbLine
10
-90.862142938455889
20
30.10844918231551
30
0
11
-90.722969837495839
21
31.098717251057082
31
0
0
LINE
5
1001
100
AcDbEntity
8
0
100
AcDbLine
10
-91.515184292489025
20
31.210055731825122
30
0
11
-90.722969837495839
21
31.098717251057082
31
0
0
LINE
5
1002
100
AcDbEntity
8
0
100
AcDbLine
10
-91.515184292489025
20
31.210055731825122
30
0
11
-90.722969837495839
21
31.098717251057082
31
0
0
LINE
5
1003
100
AcDbEntity
8
0
100
AcDbLine
10
-90.332212934328481
20
39.627334316128476
30
0
11
-89.845107080968234
21
43.093272556723988
31
0
0
LINE
5
1004
100
AcDbEntity
8
0
100
AcDbLine
10
-76.067002420120559
20
29.038955356848124
30
0
11
-76.859216875113773
21
29.150293837616168
31
0
0
LINE
5
1005
100
AcDbEntity
8
0
100
AcDbLine
10
-76.859216875113773
20
29.150293837616168
30
0
11
-76.998389976073852
21
28.16002576887459
31
0
0
LINE
5
1006
100
AcDbEntity
8
0
100
AcDbLine
10
-89.887931231735394
20
37.040325663506508
30
0
11
-90.235863984135563
21
34.56465549165258
31
0
0
LINE
5
1007
100
AcDbEntity
8
0
100
AcDbLine
10
-75.676245516953244
20
37.567572421919508
30
0
11
-74.884031061960002
21
37.456233941151453
31
0
0
LINE
5
1008
100
AcDbEntity
8
0
100
AcDbLine
10
-75.049966562632946
20
42.023778731256584
30
0
11
-75.189139663593011
21
41.033510662514999
31
0
0
LINE
5
1009
100
AcDbEntity
8
0
100
AcDbLine
10
-89.887931231735394
20
37.040325663506508
30
0
11
-89.539998479335239
21
39.515995835360428
31
0
0
LINE
5
1010
100
AcDbEntity
8
0
100
AcDbLine
10
-75.049966562632946
20
42.023778731256584
30
0
11
-75.189139663593011
21
41.033510662514999
31
0
0
LINE
5
1011
100
AcDbEntity
8
0
100
AcDbLine
10
-89.845107080968234
20
43.093272556723988
30
0
11
-89.052892625975034
21
42.981934075955934
31
0
0
LINE
5
1012
100
AcDbEntity
8
0
100
AcDbLine
10
-90.862142938455889
20
30.10844918231551
30
0
11
-90.722969837495839
21
31.098717251057082
31
0
0
LINE
5
1013
100
AcDbEntity
8
0
100
AcDbLine
10
-75.189139663593011
20
41.033510662514999
30
0
11
-75.049966562632946
21
42.023778731256584
31
0
0
LINE
5
1014
100
AcDbEntity
8
0
100
AcDbLine
10
-75.049966562632946
20
42.023778731256584
30
0
11
-81.981843043823943
21
42.997990437977037
31
0
0
LINE
5
1015
100
AcDbEntity
8
0
100
AcDbLine
10
-74.884031061960002
20
37.456233941151453
30
0
11
-74.396925208599768
21
40.922172181746959
31
0
0
LINE
5
1016
100
AcDbEntity
8
0
100
AcDbLine
10
-75.189139663593011
20
41.033510662514999
30
0
11
-75.049966562632946
21
42.023778731256584
31
0
0
LINE
5
1017
100
AcDbEntity
8
0
100
AcDbLine
10
-76.024178269353399
20
35.091902250065587
30
0
11
-76.372111021753597
21
32.616232078211659
31
0
0
LINE
5
1018
100
AcDbEntity
8
0
100
AcDbLine
10
-89.539998479335239
20
39.515995835360428
30
0
11
-90.332212934328481
21
39.627334316128476
31
0
0
LINE
5
1019
100
AcDbEntity
8
0
100
AcDbLine
10
-90.332212934328481
20
39.627334316128476
30
0
11
-89.845107080968234
21
43.093272556723988
31
0
0
LINE
5
1020
100
AcDbEntity
8
0
100
AcDbLine
10
-90.235863984135563
20
34.56465549165258
30
0
11
-91.028078439128819
21
34.675993972420621
31
0
0
LINE
5
1021
100
AcDbEntity
8
0
100
AcDbLine
10
-90.862142938455889
20
30.10844918231551
30
0
11
-83.930266457264864
21
29.134237475595057
31
0
0
LINE
5
1022
100
AcDbEntity
8
0
100
AcDbLine
10
-89.052892625975034
20
42.981934075955934
30
0
11
-88.91371952501494
21
43.972202144697505
31
0
0
LINE
5
1023
100
AcDbEntity
8
0
100
AcDbLine
10
-75.676245516953244
20
37.567572421919508
30
0
11
-74.884031061960002
21
37.456233941151453
31
0
0
LINE
5
1024
100
AcDbEntity
8
0
100
AcDbLine
10
-94.999931100848286
20
35.34065415971979
30
0
11
-95.667762584666178
21
31.904959017652974
31
0
0
LINE
5
1025
100
AcDbEntity
8
0
100
AcDbLine
10
-110.31331516263178
20
38.317274487593878
30
0
11
-110.98114664644969
21
34.881579345527065
31
0
0
LINE
5
1026
100
AcDbEntity
8
0
100
AcDbLine
10
-94.999931100848286
20
35.34065415971979
30
0
11
-95.667762584666178
21
31.904959017652974
31
0
0
LINE
5
1027
100
AcDbEntity
8
0
100
AcDbLine
10
-110.31331516263178
20
38.317274487593878
30
0
11
-110.98114664644969
21
34.881579345527065
31
0
0
LINE
5
1028
100
AcDbEntity
8
0
100
AcDbLine
10
-107.7153279597965
20
47.490085534045434
30
0
11
-100.84393767566286
21
46.154422566409615
31
0
0
LINE
5
1029
100
AcDbEntity
8
0
100
AcDbLine
10
-95.78523284760638
20
35.493301356021021
30
0
11
-94.999931100848286
21
35.34065415971979
31
0
0
LINE
5
1030
100
AcDbEntity
8
0
100
AcDbLine
10
-110.19584489969156
20
34.728932149225827
30
0
11
-110.38665389506811
21
33.747304965778163
31
0
0
LINE
5
1031
100
AcDbEntity
8
0
100
AcDbLine
10
-96.643873326800858
20
31.075979030506538
30
0
11
-103.51526361093448
21
32.41164199814235
31
0
0
LINE
5
1032
100
AcDbEntity
8
0
100
AcDbLine
10
-107.7153279597965
20
47.490085534045434
30
0
11
-107.90613695517303
21
46.508458350597763
31
0
0
LINE
5
1033
100
AcDbEntity
8
0
100
AcDbLine
10
-94.045886123965573
20
40.248790076958088
30
0
11
-93.378054640147653
21
43.6844852190249
31
0
0
LINE
5
1034
100
AcDbEntity
8
0
100
AcDbLine
10
-110.38665389506811
20
33.747304965778163
30
0
11
-103.51526361093448
21
32.41164199814235
31
0
0
LINE
5
1035
100
AcDbEntity
8
0
100
AcDbLine
10
-109.0509909274323
20
40.618695249911795
30
0
11
-109.52801341587366
21
38.164627291292639
31
0
0
LINE
5
1036
100
AcDbEntity
8
0
100
AcDbLine
10
-95.308210359165045
20
37.94736931464017
30
0
11
-95.78523284760638
21
35.493301356021021
31
0
0
LINE
5
1037
100
AcDbEntity
8
0
100
AcDbLine
10
-93.378054640147653
20
43.6844852190249
30
0
11
-94.163356386905775
21
43.837132415326138
31
0
0
LINE
5
1038
100
AcDbEntity
8
0
100
AcDbLine
10
-107.7153279597965
20
47.490085534045434
30
0
11
-107.90613695517303
21
46.508458350597763
31
0
0
LINE
5
1039
100
AcDbEntity
8
0
100
AcDbLine
10
-93.378054640147653
20
43.6844852190249
30
0
11
-94.163356386905775
21
43.837132415326138
31
0
0
LINE
5
1040
100
AcDbEntity
8
0
100
AcDbLine
10
-93.972547391529247
20
44.818759598773809
30
0
11
-100.84393767566286
21
46.154422566409615
31
0
0
LINE
5
1041
100
AcDbEntity
8
0
100
AcDbLine
10
-96.643873326800858
20
31.075979030506538
30
0
11
-96.453064331424301
21
32.057606213954209
31
0
0
LINE
5
1042
100
AcDbEntity
8
0
100
AcDbLine
10
-109.52801341587366
20
38.164627291292639
30
0
11
-110.31331516263178
21
38.317274487593878
31
0
0
LINE
5
1043
100
AcDbEntity
8
0
100
AcDbLine
10
-109.0509909274323
20
40.618695249911795
30
0
11
-108.57396843899095
21
43.072763208530944
31
0
0
LINE
5
1044
100
AcDbEntity
8
0
100
AcDbLine
10
-96.643873326800858
20
31.075979030506538
30
0
11
-103.51526361093448
21
32.41164199814235
31
0
0
LINE
5
1045
100
AcDbEntity
8
0
100
AcDbLine
10
-110.19584489969156
20
34.728932149225827
30
0
11
-110.38665389506811
21
33.747304965778163
31
0
0
LINE
5
1046
100
AcDbEntity
8
0
100
AcDbLine
10
-96.453064331424301
20
32.057606213954209
30
0
11
-96.643873326800858
21
31.075979030506538
31
0
0
LINE
5
1047
100
AcDbEntity
8
0
100
AcDbLine
10
-95.308210359165045
20
37.94736931464017
30
0
11
-94.831187870723696
21
40.401437273259326
31
0
0
LINE
5
1048
100
AcDbEntity
8
0
100
AcDbLine
10
-107.7153279597965
20
47.490085534045434
30
0
11
-100.84393767566286
21
46.154422566409615
31
0
0
LINE
5
1049
100
AcDbEntity
8
0
100
AcDbLine
10
-108.57396843899095
20
43.072763208530944
30
0
11
-109.35927018574907
21
43.225410404832175
31
0
0
LINE
5
1050
100
AcDbEntity
8
0
100
AcDbLine
10
-96.643873326800858
20
31.075979030506538
30
0
11
-96.453064331424301
21
32.057606213954209
31
0
0
LINE
5
1051
100
AcDbEntity
8
0
100
AcDbLine
10
-95.78523284760638
20
35.493301356021021
30
0
11
-94.999931100848286
21
35.34065415971979
31
0
0
LINE
5
1052
100
AcDbEntity
8
0
100
AcDbLine
10
-95.667762584666178
20
31.904959017652974
30
0
11
-96.453064331424301
21
32.057606213954209
31
0
0
LINE
5
1053
100
AcDbEntity
8
0
100
AcDbLine
10
-108.69143870193113
20
46.661105546898995
30
0
11
-107.90613695517303
21
46.508458350597763
31
0
0
LINE
5
1054
100
AcDbEntity
8
0
100
AcDbLine
10
-107.90613695517303
20
46.508458350597763
30
0
11
-107.7153279597965
21
47.490085534045434
31
0
0
LINE
5
1055
100
AcDbEntity
8
0
100
AcDbLine
10
-95.308210359165045
20
37.94736931464017
30
0
11
-94.831187870723696
21
40.401437273259326
31
0
0
LINE
5
1056
100
AcDbEntity
8
0
100
AcDbLine
10
-110.38665389506811
20
33.747304965778163
30
0
11
-110.19584489969156
21
34.728932149225827
31
0
0
LINE
5
1057
100
AcDbEntity
8
0
100
AcDbLine
10
-110.98114664644969
20
34.881579345527065
30
0
11
-110.19584489969156
21
34.728932149225827
31
0
0
LINE
5
1058
100
AcDbEntity
8
0
100
AcDbLine
10
-110.98114664644969
20
34.881579345527065
30
0
11
-110.19584489969156
21
34.728932149225827
31
0
0
LINE
5
1059
100
AcDbEntity
8
0
100
AcDbLine
10
-109.35927018574907
20
43.225410404832175
30
0
11
-108.69143870193113
21
46.661105546898995
31
0
0
LINE
5
1060
100
AcDbEntity
8
0
100
AcDbLine
10
-95.667762584666178
20
31.904959017652974
30
0
11
-96.453064331424301
21
32.057606213954209
31
0
0
LINE
5
1061
100
AcDbEntity
8
0
100
AcDbLine
10
-96.453064331424301
20
32.057606213954209
30
0
11
-96.643873326800858
21
31.075979030506538
31
0
0
LINE
5
1062
100
AcDbEntity
8
0
100
AcDbLine
10
-109.0509909274323
20
40.618695249911795
30
0
11
-109.52801341587366
21
38.164627291292639
31
0
0
LINE
5
1063
100
AcDbEntity
8
0
100
AcDbLine
10
-94.831187870723696
20
40.401437273259326
30
0
11
-94.045886123965573
21
40.248790076958088
31
0
0
LINE
5
1064
100
AcDbEntity
8
0
100
AcDbLine
10
-93.972547391529247
20
44.818759598773809
30
0
11
-94.163356386905775
21
43.837132415326138
31
0
0
LINE
5
1065
100
AcDbEntity
8
0
100
AcDbLine
10
-109.0509909274323
20
40.618695249911795
30
0
11
-108.57396843899095
21
43.072763208530944
31
0
0
LINE
5
1066
100
AcDbEntity
8
0
100
AcDbLine
10
-93.972547391529247
20
44.818759598773809
30
0
11
-94.163356386905775
21
43.837132415326138
31
0
0
LINE
5
1067
100
AcDbEntity
8
0
100
AcDbLine
10
-108.69143870193113
20
46.661105546898995
30
0
11
-107.90613695517303
21
46.508458350597763
31
0
0
LINE
5
1068
100
AcDbEntity
8
0
100
AcDbLine
10
-110.38665389506811
20
33.747304965778163
30
0
11
-110.19584489969156
21
34.728932149225827
31
0
0
LINE
5
1069
100
AcDbEntity
8
0
100
AcDbLine
10
-94.163356386905775
20
43.837132415326138
30
0
11
-93.972547391529247
21
44.818759598773809
31
0
0
LINE
5
1070
100
AcDbEntity
8
0
100
AcDbLine
10
-93.972547391529247
20
44.818759598773809
30
0
11
-100.84393767566286
21
46.154422566409615
31
0
0
LINE
5
1071
100
AcDbEntity
8
0
100
AcDbLine
10
-94.045886123965573
20
40.248790076958088
30
0
11
-93.378054640147653
21
43.6844852190249
31
0
0
LINE
5
1072
100
AcDbEntity
8
0
100
AcDbLine
10
-94.163356386905775
20
43.837132415326138
30
0
11
-93.972547391529247
21
44.818759598773809
31
0
0
LINE
5
1073
100
AcDbEntity
8
0
100
AcDbLine
10
-95.308210359165045
20
37.94736931464017
30
0
11
-95.78523284760638
21
35.493301356021021
31
0
0
LINE
5
1074
100
AcDbEntity
8
0
100
AcDbLine
10
-108.57396843899095
20
43.072763208530944
30
0
11
-109.35927018574907
21
43.225410404832175
31
0
0
LINE
5
1075
100
AcDbEntity
8
0
100
AcDbLine
10
-109.35927018574907
20
43.225410404832175
30
0
11
-108.69143870193113
21
46.661105546898995
31
0
0
LINE
5
1076
100
AcDbEntity
8
0
100
AcDbLine
10
-109.52801341587366
20
38.164627291292639
30
0
11
-110.31331516263178
21
38.317274487593878
31
0
0
LINE
5
1077
100
AcDbEntity
8
0
100
AcDbLine
10
-110.38665389506811
20
33.747304965778163
30
0
11
-103.51526361093448
21
32.41164199814235
31
0
0
LINE
5
1078
100
AcDbEntity
8
0
100
AcDbLine
10
-107.90613695517303
20
46.508458350597763
30
0
11
-107.7153279597965
21
47.490085534045434
31
0
0
LINE
5
1079
100
AcDbEntity
8
0
100
AcDbLine
10
-94.831187870723696
20
40.401437273259326
30
0
11
-94.045886123965573
21
40.248790076958088
31
0
0
LINE
5
1080
100
AcDbEntity
8
0
100
AcDbLine
10
-29.085721552554375
20
-44.5
30
0
11
-29.085721552554375
21
-48
31
0
0
LINE
5
1081
100
AcDbEntity
8
0
100
AcDbLine
10
-44.685721552554377
20
-44.5
30
0
11
-44.685721552554377
21
-48
31
0
0
LINE
5
1082
100
AcDbEntity
8
0
100
AcDbLine
10
-29.085721552554375
20
-44.5
30
0
11
-29.085721552554375
21
-48
31
0
0
LINE
5
1083
100
AcDbEntity
8
0
100
AcDbLine
10
-44.685721552554377
20
-44.5
30
0
11
-44.685721552554377
21
-48
31
0
0
LINE
5
1084
100
AcDbEntity
8
0
100
AcDbLine
10
-43.885721552554379
20
-35
30
0
11
-36.885721552554372
21
-35
31
0
0
LINE
5
1085
100
AcDbEntity
8
0
100
AcDbLine
10
-29.885721552554372
20
-44.5
30
0
11
-29.085721552554375
21
-44.5
31
0
0
LINE
5
1086
100
AcDbEntity
8
0
100
AcDbLine
10
-43.885721552554379
20
-48
30
0
11
-43.885721552554379
21
-49
31
0
0
LINE
5
1087
100
AcDbEntity
8
0
100
AcDbLine
10
-29.885721552554372
20
-49
30
0
11
-36.885721552554372
21
-49
31
0
0
LINE
5
1088
100
AcDbEntity
8
0
100
AcDbLine
10
-43.885721552554379
20
-35
30
0
11
-43.885721552554379
21
-36.000000000000007
31
0
0
LINE
5
1089
100
AcDbEntity
8
0
100
AcDbLine
10
-29.085721552554375
20
-39.5
30
0
11
-29.085721552554375
21
-36.000000000000007
31
0
0
LINE
5
1090
100
AcDbEntity
8
0
100
AcDbLine
10
-43.885721552554379
20
-49
30
0
11
-36.885721552554372
21
-49
31
0
0
LINE
5
1091
100
AcDbEntity
8
0
100
AcDbLine
10
-43.885721552554379
20
-42
30
0
11
-43.885721552554379
21
-44.5
31
0
0
LINE
5
1092
100
AcDbEntity
8
0
100
AcDbLine
10
-29.885721552554372
20
-42
30
0
11
-29.885721552554372
21
-44.5
31
0
0
LINE
5
1093
100
AcDbEntity
8
0
100
AcDbLine
10
-29.085721552554375
20
-36.000000000000007
30
0
11
-29.885721552554372
21
-36.000000000000007
31
0
0
LINE
5
1094
100
AcDbEntity
8
0
100
AcDbLine
10
-43.885721552554379
20
-35
30
0
11
-43.885721552554379
21
-36.000000000000007
31
0
0
LINE
5
1095
100
AcDbEntity
8
0
100
AcDbLine
10
-29.085721552554375
20
-36.000000000000007
30
0
11
-29.885721552554372
21
-36.000000000000007
31
0
0
LINE
5
1096
100
AcDbEntity
8
0
100
AcDbLine
10
-29.885721552554372
20
-35
30
0
11
-36.885721552554372
21
-35
31
0
0
LINE
5
1097
100
AcDbEntity
8
0
100
AcDbLine
10
-29.885721552554372
20
-49
30
0
11
-29.885721552554372
21
-48
31
0
0
LINE
5
1098
100
AcDbEntity
8
0
100
AcDbLine
10
-43.885721552554379
20
-44.5
30
0
11
-44.685721552554377
21
-44.5
31
0
0
LINE
5
1099
100
AcDbEntity
8
0
100
AcDbLine
10
-43.885721552554379
20
-42
30
0
11
-43.885721552554379
21
-39.5
31
0
0
LINE
5
1100
100
AcDbEntity
8
0
100
AcDbLine
10
-29.885721552554372
20
-49
30
0
11
-36.885721552554372
21
-49
31
0
0
LINE
5
1101
100
AcDbEntity
8
0
100
AcDbLine
10
-43.885721552554379
20
-48
30
0
11
-43.885721552554379
21
-49
31
0
0
LINE
5
1102
100
AcDbEntity
8
0
100
AcDbLine
10
-29.885721552554372
20
-48
30
0
11
-29.885721552554372
21
-49
31
0
0
LINE
5
1103
100
AcDbEntity
8
0
100
AcDbLine
10
-29.885721552554372
20
-42
30
0
11
-29.885721552554372
21
-39.5
31
0
0
LINE
5
1104
100
AcDbEntity
8
0
100
AcDbLine
10
-43.885721552554379
20
-35
30
0
11
-36.885721552554372
21
-35
31
0
0
LINE
5
1105
100
AcDbEntity
8
0
100
AcDbLine
10
-43.885721552554379
20
-39.5
30
0
11
-44.685721552554377
21
-39.5
31
0
0
LINE
5
1106
100
AcDbEntity
8
0
100
AcDbLine
10
-29.885721552554372
20
-49
30
0
11
-29.885721552554372
21
-48
31
0
0
LINE
5
1107
100
AcDbEntity
8
0
100
AcDbLine
10
-29.885721552554372
20
-44.5
30
0
11
-29.085721552554375
21
-44.5
31
0
0
LINE
5
1108
100
AcDbEntity
8
0
100
AcDbLine
10
-29.085721552554375
20
-48
30
0
11
-29.885721552554372
21
-48
31
0
0
LINE
5
1109
100
AcDbEntity
8
0
100
AcDbLine
10
-44.685721552554377
20
-36.000000000000007
30
0
11
-43.885721552554379
21
-36.000000000000007
31
0
0
LINE
5
1110
100
AcDbEntity
8
0
100
AcDbLine
10
-43.885721552554379
20
-36.000000000000007
30
0
11
-43.885721552554379
21
-35
31
0
0
LINE
5
1111
100
AcDbEntity
8
0
100
AcDbLine
10
-29.885721552554372
20
-42
30
0
11
-29.885721552554372
21
-39.5
31
0
0
LINE
5
1112
100
AcDbEntity
8
0
100
AcDbLine
10
-43.885721552554379
20
-49
30
0
11
-43.885721552554379
21
-48
31
0
0
LINE
5
1113
100
AcDbEntity
8
0
100
AcDbLine
10
-44.685721552554377
20
-48
30
0
11
-43.885721552554379
21
-48
31
0
0
LINE
5
1114
100
AcDbEntity
8
0
100
AcDbLine
10
-44.685721552554377
20
-48
30
0
11
-43.885721552554379
21
-48
31
0
0
LINE
5
1115
100
AcDbEntity
8
0
100
AcDbLine
10
-44.685721552554377
20
-39.5
30
0
11
-44.685721552554377
21
-36.000000000000007
31
0
0
LINE
5
1116
100
AcDbEntity
8
0
100
AcDbLine
10
-29.085721552554375
20
-48
30
0
11
-29.885721552554372
21
-48
31
0
0
LINE
5
1117
100
AcDbEntity
8
0
100
AcDbLine
10
-29.885721552554372
20
-48
30
0
11
-29.885721552554372
21
-49
31
0
0
LINE
5
1118
100
AcDbEntity
8
0
100
AcDbLine
10
-43.885721552554379
20
-42
30
0
11
-43.885721552554379
21
-44.5
31
0
0
LINE
5
1119
100
AcDbEntity
8
0
100
AcDbLine
10
-29.885721552554372
20
-39.5
30
0
11
-29.085721552554375
21
-39.5
31
0
0
LINE
5
1120
100
AcDbEntity
8
0
100
AcDbLine
10
-29.885721552554372
20
-35
30
0
11
-29.885721552554372
21
-36.000000000000007
31
0
0
LINE
5
1121
100
AcDbEntity
8
0
100
AcDbLine
10
-43.885721552554379
20
-42
30
0
11
-43.885721552554379
21
-39.5
31
0
0
LINE
5
1122
100
AcDbEntity
8
0
100
AcDbLine
10
-29.885721552554372
20
-35
30
0
11
-29.885721552554372
21
-36.000000000000007
31
0
0
LINE
5
1123
100
AcDbEntity
8
0
100
AcDbLine
10
-44.685721552554377
20
-36.000000000000007
30
0
11
-43.885721552554379
21
-36.000000000000007
31
0
0
LINE
5
1124
100
AcDbEntity
8
0
100
AcDbLine
10
-43.885721552554379
20
-49
30
0
11
-43.885721552554379
21
-48
31
0
0
LINE
5
1125
100
AcDbEntity
8
0
100
AcDbLine
10
-29.885721552554372
20
-36.000000000000007
30
0
11
-29.885721552554372
21
-35
31
0
0
LINE
5
1126
100
AcDbEntity
8
0
100
AcDbLine
10
-29.885721552554372
20
-35
30
0
11
-36.885721552554372
21
-35
31
0
0
LINE
5
1127
100
AcDbEntity
8
0
100
AcDbLine
10
-29.085721552554375
20
-39.5
30
0
11
-29.085721552554375
21
-36.000000000000007
31
0
0
LINE
5
1128
100
AcDbEntity
8
0
100
AcDbLine
10
-29.885721552554372
20
-36.000000000000007
30
0
11
-29.885721552554372
21
-35
31
0
0
LINE
5
1129
100
AcDbEntity
8
0
100
AcDbLine
10
-29.885721552554372
20
-42
30
0
11
-29.885721552554372
21
-44.5
31
0
0
LINE
5
1130
100
AcDbEntity
8
0
100
AcDbLine
10
-43.885721552554379
20
-39.5
30
0
11
-44.685721552554377
21
-39.5
31
0
0
LINE
5
1131
100
AcDbEntity
8
0
100
AcDbLine
10
-44.685721552554377
20
-39.5
30
0
11
-44.685721552554377
21
-36.000000000000007
31
0
0
LINE
5
1132
100
AcDbEntity
8
0
100
AcDbLine
10
-43.885721552554379
20
-44.5
30
0
11
-44.685721552554377
21
-44.5
31
0
0
LINE
5
1133
100
AcDbEntity
8
0
100
AcDbLine
10
-43.885721552554379
20
-49
30
0
11
-36.885721552554372
21
-49
31
0
0
LINE
5
1134
100
AcDbEntity
8
0
100
AcDbLine
10
-43.885721552554379
20
-36.000000000000007
30
0
11
-43.885721552554379
21
-35
31
0
0
LINE
5
1135
100
AcDbEntity
8
0
100
AcDbLine
10
-29.885721552554372
20
-39.5
30
0
11
-29.085721552554375
21
-39.5
31
0
0
LINE
5
1136
100
AcDbEntity
8
0
100
AcDbLine
10
-48.607029678405013
20
-47.398637919923317
30
0
11
-48.729177916863762
21
-50.896505814490148
31
0
0
LINE
5
1137
100
AcDbEntity
8
0
100
AcDbLine
10
-64.197526579902913
20
-46.854205771364299
30
0
11
-64.319674818361662
21
-50.35207366593113
31
0
0
LINE
5
1138
100
AcDbEntity
8
0
100
AcDbLine
10
-48.607029678405013
20
-47.398637919923317
30
0
11
-48.729177916863762
21
-50.896505814490148
31
0
0
LINE
5
1139
100
AcDbEntity
8
0
100
AcDbLine
10
-64.197526579902913
20
-46.854205771364299
30
0
11
-64.319674818361662
21
-50.35207366593113
31
0
0
LINE
5
1140
100
AcDbEntity
8
0
100
AcDbLine
10
-63.066468699613871
20
-37.387912512044892
30
0
11
-56.070732910480189
21
-37.632208988962397
31
0
0
LINE
5
1141
100
AcDbEntity
8
0
100
AcDbLine
10
-49.40654234002028
20
-47.370718322561309
30
0
11
-48.607029678405013
21
-47.398637919923317
31
0
0
LINE
5
1142
100
AcDbEntity
8
0
100
AcDbLine
10
-63.520162156746387
20
-50.37999326329313
30
0
11
-63.555061653448888
21
-51.379384090312229
31
0
0
LINE
5
1143
100
AcDbEntity
8
0
100
AcDbLine
10
-49.563590075181537
20
-51.867977044147239
30
0
11
-56.559325864315213
21
-51.623680567229741
31
0
0
LINE
5
1144
100
AcDbEntity
8
0
100
AcDbLine
10
-63.066468699613871
20
-37.387912512044892
30
0
11
-63.101368196316372
21
-38.38730333906399
31
0
0
LINE
5
1145
100
AcDbEntity
8
0
100
AcDbLine
10
-48.432532194892502
20
-42.401683784827846
30
0
11
-48.310383956433753
21
-38.903815890261001
31
0
0
LINE
5
1146
100
AcDbEntity
8
0
100
AcDbLine
10
-63.555061653448888
20
-51.379384090312229
30
0
11
-56.559325864315213
21
-51.623680567229741
31
0
0
LINE
5
1147
100
AcDbEntity
8
0
100
AcDbLine
10
-63.310765176531383
20
-44.38364830117856
30
0
11
-63.398013918287639
21
-46.8821253687263
31
0
0
LINE
5
1148
100
AcDbEntity
8
0
100
AcDbLine
10
-49.319293598264025
20
-44.872241255013577
30
0
11
-49.40654234002028
21
-47.370718322561309
31
0
0
LINE
5
1149
100
AcDbEntity
8
0
100
AcDbLine
10
-48.310383956433753
20
-38.903815890261001
30
0
11
-49.109896618049021
21
-38.875896292899
31
0
0
LINE
5
1150
100
AcDbEntity
8
0
100
AcDbLine
10
-63.066468699613871
20
-37.387912512044892
30
0
11
-63.101368196316372
21
-38.38730333906399
31
0
0
LINE
5
1151
100
AcDbEntity
8
0
100
AcDbLine
10
-48.310383956433753
20
-38.903815890261001
30
0
11
-49.109896618049021
21
-38.875896292899
31
0
0
LINE
5
1152
100
AcDbEntity
8
0
100
AcDbLine
10
-49.07499712134652
20
-37.876505465879902
30
0
11
-56.070732910480189
21
-37.632208988962397
31
0
0
LINE
5
1153
100
AcDbEntity
8
0
100
AcDbLine
10
-49.563590075181537
20
-51.867977044147239
30
0
11
-49.528690578479029
21
-50.86858621712814
31
0
0
LINE
5
1154
100
AcDbEntity
8
0
100
AcDbLine
10
-63.398013918287639
20
-46.8821253687263
30
0
11
-64.197526579902913
21
-46.854205771364299
31
0
0
LINE
5
1155
100
AcDbEntity
8
0
100
AcDbLine
10
-63.310765176531383
20
-44.38364830117856
30
0
11
-63.223516434775121
21
-41.885171233630828
31
0
0
LINE
5
1156
100
AcDbEntity
8
0
100
AcDbLine
10
-49.563590075181537
20
-51.867977044147239
30
0
11
-56.559325864315213
21
-51.623680567229741
31
0
0
LINE
5
1157
100
AcDbEntity
8
0
100
AcDbLine
10
-63.520162156746387
20
-50.37999326329313
30
0
11
-63.555061653448888
21
-51.379384090312229
31
0
0
LINE
5
1158
100
AcDbEntity
8
0
100
AcDbLine
10
-49.528690578479029
20
-50.86858621712814
30
0
11
-49.563590075181537
21
-51.867977044147239
31
0
0
LINE
5
1159
100
AcDbEntity
8
0
100
AcDbLine
10
-49.319293598264025
20
-44.872241255013577
30
0
11
-49.232044856507777
21
-42.373764187465838
31
0
0
LINE
5
1160
100
AcDbEntity
8
0
100
AcDbLine
10
-63.066468699613871
20
-37.387912512044892
30
0
11
-56.070732910480189
21
-37.632208988962397
31
0
0
LINE
5
1161
100
AcDbEntity
8
0
100
AcDbLine
10
-63.223516434775121
20
-41.885171233630828
30
0
11
-64.023029096390403
21
-41.857251636268828
31
0
0
LINE
5
1162
100
AcDbEntity
8
0
100
AcDbLine
10
-49.563590075181537
20
-51.867977044147239
30
0
11
-49.528690578479029
21
-50.86858621712814
31
0
0
LINE
5
1163
100
AcDbEntity
8
0
100
AcDbLine
10
-49.40654234002028
20
-47.370718322561309
30
0
11
-48.607029678405013
21
-47.398637919923317
31
0
0
LINE
5
1164
100
AcDbEntity
8
0
100
AcDbLine
10
-48.729177916863762
20
-50.896505814490148
30
0
11
-49.528690578479029
21
-50.86858621712814
31
0
0
LINE
5
1165
100
AcDbEntity
8
0
100
AcDbLine
10
-63.900880857931654
20
-38.35938374170199
30
0
11
-63.101368196316372
21
-38.38730333906399
31
0
0
LINE
5
1166
100
AcDbEntity
8
0
100
AcDbLine
10
-63.101368196316372
20
-38.38730333906399
30
0
11
-63.066468699613871
21
-37.387912512044892
31
0
0
LINE
5
1167
100
AcDbEntity
8
0
100
AcDbLine
10
-49.319293598264025
20
-44.872241255013577
30
0
11
-49.232044856507777
21
-42.373764187465838
31
0
0
LINE
5
1168
100
AcDbEntity
8
0
100
AcDbLine
10
-63.555061653448888
20
-51.379384090312229
30
0
11
-63.520162156746387
21
-50.37999326329313
31
0
0
LINE
5
1169
100
AcDbEntity
8
0
100
AcDbLine
10
-64.319674818361662
20
-50.35207366593113
30
0
11
-63.520162156746387
21
-50.37999326329313
31
0
0
LINE
5
1170
100
AcDbEntity
8
0
100
AcDbLine
10
-64.319674818361662
20
-50.35207366593113
30
0
11
-63.520162156746387
21
-50.37999326329313
31
0
0
LINE
5
1171
100
AcDbEntity
8
0
100
AcDbLine
10
-64.023029096390403
20
-41.857251636268828
30
0
11
-63.900880857931654
21
-38.35938374170199
31
0
0
LINE
5
1172
100
AcDbEntity
8
0
100
AcDbLine
10
-48.729177916863762
20
-50.896505814490148
30
0
11
-49.528690578479029
21
-50.86858621712814
31
0
0
LINE
5
1173
100
AcDbEntity
8
0
100
AcDbLine
10
-49.528690578479029
20
-50.86858621712814
30
0
11
-49.563590075181537
21
-51.867977044147239
31
0
0
LINE
5
1174
100
AcDbEntity
8
0
100
AcDbLine
10
-63.310765176531383
20
-44.38364830117856
30
0
11
-63.398013918287639
21
-46.8821253687263
31
0
0
LINE
5
1175
100
AcDbEntity
8
0
100
AcDbLine
10
-49.232044856507777
20
-42.373764187465838
30
0
11
-48.432532194892502
21
-42.401683784827846
31
0
0
LINE
5
1176
100
AcDbEntity
8
0
100
AcDbLine
10
-49.07499712134652
20
-37.876505465879902
30
0
11
-49.109896618049021
21
-38.875896292899
31
0
0
LINE
5
1177
100
AcDbEntity
8
0
100
AcDbLine
10
-63.310765176531383
20
-44.38364830117856
30
0
11
-63.223516434775121
21
-41.885171233630828
31
0
0
LINE
5
1178
100
AcDbEntity
8
0
100
AcDbLine
10
-49.07499712134652
20
-37.876505465879902
30
0
11
-49.109896618049021
21
-38.875896292899
31
0
0
LINE
5
1179
100
AcDbEntity
8
0
100
AcDbLine
10
-63.900880857931654
20
-38.35938374170199
30
0
11
-63.101368196316372
21
-38.38730333906399
31
0
0
LINE
5
1180
100
AcDbEntity
8
0
100
AcDbLine
10
-63.555061653448888
20
-51.379384090312229
30
0
11
-63.520162156746387
21
-50.37999326329313
31
0
0
LINE
5
1181
100
AcDbEntity
8
0
100
AcDbLine
10
-49.109896618049021
20
-38.875896292899
30
0
11
-49.07499712134652
21
-37.876505465879902
31
0
0
LINE
5
1182
100
AcDbEntity
8
0
100
AcDbLine
10
-49.07499712134652
20
-37.876505465879902
30
0
11
-56.070732910480189
21
-37.632208988962397
31
0
0
LINE
5
1183
100
AcDbEntity
8
0
100
AcDbLine
10
-48.432532194892502
20
-42.401683784827846
30
0
11
-48.310383956433753
21
-38.903815890261001
31
0
0
LINE
5
1184
100
AcDbEntity
8
0
100
AcDbLine
10
-49.109896618049021
20
-38.875896292899
30
0
11
-49.07499712134652
21
-37.876505465879902
31
0
0
LINE
5
1185
100
AcDbEntity
8
0
100
AcDbLine
10
-49.319293598264025
20
-44.872241255013577
30
0
11
-49.40654234002028
21
-47.370718322561309
31
0
0
LINE
5
1186
100
AcDbEntity
8
0
100
AcDbLine
10
-63.223516434775121
20
-41.885171233630828
30
0
11
-64.023029096390403
21
-41.857251636268828
31
0
0
LINE
5
1187
100
AcDbEntity
8
0
100
AcDbLine
10
-64.023029096390403
20
-41.857251636268828
30
0
11
-63.900880857931654
21
-38.35938374170199
31
0
0
LINE
5
1188
100
AcDbEntity
8
0
100
AcDbLine
10
-63.398013918287639
20
-46.8821253687263
30
0
11
-64.197526579902913
21
-46.854205771364299
31
0
0
LINE
5
1189
100
AcDbEntity
8
0
100
AcDbLine
10
-63.555061653448888
20
-51.379384090312229
30
0
11
-56.559325864315213
21
-51.623680567229741
31
0
0
LINE
5
1190
100
AcDbEntity
8
0
100
AcDbLine
10
-63.101368196316372
20
-38.38730333906399
30
0
11
-63.066468699613871
21
-37.387912512044892
31
0
0
LINE
5
1191
100
AcDbEntity
8
0
100
AcDbLine
10
-49.232044856507777
20
-42.373764187465838
30
0
11
-48.432532194892502
21
-42.401683784827846
31
0
0
LINE
5
1192
100
AcDbEntity
8
0
100
AcDbLine
10
-70.102179777256652
20
-49.548415506272612
30
0
11
-70.34632743536109
21
-53.039889682182
31
0
0
LINE
5
1193
100
AcDbEntity
8
0
100
AcDbLine
10
-85.664178961309929
20
-48.460214515864251
30
0
11
-85.908326619414353
21
-51.951688691773647
31
0
0
LINE
5
1194
100
AcDbEntity
8
0
100
AcDbLine
10
-70.102179777256652
20
-49.548415506272612
30
0
11
-70.34632743536109
21
-53.039889682182
31
0
0
LINE
5
1195
100
AcDbEntity
8
0
100
AcDbLine
10
-85.664178961309929
20
-48.460214515864251
30
0
11
-85.908326619414353
21
-51.951688691773647
31
0
0
LINE
5
1196
100
AcDbEntity
8
0
100
AcDbLine
10
-84.203441220532852
20
-39.039161217391225
30
0
11
-77.220492868714089
21
-39.527456533600102
31
0
0
LINE
5
1197
100
AcDbEntity
8
0
100
AcDbLine
10
-70.900231017464506
20
-49.492610327277305
30
0
11
-70.102179777256652
21
-49.548415506272612
31
0
0
LINE
5
1198
100
AcDbEntity
8
0
100
AcDbLine
10
-85.11027537920647
20
-52.00749387076894
30
0
11
-85.180031852950606
21
-53.005057921028758
31
0
0
LINE
5
1199
100
AcDbEntity
8
0
100
AcDbLine
10
-71.214135149313066
20
-53.981648553446519
30
0
11
-78.197083501131857
21
-53.493353237237642
31
0
0
LINE
5
1200
100
AcDbEntity
8
0
100
AcDbLine
10
-84.203441220532852
20
-39.039161217391225
30
0
11
-84.273197694276973
21
-40.036725267651043
31
0
0
LINE
5
1201
100
AcDbEntity
8
0
100
AcDbLine
10
-69.753397408536017
20
-44.560595254973485
30
0
11
-69.509249750431579
21
-41.069121079064097
31
0
0
LINE
5
1202
100
AcDbEntity
8
0
100
AcDbLine
10
-85.180031852950606
20
-53.005057921028758
30
0
11
-78.197083501131857
21
-53.493353237237642
31
0
0
LINE
5
1203
100
AcDbEntity
8
0
100
AcDbLine
10
-84.691736536741729
20
-46.022109569209988
30
0
11
-84.866127721102046
21
-48.516019694859551
31
0
0
LINE
5
1204
100
AcDbEntity
8
0
100
AcDbLine
10
-70.725839833104203
20
-46.998700201627742
30
0
11
-70.900231017464506
21
-49.492610327277305
31
0
0
LINE
5
1205
100
AcDbEntity
8
0
100
AcDbLine
10
-69.509249750431579
20
-41.069121079064097
30
0
11
-70.307300990639433
21
-41.013315900068797
31
0
0
LINE
5
1206
100
AcDbEntity
8
0
100
AcDbLine
10
-84.203441220532852
20
-39.039161217391225
30
0
11
-84.273197694276973
21
-40.036725267651043
31
0
0
LINE
5
1207
100
AcDbEntity
8
0
100
AcDbLine
10
-69.509249750431579
20
-41.069121079064097
30
0
11
-70.307300990639433
21
-41.013315900068797
31
0
0
LINE
5
1208
100
AcDbEntity
8
0
100
AcDbLine
10
-70.237544516895312
20
-40.015751849808971
30
0
11
-77.220492868714089
21
-39.527456533600102
31
0
0
LINE
5
1209
100
AcDbEntity
8
0
100
AcDbLine
10
-71.214135149313066
20
-53.981648553446519
30
0
11
-71.144378675568944
21
-52.984084503186693
31
0
0
LINE
5
1210
100
AcDbEntity
8
0
100
AcDbLine
10
-84.866127721102046
20
-48.516019694859551
30
0
11
-85.664178961309929
21
-48.460214515864251
31
0
0
LINE
5
1211
100
AcDbEntity
8
0
100
AcDbLine
10
-84.691736536741729
20
-46.022109569209988
30
0
11
-84.517345352381426
21
-43.528199443560432
31
0
0
LINE
5
1212
100
AcDbEntity
8
0
100
AcDbLine
10
-71.214135149313066
20
-53.981648553446519
30
0
11
-78.197083501131857
21
-53.493353237237642
31
0
0
LINE
5
1213
100
AcDbEntity
8
0
100
AcDbLine
10
-85.11027537920647
20
-52.00749387076894
30
0
11
-85.180031852950606
21
-53.005057921028758
31
0
0
LINE
5
1214
100
AcDbEntity
8
0
100
AcDbLine
10
-71.144378675568944
20
-52.984084503186693
30
0
11
-71.214135149313066
21
-53.981648553446519
31
0
0
LINE
5
1215
100
AcDbEntity
8
0
100
AcDbLine
10
-70.725839833104203
20
-46.998700201627742
30
0
11
-70.551448648743886
21
-44.504790075978192
31
0
0
LINE
5
1216
100
AcDbEntity
8
0
100
AcDbLine
10
-84.203441220532852
20
-39.039161217391225
30
0
11
-77.220492868714089
21
-39.527456533600102
31
0
0
LINE
5
1217
100
AcDbEntity
8
0
100
AcDbLine
10
-84.517345352381426
20
-43.528199443560432
30
0
11
-85.315396592589281
21
-43.472394264565125
31
0
0
LINE
5
1218
100
AcDbEntity
8
0
100
AcDbLine
10
-71.214135149313066
20
-53.981648553446519
30
0
11
-71.144378675568944
21
-52.984084503186693
31
0
0
LINE
5
1219
100
AcDbEntity
8
0
100
AcDbLine
10
-70.900231017464506
20
-49.492610327277305
30
0
11
-70.102179777256652
21
-49.548415506272612
31
0
0
LINE
5
1220
100
AcDbEntity
8
0
100
AcDbLine
10
-70.34632743536109
20
-53.039889682182
30
0
11
-71.144378675568944
21
-52.984084503186693
31
0
0
LINE
5
1221
100
AcDbEntity
8
0
100
AcDbLine
10
-85.071248934484842
20
-39.980920088655751
30
0
11
-84.273197694276973
21
-40.036725267651043
31
0
0
LINE
5
1222
100
AcDbEntity
8
0
100
AcDbLine
10
-84.273197694276973
20
-40.036725267651043
30
0
11
-84.203441220532852
21
-39.039161217391225
31
0
0
LINE
5
1223
100
AcDbEntity
8
0
100
AcDbLine
10
-70.725839833104203
20
-46.998700201627742
30
0
11
-70.551448648743886
21
-44.504790075978192
31
0
0
LINE
5
1224
100
AcDbEntity
8
0
100
AcDbLine
10
-85.180031852950606
20
-53.005057921028758
30
0
11
-85.11027537920647
21
-52.00749387076894
31
0
0
LINE
5
1225
100
AcDbEntity
8
0
100
AcDbLine
10
-85.908326619414353
20
-51.951688691773647
30
0
11
-85.11027537920647
21
-52.00749387076894
31
0
0
LINE
5
1226
100
AcDbEntity
8
0
100
AcDbLine
10
-85.908326619414353
20
-51.951688691773647
30
0
11
-85.11027537920647
21
-52.00749387076894
31
0
0
LINE
5
1227
100
AcDbEntity
8
0
100
AcDbLine
10
-85.315396592589281
20
-43.472394264565125
30
0
11
-85.071248934484842
21
-39.980920088655751
31
0
0
LINE
5
1228
100
AcDbEntity
8
0
100
AcDbLine
10
-70.34632743536109
20
-53.039889682182
30
0
11
-71.144378675568944
21
-52.984084503186693
31
0
0
LINE
5
1229
100
AcDbEntity
8
0
100
AcDbLine
10
-71.144378675568944
20
-52.984084503186693
30
0
11
-71.214135149313066
21
-53.981648553446519
31
0
0
LINE
5
1230
100
AcDbEntity
8
0
100
AcDbLine
10
-84.691736536741729
20
-46.022109569209988
30
0
11
-84.866127721102046
21
-48.516019694859551
31
0
0
LINE
5
1231
100
AcDbEntity
8
0
100
AcDbLine
10
-70.551448648743886
20
-44.504790075978192
30
0
11
-69.753397408536017
21
-44.560595254973485
31
0
0
LINE
5
1232
100
AcDbEntity
8
0
100
AcDbLine
10
-70.237544516895312
20
-40.015751849808971
30
0
11
-70.307300990639433
21
-41.013315900068797
31
0
0
LINE
5
1233
100
AcDbEntity
8
0
100
AcDbLine
10
-84.691736536741729
20
-46.022109569209988
30
0
11
-84.517345352381426
21
-43.528199443560432
31
0
0
LINE
5
1234
100
AcDbEntity
8
0
100
AcDbLine
10
-70.237544516895312
20
-40.015751849808971
30
0
11
-70.307300990639433
21
-41.013315900068797
31
0
0
LINE
5
1235
100
AcDbEntity
8
0
100
AcDbLine
10
-85.071248934484842
20
-39.980920088655751
30
0
11
-84.273197694276973
21
-40.036725267651043
31
0
0
LINE
5
1236
100
AcDbEntity
8
0
100
AcDbLine
10
-85.180031852950606
20
-53.005057921028758
30
0
11
-85.11027537920647
21
-52.00749387076894
31
0
0
LINE
5
1237
100
AcDbEntity
8
0
100
AcDbLine
10
-70.307300990639433
20
-41.013315900068797
30
0
11
-70.237544516895312
21
-40.015751849808971
31
0
0
LINE
5
1238
100
AcDbEntity
8
0
100
AcDbLine
10
-70.237544516895312
20
-40.015751849808971
30
0
11
-77.220492868714089
21
-39.527456533600102
31
0
0
LINE
5
1239
100
AcDbEntity
8
0
100
AcDbLine
10
-69.753397408536017
20
-44.560595254973485
30
0
11
-69.509249750431579
21
-41.069121079064097
31
0
0
LINE
5
1240
100
AcDbEntity
8
0
100
AcDbLine
10
-70.307300990639433
20
-41.013315900068797
30
0
11
-70.237544516895312
21
-40.015751849808971
31
0
0
LINE
5
1241
100
AcDbEntity
8
0
100
AcDbLine
10
-70.725839833104203
20
-46.998700201627742
30
0
11
-70.900231017464506
21
-49.492610327277305
31
0
0
LINE
5
1242
100
AcDbEntity
8
0
100
AcDbLine
10
-84.517345352381426
20
-43.528199443560432
30
0
11
-85.315396592589281
21
-43.472394264565125
31
0
0
LINE
5
1243
100
AcDbEntity
8
0
100
AcDbLine
10
-85.315396592589281
20
-43.472394264565125
30
0
11
-85.071248934484842
21
-39.980920088655751
31
0
0
LINE
5
1244
100
AcDbEntity
8
0
100
AcDbLine
10
-84.866127721102046
20
-48.516019694859551
30
0
11
-85.664178961309929
21
-48.460214515864251
31
0
0
LINE
5
1245
100
AcDbEntity
8
0
100
AcDbLine
10
-85.180031852950606
20
-53.005057921028758
30
0
11
-78.197083501131857
21
-53.493353237237642
31
0
0
LINE
5
1246
100
AcDbEntity
8
0
100
AcDbLine
10
-84.273197694276973
20
-40.036725267651043
30
0
11
-84.203441220532852
21
-39.039161217391225
31
0
0
LINE
5
1247
100
AcDbEntity
8
0
100
AcDbLine
10
-70.551448648743886
20
-44.504790075978192
30
0
11
-69.753397408536017
21
-44.560595254973485
31
0
0
LINE
5
1248
100
AcDbEntity
8
0
100
AcDbLine
10
-89.886202367568501
20
-48.156331595838026
30
0
11
-90.37330822092872
21
-51.622269836433503
31
0
0
LINE
5
1249
100
AcDbEntity
8
0
100
AcDbLine
10
-105.3343842399369
20
-45.985231220860996
30
0
11
-105.82149009329713
21
-49.451169461456495
31
0
0
LINE
5
1250
100
AcDbEntity
8
0
100
AcDbLine
10
-89.886202367568501
20
-48.156331595838026
30
0
11
-90.37330822092872
21
-51.622269836433503
31
0
0
LINE
5
1251
100
AcDbEntity
8
0
100
AcDbLine
10
-105.3343842399369
20
-45.985231220860996
30
0
11
-105.82149009329713
21
-49.451169461456495
31
0
0
LINE
5
1252
100
AcDbEntity
8
0
100
AcDbLine
10
-103.22002532582306
20
-36.68902304858419
30
0
11
-96.288148844632076
21
-37.663234755304643
31
0
0
LINE
5
1253
100
AcDbEntity
8
0
100
AcDbLine
10
-90.678416822561729
20
-48.044993115069957
30
0
11
-89.886202367568501
21
-48.156331595838026
31
0
0
LINE
5
1254
100
AcDbEntity
8
0
100
AcDbLine
10
-105.0292756383039
20
-49.562507942224542
30
0
11
-105.16844873926397
21
-50.552776010966113
31
0
0
LINE
5
1255
100
AcDbEntity
8
0
100
AcDbLine
10
-91.304695776882028
20
-52.501199424407012
30
0
11
-98.236572258072982
21
-51.526987717686552
31
0
0
LINE
5
1256
100
AcDbEntity
8
0
100
AcDbLine
10
-103.22002532582306
20
-36.68902304858419
30
0
11
-103.35919842678314
21
-37.679291117325747
31
0
0
LINE
5
1257
100
AcDbEntity
8
0
100
AcDbLine
10
-89.190336862768177
20
-43.204991252130199
30
0
11
-88.703231009407958
21
-39.739053011534708
31
0
0
LINE
5
1258
100
AcDbEntity
8
0
100
AcDbLine
10
-105.16844873926397
20
-50.552776010966113
30
0
11
-98.236572258072982
21
-51.526987717686552
31
0
0
LINE
5
1259
100
AcDbEntity
8
0
100
AcDbLine
10
-104.19423703254351
20
-43.620899529775144
30
0
11
-104.54216978494367
21
-46.096569701629058
31
0
0
LINE
5
1260
100
AcDbEntity
8
0
100
AcDbLine
10
-90.33048407016156
20
-45.569322943216065
30
0
11
-90.678416822561729
21
-48.044993115069957
31
0
0
LINE
5
1261
100
AcDbEntity
8
0
100
AcDbLine
10
-88.703231009407958
20
-39.739053011534708
30
0
11
-89.495445464401172
21
-39.627714530766653
31
0
0
LINE
5
1262
100
AcDbEntity
8
0
100
AcDbLine
10
-103.22002532582306
20
-36.68902304858419
30
0
11
-103.35919842678314
21
-37.679291117325747
31
0
0
LINE
5
1263
100
AcDbEntity
8
0
100
AcDbLine
10
-88.703231009407958
20
-39.739053011534708
30
0
11
-89.495445464401172
21
-39.627714530766653
31
0
0
LINE
5
1264
100
AcDbEntity
8
0
100
AcDbLine
10
-89.356272363441107
20
-38.637446462025103
30
0
11
-96.288148844632076
21
-37.663234755304643
31
0
0
LINE
5
1265
100
AcDbEntity
8
0
100
AcDbLine
10
-91.304695776882028
20
-52.501199424407012
30
0
11
-91.165522675921963
21
-51.510931355665441
31
0
0
LINE
5
1266
100
AcDbEntity
8
0
100
AcDbLine
10
-104.54216978494367
20
-46.096569701629058
30
0
11
-105.3343842399369
21
-45.985231220860996
31
0
0
LINE
5
1267
100
AcDbEntity
8
0
100
AcDbLine
10
-104.19423703254351
20
-43.620899529775144
30
0
11
-103.84630428014334
21
-41.145229357921238
31
0
0
LINE
5
1268
100
AcDbEntity
8
0
100
AcDbLine
10
-91.304695776882028
20
-52.501199424407012
30
0
11
-98.236572258072982
21
-51.526987717686552
31
0
0
LINE
5
1269
100
AcDbEntity
8
0
100
AcDbLine
10
-105.0292756383039
20
-49.562507942224542
30
0
11
-105.16844873926397
21
-50.552776010966113
31
0
0
LINE
5
1270
100
AcDbEntity
8
0
100
AcDbLine
10
-91.165522675921963
20
-51.510931355665441
30
0
11
-91.304695776882028
21
-52.501199424407012
31
0
0
LINE
5
1271
100
AcDbEntity
8
0
100
AcDbLine
10
-90.33048407016156
20
-45.569322943216065
30
0
11
-89.982551317761406
21
-43.093652771362144
31
0
0
LINE
5
1272
100
AcDbEntity
8
0
100
AcDbLine
10
-103.22002532582306
20
-36.68902304858419
30
0
11
-96.288148844632076
21
-37.663234755304643
31
0
0
LINE
5
1273
100
AcDbEntity
8
0
100
AcDbLine
10
-103.84630428014334
20
-41.145229357921238
30
0
11
-104.63851873513659
21
-41.033890877153176
31
0
0
LINE
5
1274
100
AcDbEntity
8
0
100
AcDbLine
10
-91.304695776882028
20
-52.501199424407012
30
0
11
-91.165522675921963
21
-51.510931355665441
31
0
0
LINE
5
1275
100
AcDbEntity
8
0
100
AcDbLine
10
-90.678416822561729
20
-48.044993115069957
30
0
11
-89.886202367568501
21
-48.156331595838026
31
0
0
LINE
5
1276
100
AcDbEntity
8
0
100
AcDbLine
10
-90.37330822092872
20
-51.622269836433503
30
0
11
-91.165522675921963
21
-51.510931355665441
31
0
0
LINE
5
1277
100
AcDbEntity
8
0
100
AcDbLine
10
-104.15141288177635
20
-37.567952636557699
30
0
11
-103.35919842678314
21
-37.679291117325747
31
0
0
LINE
5
1278
100
AcDbEntity
8
0
100
AcDbLine
10
-103.35919842678314
20
-37.679291117325747
30
0
11
-103.22002532582306
21
-36.68902304858419
31
0
0
LINE
5
1279
100
AcDbEntity
8
0
100
AcDbLine
10
-90.33048407016156
20
-45.569322943216065
30
0
11
-89.982551317761406
21
-43.093652771362144
31
0
0
LINE
5
1280
100
AcDbEntity
8
0
100
AcDbLine
10
-105.16844873926397
20
-50.552776010966113
30
0
11
-105.0292756383039
21
-49.562507942224542
31
0
0
LINE
5
1281
100
AcDbEntity
8
0
100
AcDbLine
10
-105.82149009329713
20
-49.451169461456495
30
0
11
-105.0292756383039
21
-49.562507942224542
31
0
0
LINE
5
1282
100
AcDbEntity
8
0
100
AcDbLine
10
-105.82149009329713
20
-49.451169461456495
30
0
11
-105.0292756383039
21
-49.562507942224542
31
0
0
LINE
5
1283
100
AcDbEntity
8
0
100
AcDbLine
10
-104.63851873513659
20
-41.033890877153176
30
0
11
-104.15141288177635
21
-37.567952636557699
31
0
0
LINE
5
1284
100
AcDbEntity
8
0
100
AcDbLine
10
-90.37330822092872
20
-51.622269836433503
30
0
11
-91.165522675921963
21
-51.510931355665441
31
0
0
LINE
5
1285
100
AcDbEntity
8
0
100
AcDbLine
10
-91.165522675921963
20
-51.510931355665441
30
0
11
-91.304695776882028
21
-52.501199424407012
31
0
0
LINE
5
1286
100
AcDbEntity
8
0
100
AcDbLine
10
-104.19423703254351
20
-43.620899529775144
30
0
11
-104.54216978494367
21
-46.096569701629058
31
0
0
LINE
5
1287
100
AcDbEntity
8
0
100
AcDbLine
10
-89.982551317761406
20
-43.093652771362144
30
0
11
-89.190336862768177
21
-43.204991252130199
31
0
0
LINE
5
1288
100
AcDbEntity
8
0
100
AcDbLine
10
-89.356272363441107
20
-38.637446462025103
30
0
11
-89.495445464401172
21
-39.627714530766653
31
0
0
LINE
5
1289
100
AcDbEntity
8
0
100
AcDbLine
10
-104.19423703254351
20
-43.620899529775144
30
0
11
-103.84630428014334
21
-41.145229357921238
31
0
0
LINE
5
1290
100
AcDbEntity
8
0
100
AcDbLine
10
-89.356272363441107
20
-38.637446462025103
30
0
11
-89.495445464401172
21
-39.627714530766653
31
0
0
LINE
5
1291
100
AcDbEntity
8
0
100
AcDbLine
10
-104.15141288177635
20
-37.567952636557699
30
0
11
-103.35919842678314
21
-37.679291117325747
31
0
0
LINE
5
1292
100
AcDbEntity
8
0
100
AcDbLine
10
-105.16844873926397
20
-50.552776010966113
30
0
11
-105.0292756383039
21
-49.562507942224542
31
0
0
LINE
5
1293
100
AcDbEntity
8
0
100
AcDbLine
10
-89.495445464401172
20
-39.627714530766653
30
0
11
-89.356272363441107
21
-38.637446462025103
31
0
0
LINE
5
1294
100
AcDbEntity
8
0
100
AcDbLine
10
-89.356272363441107
20
-38.637446462025103
30
0
11
-96.288148844632076
21
-37.663234755304643
31
0
0
LINE
5
1295
100
AcDbEntity
8
0
100
AcDbLine
10
-89.190336862768177
20
-43.204991252130199
30
0
11
-88.703231009407958
21
-39.739053011534708
31
0
0
LINE
5
1296
100
AcDbEntity
8
0
100
AcDbLine
10
-89.495445464401172
20
-39.627714530766653
30
0
11
-89.356272363441107
21
-38.637446462025103
31
0
0
LINE
5
1297
100
AcDbEntity
8
0
100
AcDbLine
10
-90.33048407016156
20
-45.569322943216065
30
0
11
-90.678416822561729
21
-48.044993115069957
31
0
0
LINE
5
1298
100
AcDbEntity
8
0
100
AcDbLine
10
-103.84630428014334
20
-41.145229357921238
30
0
11
-104.63851873513659
21
-41.033890877153176
31
0
0
LINE
5
1299
100
AcDbEntity
8
0
100
AcDbLine
10
-104.63851873513659
20
-41.033890877153176
30
0
11
-104.15141288177635
21
-37.567952636557699
31
0
0
LINE
5
1300
100
AcDbEntity
8
0
100
AcDbLine
10
-104.54216978494367
20
-46.096569701629058
30
0
11
-105.3343842399369
21
-45.985231220860996
31
0
0
LINE
5
1301
100
AcDbEntity
8
0
100
AcDbLine
10
-105.16844873926397
20
-50.552776010966113
30
0
11
-98.236572258072982
21
-51.526987717686552
31
0
0
LINE
5
1302
100
AcDbEntity
8
0
100
AcDbLine
10
-103.35919842678314
20
-37.679291117325747
30
0
11
-103.22002532582306
21
-36.68902304858419
31
0
0
LINE
5
1303
100
AcDbEntity
8
0
100
AcDbLine
10
-89.982551317761406
20
-43.093652771362144
30
0
11
-89.190336862768177
21
-43.204991252130199
31
0
0
LINE
5
1304
100
AcDbEntity
8
0
100
AcDbLine
10
-109.34619518720645
20
-45.604889008723433
30
0
11
-110.01402667102437
21
-49.040584150790245
31
0
0
LINE
5
1305
100
AcDbEntity
8
0
100
AcDbLine
10
-124.65957924899
20
-42.628268680849345
30
0
11
-125.32741073280791
21
-46.063963822916151
31
0
0
LINE
5
1306
100
AcDbEntity
8
0
100
AcDbLine
10
-109.34619518720645
20
-45.604889008723433
30
0
11
-110.01402667102437
21
-49.040584150790245
31
0
0
LINE
5
1307
100
AcDbEntity
8
0
100
AcDbLine
10
-124.65957924899
20
-42.628268680849345
30
0
11
-125.32741073280791
21
-46.063963822916151
31
0
0
LINE
5
1308
100
AcDbEntity
8
0
100
AcDbLine
10
-122.06159204615469
20
-33.455457634397774
30
0
11
-115.19020176202106
21
-34.79112060203358
31
0
0
LINE
5
1309
100
AcDbEntity
8
0
100
AcDbLine
10
-110.13149693396458
20
-45.452241812422187
30
0
11
-109.34619518720645
21
-45.604889008723433
31
0
0
LINE
5
1310
100
AcDbEntity
8
0
100
AcDbLine
10
-124.54210898604977
20
-46.216611019217382
30
0
11
-124.73291798142633
21
-47.198238202665053
31
0
0
LINE
5
1311
100
AcDbEntity
8
0
100
AcDbLine
10
-110.99013741315903
20
-49.869564137936671
30
0
11
-117.86152769729269
21
-48.533901170300865
31
0
0
LINE
5
1312
100
AcDbEntity
8
0
100
AcDbLine
10
-122.06159204615469
20
-33.455457634397774
30
0
11
-122.25240104153124
21
-34.437084817845431
31
0
0
LINE
5
1313
100
AcDbEntity
8
0
100
AcDbLine
10
-108.39215021032373
20
-40.696753091485114
30
0
11
-107.72431872650583
21
-37.261057949418294
31
0
0
LINE
5
1314
100
AcDbEntity
8
0
100
AcDbLine
10
-124.73291798142633
20
-47.198238202665053
30
0
11
-117.86152769729269
21
-48.533901170300865
31
0
0
LINE
5
1315
100
AcDbEntity
8
0
100
AcDbLine
10
-123.3972550137905
20
-40.326847918531413
30
0
11
-123.87427750223188
21
-42.780915877150569
31
0
0
LINE
5
1316
100
AcDbEntity
8
0
100
AcDbLine
10
-109.65447444552322
20
-42.998173853803024
30
0
11
-110.13149693396458
21
-45.452241812422187
31
0
0
LINE
5
1317
100
AcDbEntity
8
0
100
AcDbLine
10
-107.72431872650583
20
-37.261057949418294
30
0
11
-108.50962047326396
21
-37.108410753117063
31
0
0
LINE
5
1318
100
AcDbEntity
8
0
100
AcDbLine
10
-122.06159204615469
20
-33.455457634397774
30
0
11
-122.25240104153124
21
-34.437084817845431
31
0
0
LINE
5
1319
100
AcDbEntity
8
0
100
AcDbLine
10
-107.72431872650583
20
-37.261057949418294
30
0
11
-108.50962047326396
21
-37.108410753117063
31
0
0
LINE
5
1320
100
AcDbEntity
8
0
100
AcDbLine
10
-108.31881147788742
20
-36.126783569669399
30
0
11
-115.19020176202106
21
-34.79112060203358
31
0
0
LINE
5
1321
100
AcDbEntity
8
0
100
AcDbLine
10
-110.99013741315903
20
-49.869564137936671
30
0
11
-110.79932841778248
21
-48.887936954489021
31
0
0
LINE
5
1322
100
AcDbEntity
8
0
100
AcDbLine
10
-123.87427750223188
20
-42.780915877150569
30
0
11
-124.65957924899
21
-42.628268680849345
31
0
0
LINE
5
1323
100
AcDbEntity
8
0
100
AcDbLine
10
-123.3972550137905
20
-40.326847918531413
30
0
11
-122.92023252534915
21
-37.872779959912258
31
0
0
LINE
5
1324
100
AcDbEntity
8
0
100
AcDbLine
10
-110.99013741315903
20
-49.869564137936671
30
0
11
-117.86152769729269
21
-48.533901170300865
31
0
0
LINE
5
1325
100
AcDbEntity
8
0
100
AcDbLine
10
-124.54210898604977
20
-46.216611019217382
30
0
11
-124.73291798142633
21
-47.198238202665053
31
0
0
LINE
5
1326
100
AcDbEntity
8
0
100
AcDbLine
10
-110.79932841778248
20
-48.887936954489021
30
0
11
-110.99013741315903
21
-49.869564137936671
31
0
0
LINE
5
1327
100
AcDbEntity
8
0
100
AcDbLine
10
-109.65447444552322
20
-42.998173853803024
30
0
11
-109.17745195708186
21
-40.54410589518389
31
0
0
LINE
5
1328
100
AcDbEntity
8
0
100
AcDbLine
10
-122.06159204615469
20
-33.455457634397774
30
0
11
-115.19020176202106
21
-34.79112060203358
31
0
0
LINE
5
1329
100
AcDbEntity
8
0
100
AcDbLine
10
-122.92023252534915
20
-37.872779959912258
30
0
11
-123.70553427210726
21
-37.720132763611026
31
0
0
LINE
5
1330
100
AcDbEntity
8
0
100
AcDbLine
10
-110.99013741315903
20
-49.869564137936671
30
0
11
-110.79932841778248
21
-48.887936954489021
31
0
0
LINE
5
1331
100
AcDbEntity
8
0
100
AcDbLine
10
-110.13149693396458
20
-45.452241812422187
30
0
11
-109.34619518720645
21
-45.604889008723433
31
0
0
LINE
5
1332
100
AcDbEntity
8
0
100
AcDbLine
10
-110.01402667102437
20
-49.040584150790245
30
0
11
-110.79932841778248
21
-48.887936954489021
31
0
0
LINE
5
1333
100
AcDbEntity
8
0
100
AcDbLine
10
-123.03770278828937
20
-34.284437621544207
30
0
11
-122.25240104153124
21
-34.437084817845431
31
0
0
LINE
5
1334
100
AcDbEntity
8
0
100
AcDbLine
10
-122.25240104153124
20
-34.437084817845431
30
0
11
-122.06159204615469
21
-33.455457634397774
31
0
0
LINE
5
1335
100
AcDbEntity
8
0
100
AcDbLine
10
-109.65447444552322
20
-42.998173853803024
30
0
11
-109.17745195708186
21
-40.54410589518389
31
0
0
LINE
5
1336
100
AcDbEntity
8
0
100
AcDbLine
10
-124.73291798142633
20
-47.198238202665053
30
0
11
-124.54210898604977
21
-46.216611019217382
31
0
0
LINE
5
1337
100
AcDbEntity
8
0
100
AcDbLine
10
-125.32741073280791
20
-46.063963822916151
30
0
11
-124.54210898604977
21
-46.216611019217382
31
0
0
LINE
5
1338
100
AcDbEntity
8
0
100
AcDbLine
10
-125.32741073280791
20
-46.063963822916151
30
0
11
-124.54210898604977
21
-46.216611019217382
31
0
0
LINE
5
1339
100
AcDbEntity
8
0
100
AcDbLine
10
-123.70553427210726
20
-37.720132763611026
30
0
11
-123.03770278828937
21
-34.284437621544207
31
0
0
LINE
5
1340
100
AcDbEntity
8
0
100
AcDbLine
10
-110.01402667102437
20
-49.040584150790245
30
0
11
-110.79932841778248
21
-48.887936954489021
31
0
0
LINE
5
1341
100
AcDbEntity
8
0
100
AcDbLine
10
-110.79932841778248
20
-48.887936954489021
30
0
11
-110.99013741315903
21
-49.869564137936671
31
0
0
LINE
5
1342
100
AcDbEntity
8
0
100
AcDbLine
10
-123.3972550137905
20
-40.326847918531413
30
0
11
-123.87427750223188
21
-42.780915877150569
31
0
0
LINE
5
1343
100
AcDbEntity
8
0
100
AcDbLine
10
-109.17745195708186
20
-40.54410589518389
30
0
11
-108.39215021032373
21
-40.696753091485114
31
0
0
LINE
5
1344
100
AcDbEntity
8
0
100
AcDbLine
10
-108.31881147788742
20
-36.126783569669399
30
0
11
-108.50962047326396
21
-37.108410753117063
31
0
0
LINE
5
1345
100
AcDbEntity
8
0
100
AcDbLine
10
-123.3972550137905
20
-40.326847918531413
30
0
11
-122.92023252534915
21
-37.872779959912258
31
0
0
LINE
5
1346
100
AcDbEntity
8
0
100
AcDbLine
10
-108.31881147788742
20
-36.126783569669399
30
0
11
-108.50962047326396
21
-37.108410753117063
31
0
0
LINE
5
1347
100
AcDbEntity
8
0
100
AcDbLine
10
-123.03770278828937
20
-34.284437621544207
30
0
11
-122.25240104153124
21
-34.437084817845431
31
0
0
LINE
5
1348
100
AcDbEntity
8
0
100
AcDbLine
10
-124.73291798142633
20
-47.198238202665053
30
0
11
-124.54210898604977
21
-46.216611019217382
31
0
0
LINE
5
1349
100
AcDbEntity
8
0
100
AcDbLine
10
-108.50962047326396
20
-37.108410753117063
30
0
11
-108.31881147788742
21
-36.126783569669399
31
0
0
LINE
5
1350
100
AcDbEntity
8
0
100
AcDbLine
10
-108.31881147788742
20
-36.126783569669399
30
0
11
-115.19020176202106
21
-34.79112060203358
31
0
0
LINE
5
1351
100
AcDbEntity
8
0
100
AcDbLine
10
-108.39215021032373
20
-40.696753091485114
30
0
11
-107.72431872650583
21
-37.261057949418294
31
0
0
LINE
5
1352
100
AcDbEntity
8
0
100
AcDbLine
10
-108.50962047326396
20
-37.108410753117063
30
0
11
-108.31881147788742
21
-36.126783569669399
31
0
0
LINE
5
1353
100
AcDbEntity
8
0
100
AcDbLine
10
-109.65447444552322
20
-42.998173853803024
30
0
11
-110.13149693396458
21
-45.452241812422187
31
0
0
LINE
5
1354
100
AcDbEntity
8
0
100
AcDbLine
10
-122.92023252534915
20
-37.872779959912258
30
0
11
-123.70553427210726
21
-37.720132763611026
31
0
0
LINE
5
1355
100
AcDbEntity
8
0
100
AcDbLine
10
-123.70553427210726
20
-37.720132763611026
30
0
11
-123.03770278828937
21
-34.284437621544207
31
0
0
LINE
5
1356
100
AcDbEntity
8
0
100
AcDbLine
10
-123.87427750223188
20
-42.780915877150569
30
0
11
-124.65957924899
21
-42.628268680849345
31
0
0
LINE
5
1357
100
AcDbEntity
8
0
100
AcDbLine
10
-124.73291798142633
20
-47.198238202665053
30
0
11
-117.86152769729269
21
-48.533901170300865
31
0
0
LINE
5
1358
100
AcDbEntity
8
0
100
AcDbLine
10
-122.25240104153124
20
-34.437084817845431
30
0
11
-122.06159204615469
21
-33.455457634397774
31
0
0
LINE
5
1359
100
AcDbEntity
8
0
100
AcDbLine
10
-109.17745195708186
20
-40.54410589518389
30
0
11
-108.39215021032373
21
-40.696753091485114
31
0
0
LINE
5
1360
100
AcDbEntity
8
0
100
AcDbLine
10
-23
20
18.000000000000007
30
0
11
-23
21
15.500000000000007
31
0
0
LINE
5
1361
100
AcDbEntity
8
0
100
AcDbLine
10
-23.799999999999997
20
12.000000000000011
30
0
11
-23
21
12.000000000000011
31
0
0
LINE
5
1362
100
AcDbEntity
8
0
100
AcDbLine
10
-23
20
15.500000000000007
30
0
11
-23.799999999999997
21
15.500000000000007
31
0
0
LINE
5
1363
100
AcDbEntity
8
0
100
AcDbLine
10
-23
20
11.000000000000014
30
0
11
-23
21
12.000000000000011
31
0
0
LINE
5
1364
100
AcDbEntity
8
0
100
AcDbLine
10
-23
20
12.000000000000011
30
0
11
-23
21
11.000000000000014
31
0
0
LINE
5
1365
100
AcDbEntity
8
0
100
AcDbLine
10
-23.799999999999997
20
24.000000000000004
30
0
11
-23
21
24.000000000000004
31
0
0
LINE
5
1366
100
AcDbEntity
8
0
100
AcDbLine
10
-23
20
25
30
0
11
-23
21
24.000000000000004
31
0
0
LINE
5
1367
100
AcDbEntity
8
0
100
AcDbLine
10
-8.9999999999999947
20
25
30
0
11
-8.9999999999999947
21
24.000000000000004
31
0
0
LINE
5
1368
100
AcDbEntity
8
0
100
AcDbLine
10
-8.199999999999994
20
15.500000000000007
30
0
11
-8.199999999999994
21
12.000000000000011
31
0
0
LINE
5
1369
100
AcDbEntity
8
0
100
AcDbLine
10
-23
20
18.000000000000007
30
0
11
-23
21
20.500000000000007
31
0
0
LINE
5
1370
100
AcDbEntity
8
0
100
AcDbLine
10
-23
20
20.500000000000007
30
0
11
-23.799999999999997
21
20.500000000000007
31
0
0
LINE
5
1371
100
AcDbEntity
8
0
100
AcDbLine
10
-23
20
11.000000000000014
30
0
11
-15.999999999999996
21
11.000000000000014
31
0
0
LINE
5
1372
100
AcDbEntity
8
0
100
AcDbLine
10
-8.199999999999994
20
24.000000000000004
30
0
11
-8.9999999999999947
21
24.000000000000004
31
0
0
LINE
5
1373
100
AcDbEntity
8
0
100
AcDbLine
10
-8.9999999999999947
20
20.500000000000007
30
0
11
-8.199999999999994
21
20.500000000000007
31
0
0
LINE
5
1374
100
AcDbEntity
8
0
100
AcDbLine
10
-23.799999999999997
20
15.500000000000007
30
0
11
-23.799999999999997
21
12.000000000000011
31
0
0
LINE
5
1375
100
AcDbEntity
8
0
100
AcDbLine
10
-23.799999999999997
20
20.500000000000007
30
0
11
-23.799999999999997
21
24.000000000000004
31
0
0
LINE
5
1376
100
AcDbEntity
8
0
100
AcDbLine
10
-8.199999999999994
20
20.500000000000007
30
0
11
-8.199999999999994
21
24.000000000000004
31
0
0
LINE
5
1377
100
AcDbEntity
8
0
100
AcDbLine
10
-23
20
24.000000000000004
30
0
11
-23
21
25
31
0
0
LINE
5
1378
100
AcDbEntity
8
0
100
AcDbLine
10
-8.9999999999999947
20
25
30
0
11
-15.999999999999996
21
25
31
0
0
LINE
5
1379
100
AcDbEntity
8
0
100
AcDbLine
10
-8.9999999999999947
20
18.000000000000007
30
0
11
-8.9999999999999947
21
20.500000000000007
31
0
0
LINE
5
1380
100
AcDbEntity
8
0
100
AcDbLine
10
-8.199999999999994
20
12.000000000000011
30
0
11
-8.9999999999999947
21
12.000000000000011
31
0
0
LINE
5
1381
100
AcDbEntity
8
0
100
AcDbLine
10
-8.9999999999999947
20
18.000000000000007
30
0
11
-8.9999999999999947
21
15.500000000000007
31
0
0
LINE
5
1382
100
AcDbEntity
8
0
100
AcDbLine
10
-8.9999999999999947
20
24.000000000000004
30
0
11
-8.9999999999999947
21
25
31
0
0
LINE
5
1383
100
AcDbEntity
8
0
100
AcDbLine
10
-8.9999999999999947
20
11.000000000000014
30
0
11
-8.9999999999999947
21
12.000000000000011
31
0
0
LINE
5
1384
100
AcDbEntity
8
0
100
AcDbLine
10
-23
20
25
30
0
11
-15.999999999999996
21
25
31
0
0
LINE
5
1385
100
AcDbEntity
8
0
100
AcDbLine
10
-8.9999999999999947
20
15.500000000000007
30
0
11
-8.199999999999994
21
15.500000000000007
31
0
0
LINE
5
1386
100
AcDbEntity
8
0
100
AcDbLine
10
-8.9999999999999947
20
11.000000000000014
30
0
11
-15.999999999999996
21
11.000000000000014
31
0
0
LINE
5
1387
100
AcDbEntity
8
0
100
AcDbLine
10
-8.9999999999999947
20
12.000000000000011
30
0
11
-8.9999999999999947
21
11.000000000000014
31
0
0
LINE
5
1388
100
AcDbEntity
8
0
100
AcDbLine
10
-126.96972796339303
20
-32.501412657515061
30
0
11
-133.84111824752668
21
-31.165749689879231
31
0
0
LINE
5
1389
100
AcDbEntity
8
0
100
AcDbLine
10
-140.71250853166032
20
-29.830086722243422
30
0
11
-133.84111824752668
21
-31.165749689879231
31
0
0
LINE
5
1390
100
AcDbEntity
8
0
100
AcDbLine
10
-128.30539093102882
20
-39.372802941648693
30
0
11
-128.7824134194702
21
-41.826870900267856
31
0
0
LINE
5
1391
100
AcDbEntity
8
0
100
AcDbLine
10
-127.16053695876957
20
-33.483039840962711
30
0
11
-126.96972796339303
21
-32.501412657515061
31
0
0
LINE
5
1392
100
AcDbEntity
8
0
100
AcDbLine
10
-143.38383446693194
20
-43.5728672905107
30
0
11
-136.5124441827983
21
-44.908530258146513
31
0
0
LINE
5
1393
100
AcDbEntity
8
0
100
AcDbLine
10
-140.90331752703688
20
-30.811713905691075
30
0
11
-140.71250853166032
21
-29.830086722243422
31
0
0
LINE
5
1394
100
AcDbEntity
8
0
100
AcDbLine
10
-129.64105389866464
20
-46.24419322578234
30
0
11
-136.5124441827983
21
-44.908530258146513
31
0
0
LINE
5
1395
100
AcDbEntity
8
0
100
AcDbLine
10
-142.04817149929613
20
-36.701477006377068
30
0
11
-142.52519398773751
21
-39.155544964996224
31
0
0
LINE
5
1396
100
AcDbEntity
8
0
100
AcDbLine
10
-128.7824134194702
20
-41.826870900267856
30
0
11
-127.99711167271205
21
-41.97951809656908
31
0
0
LINE
5
1397
100
AcDbEntity
8
0
100
AcDbLine
10
-141.68861927379498
20
-30.659066709389847
30
0
11
-140.90331752703688
21
-30.811713905691075
31
0
0
LINE
5
1398
100
AcDbEntity
8
0
100
AcDbLine
10
-141.57114901085478
20
-34.247409047757905
30
0
11
-142.35645075761289
21
-34.09476185145666
31
0
0
LINE
5
1399
100
AcDbEntity
8
0
100
AcDbLine
10
-126.96972796339303
20
-32.501412657515061
30
0
11
-127.16053695876957
21
-33.483039840962711
31
0
0
LINE
5
1400
100
AcDbEntity
8
0
100
AcDbLine
10
-129.45024490328811
20
-45.262566042334669
30
0
11
-129.64105389866464
21
-46.24419322578234
31
0
0
LINE
5
1401
100
AcDbEntity
8
0
100
AcDbLine
10
-129.64105389866464
20
-46.24419322578234
30
0
11
-129.45024490328811
21
-45.262566042334669
31
0
0
LINE
5
1402
100
AcDbEntity
8
0
100
AcDbLine
10
-143.38383446693194
20
-43.5728672905107
30
0
11
-143.19302547155542
21
-42.59124010706303
31
0
0
LINE
5
1403
100
AcDbEntity
8
0
100
AcDbLine
10
-143.97832721831352
20
-42.438592910761805
30
0
11
-143.19302547155542
21
-42.59124010706303
31
0
0
LINE
5
1404
100
AcDbEntity
8
0
100
AcDbLine
10
-143.19302547155542
20
-42.59124010706303
30
0
11
-143.38383446693194
21
-43.5728672905107
31
0
0
LINE
5
1405
100
AcDbEntity
8
0
100
AcDbLine
10
-142.52519398773751
20
-39.155544964996224
30
0
11
-143.31049573449562
21
-39.002897768694979
31
0
0
LINE
5
1406
100
AcDbEntity
8
0
100
AcDbLine
10
-128.30539093102882
20
-39.372802941648693
30
0
11
-127.82836844258748
21
-36.91873498302953
31
0
0
LINE
5
1407
100
AcDbEntity
8
0
100
AcDbLine
10
-127.04306669582934
20
-37.071382179330769
30
0
11
-126.37523521201143
21
-33.635687037263942
31
0
0
LINE
5
1408
100
AcDbEntity
8
0
100
AcDbLine
10
-140.71250853166032
20
-29.830086722243422
30
0
11
-140.90331752703688
21
-30.811713905691075
31
0
0
LINE
5
1409
100
AcDbEntity
8
0
100
AcDbLine
10
-142.35645075761289
20
-34.09476185145666
30
0
11
-141.68861927379498
21
-30.659066709389847
31
0
0
LINE
5
1410
100
AcDbEntity
8
0
100
AcDbLine
10
-142.04817149929613
20
-36.701477006377068
30
0
11
-141.57114901085478
21
-34.247409047757905
31
0
0
LINE
5
1411
100
AcDbEntity
8
0
100
AcDbLine
10
-127.99711167271205
20
-41.97951809656908
30
0
11
-128.66494315652997
21
-45.4152132386359
31
0
0
LINE
5
1412
100
AcDbEntity
8
0
100
AcDbLine
10
-127.82836844258748
20
-36.91873498302953
30
0
11
-127.04306669582934
21
-37.071382179330769
31
0
0
LINE
5
1413
100
AcDbEntity
8
0
100
AcDbLine
10
-128.66494315652997
20
-45.4152132386359
30
0
11
-129.45024490328811
21
-45.262566042334669
31
0
0
LINE
5
1414
100
AcDbEntity
8
0
100
AcDbLine
10
-126.37523521201143
20
-33.635687037263942
30
0
11
-127.16053695876957
21
-33.483039840962711
31
0
0
LINE
5
1415
100
AcDbEntity
8
0
100
AcDbLine
10
-143.31049573449562
20
-39.002897768694979
30
0
11
-143.97832721831352
21
-42.438592910761805
31
0
0
LINE
5
1416
100
AcDbEntity
8
0
100
AcDbLine
10
-8.9999999999999947
20
-0.99999999999999645
30
0
11
-8.9999999999999947
21
1.5000000000000036
31
0
0
LINE
5
1417
100
AcDbEntity
8
0
100
AcDbLine
10
-8.9999999999999947
20
-7.9999999999999893
30
0
11
-15.999999999999996
21
-7.9999999999999893
31
0
0
LINE
5
1418
100
AcDbEntity
8
0
100
AcDbLine
10
-8.9999999999999947
20
-7.9999999999999893
30
0
11
-8.9999999999999947
21
-6.9999999999999929
31
0
0
LINE
5
1419
100
AcDbEntity
8
0
100
AcDbLine
10
-8.9999999999999947
20
5.9999999999999964
30
0
11
-15.999999999999996
21
5.9999999999999964
31
0
0
LINE
5
1420
100
AcDbEntity
8
0
100
AcDbLine
10
-23
20
5.9999999999999964
30
0
11
-23
21
5
31
0
0
LINE
5
1421
100
AcDbEntity
8
0
100
AcDbLine
10
-23
20
5.9999999999999964
30
0
11
-15.999999999999996
21
5.9999999999999964
31
0
0
LINE
5
1422
100
AcDbEntity
8
0
100
AcDbLine
10
-23
20
-6.9999999999999929
30
0
11
-23
21
-7.9999999999999893
31
0
0
LINE
5
1423
100
AcDbEntity
8
0
100
AcDbLine
10
-23
20
-7.9999999999999893
30
0
11
-23
21
-6.9999999999999929
31
0
0
LINE
5
1424
100
AcDbEntity
8
0
100
AcDbLine
10
-23
20
-7.9999999999999893
30
0
11
-15.999999999999996
21
-7.9999999999999893
31
0
0
LINE
5
1425
100
AcDbEntity
8
0
100
AcDbLine
10
-23
20
-3.4999999999999964
30
0
11
-23.799999999999997
21
-3.4999999999999964
31
0
0
LINE
5
1426
100
AcDbEntity
8
0
100
AcDbLine
10
-23
20
1.5000000000000036
30
0
11
-23.799999999999997
21
1.5000000000000036
31
0
0
LINE
5
1427
100
AcDbEntity
8
0
100
AcDbLine
10
-23.799999999999997
20
-6.9999999999999929
30
0
11
-23
21
-6.9999999999999929
31
0
0
LINE
5
1428
100
AcDbEntity
8
0
100
AcDbLine
10
-23
20
-0.99999999999999645
30
0
11
-23
21
1.5000000000000036
31
0
0
LINE
5
1429
100
AcDbEntity
8
0
100
AcDbLine
10
-23.799999999999997
20
1.5000000000000036
30
0
11
-23.799999999999997
21
5
31
0
0
LINE
5
1430
100
AcDbEntity
8
0
100
AcDbLine
10
-23
20
5
30
0
11
-23
21
5.9999999999999964
31
0
0
LINE
5
1431
100
AcDbEntity
8
0
100
AcDbLine
10
-8.9999999999999947
20
5
30
0
11
-8.9999999999999947
21
5.9999999999999964
31
0
0
LINE
5
1432
100
AcDbEntity
8
0
100
AcDbLine
10
-8.9999999999999947
20
1.5000000000000036
30
0
11
-8.199999999999994
21
1.5000000000000036
31
0
0
LINE
5
1433
100
AcDbEntity
8
0
100
AcDbLine
10
-8.9999999999999947
20
-0.99999999999999645
30
0
11
-8.9999999999999947
21
-3.4999999999999964
31
0
0
LINE
5
1434
100
AcDbEntity
8
0
100
AcDbLine
10
-23.799999999999997
20
5
30
0
11
-23
21
5
31
0
0
LINE
5
1435
100
AcDbEntity
8
0
100
AcDbLine
10
-8.199999999999994
20
-6.9999999999999929
30
0
11
-8.9999999999999947
21
-6.9999999999999929
31
0
0
LINE
5
1436
100
AcDbEntity
8
0
100
AcDbLine
10
-8.199999999999994
20
1.5000000000000036
30
0
11
-8.199999999999994
21
5
31
0
0
LINE
5
1437
100
AcDbEntity
8
0
100
AcDbLine
10
-8.199999999999994
20
5
30
0
11
-8.9999999999999947
21
5
31
0
0
LINE
5
1438
100
AcDbEntity
8
0
100
AcDbLine
10
-8.9999999999999947
20
-3.4999999999999964
30
0
11
-8.199999999999994
21
-3.4999999999999964
31
0
0
LINE
5
1439
100
AcDbEntity
8
0
100
AcDbLine
10
-8.9999999999999947
20
-6.9999999999999929
30
0
11
-8.9999999999999947
21
-7.9999999999999893
31
0
0
LINE
5
1440
100
AcDbEntity
8
0
100
AcDbLine
10
-23
20
-0.99999999999999645
30
0
11
-23
21
-3.4999999999999964
31
0
0
LINE
5
1441
100
AcDbEntity
8
0
100
AcDbLine
10
-8.199999999999994
20
-3.4999999999999964
30
0
11
-8.199999999999994
21
-6.9999999999999929
31
0
0
LINE
5
1442
100
AcDbEntity
8
0
100
AcDbLine
10
-8.9999999999999947
20
5.9999999999999964
30
0
11
-8.9999999999999947
21
5
31
0
0
LINE
5
1443
100
AcDbEntity
8
0
100
AcDbLine
10
-23.799999999999997
20
-3.4999999999999964
30
0
11
-23.799999999999997
21
-6.9999999999999929
31
0
0
LINE
5
1444
100
AcDbEntity
8
0
100
AcDbLine
10
-8.9999999999999947
20
-20
30
0
11
-8.9999999999999947
21
-17.5
31
0
0
LINE
5
1445
100
AcDbEntity
8
0
100
AcDbLine
10
-8.9999999999999947
20
-26.999999999999993
30
0
11
-15.999999999999996
21
-26.999999999999993
31
0
0
LINE
5
1446
100
AcDbEntity
8
0
100
AcDbLine
10
-8.9999999999999947
20
-26.999999999999993
30
0
11
-8.9999999999999947
21
-25.999999999999996
31
0
0
LINE
5
1447
100
AcDbEntity
8
0
100
AcDbLine
10
-8.9999999999999947
20
-13.000000000000007
30
0
11
-15.999999999999996
21
-13.000000000000007
31
0
0
LINE
5
1448
100
AcDbEntity
8
0
100
AcDbLine
10
-23
20
-13.000000000000007
30
0
11
-23
21
-14.000000000000004
31
0
0
LINE
5
1449
100
AcDbEntity
8
0
100
AcDbLine
10
-23
20
-13.000000000000007
30
0
11
-15.999999999999996
21
-13.000000000000007
31
0
0
LINE
5
1450
100
AcDbEntity
8
0
100
AcDbLine
10
-23
20
-25.999999999999996
30
0
11
-23
21
-26.999999999999993
31
0
0
LINE
5
1451
100
AcDbEntity
8
0
100
AcDbLine
10
-23
20
-26.999999999999993
30
0
11
-23
21
-25.999999999999996
31
0
0
LINE
5
1452
100
AcDbEntity
8
0
100
AcDbLine
10
-23
20
-26.999999999999993
30
0
11
-15.999999999999996
21
-26.999999999999993
31
0
0
LINE
5
1453
100
AcDbEntity
8
0
100
AcDbLine
10
-23
20
-22.5
30
0
11
-23.799999999999997
21
-22.5
31
0
0
LINE
5
1454
100
AcDbEntity
8
0
100
AcDbLine
10
-23
20
-17.5
30
0
11
-23.799999999999997
21
-17.5
31
0
0
LINE
5
1455
100
AcDbEntity
8
0
100
AcDbLine
10
-23.799999999999997
20
-25.999999999999996
30
0
11
-23
21
-25.999999999999996
31
0
0
LINE
5
1456
100
AcDbEntity
8
0
100
AcDbLine
10
-23
20
-20
30
0
11
-23
21
-17.5
31
0
0
LINE
5
1457
100
AcDbEntity
8
0
100
AcDbLine
10
-23.799999999999997
20
-17.5
30
0
11
-23.799999999999997
21
-14.000000000000004
31
0
0
LINE
5
1458
100
AcDbEntity
8
0
100
AcDbLine
10
-23
20
-14.000000000000004
30
0
11
-23
21
-13.000000000000007
31
0
0
LINE
5
1459
100
AcDbEntity
8
0
100
AcDbLine
10
-8.9999999999999947
20
-14.000000000000004
30
0
11
-8.9999999999999947
21
-13.000000000000007
31
0
0
LINE
5
1460
100
AcDbEntity
8
0
100
AcDbLine
10
-8.9999999999999947
20
-17.5
30
0
11
-8.199999999999994
21
-17.5
31
0
0
LINE
5
1461
100
AcDbEntity
8
0
100
AcDbLine
10
-8.9999999999999947
20
-20
30
0
11
-8.9999999999999947
21
-22.5
31
0
0
LINE
5
1462
100
AcDbEntity
8
0
100
AcDbLine
10
-23.799999999999997
20
-14.000000000000004
30
0
11
-23
21
-14.000000000000004
31
0
0
LINE
5
1463
100
AcDbEntity
8
0
100
AcDbLine
10
-8.199999999999994
20
-25.999999999999996
30
0
11
-8.9999999999999947
21
-25.999999999999996
31
0
0
LINE
5
1464
100
AcDbEntity
8
0
100
AcDbLine
10
-8.199999999999994
20
-17.5
30
0
11
-8.199999999999994
21
-14.000000000000004
31
0
0
LINE
5
1465
100
AcDbEntity
8
0
100
AcDbLine
10
-8.199999999999994
20
-14.000000000000004
30
0
11
-8.9999999999999947
21
-14.000000000000004
31
0
0
LINE
5
1466
100
AcDbEntity
8
0
100
AcDbLine
10
-8.9999999999999947
20
-22.5
30
0
11
-8.199999999999994
21
-22.5
31
0
0
LINE
5
1467
100
AcDbEntity
8
0
100
AcDbLine
10
-8.9999999999999947
20
-25.999999999999996
30
0
11
-8.9999999999999947
21
-26.999999999999993
31
0
0
LINE
5
1468
100
AcDbEntity
8
0
100
AcDbLine
10
-23
20
-20
30
0
11
-23
21
-22.5
31
0
0
LINE
5
1469
100
AcDbEntity
8
0
100
AcDbLine
10
-8.199999999999994
20
-22.5
30
0
11
-8.199999999999994
21
-25.999999999999996
31
0
0
LINE
5
1470
100
AcDbEntity
8
0
100
AcDbLine
10
-8.9999999999999947
20
-13.000000000000007
30
0
11
-8.9999999999999947
21
-14.000000000000004
31
0
0
LINE
5
1471
100
AcDbEntity
8
0
100
AcDbLine
10
-23.799999999999997
20
-22.5
30
0
11
-23.799999999999997
21
-25.999999999999996
31
0
0
LWPOLYLINE
5
1472
100
AcDbEntity
8
0
100
AcDbPolyline
90
12
70
1
43
0.0
10
-156.62889322575785
20
-44.742456219908966
10
-141.82265389640497
20
31.429041783330781
42
-0.17830245824287114
10
-139.31470125359579
20
35.566989319765653
10
-120.16026449786445
20
50.836470090487119
42
-0.14601206821223162
10
-116.44735819429243
20
52.332566106679828
10
-1.8395646582673959
20
63.029711105408595
42
-0.077661121963392948
10
0.31776486422067762
20
62.895906810197673
10
25.613006747395566
20
57.320223703974655
42
-0.41421356237309248
10
26.374307324583679
20
56.128409359719207
10
-3.6355937323383651
20
-80.017725860510353
42
-0.41712731937039793
10
-4.8371022474040437
20
-80.776839041761917
10
-155.87221709665405
20
-45.907635280070778
42
-0.40402622583514708
0
CIRCLE
5
1473
100
AcDbEntity
8
0
100
AcDbCircle
10
-9.7189354082461232
20
-73.491954403778067
30
0
40
1.5500000000000036
210
0
220
0
230
1
0
CIRCLE
5
1474
100
AcDbEntity
8
0
100
AcDbCircle
10
19.393637493342737
20
52.608452757792762
30
0
40
1.5499999999999967
210
0
220
0
230
1
0
CIRCLE
5
1475
100
AcDbEntity
8
0
100
AcDbCircle
10
-151.6180508205766
20
-41.197449868862876
30
0
40
1.5499999999999972
210
0
220
0
230
1
0
CIRCLE
5
1476
100
AcDbEntity
8
0
100
AcDbCircle
10
-116.96833623468319
20
46.862494134785919
30
0
40
1.5500000000000025
210
0
220
0
230
1
0
ENDSEC
0
SECTION
2
OBJECTS
0
DICTIONARY
5
C
100
AcDbDictionary
3
ACAD_GROUP
350
D
3
ACAD_MLINESTYLE
350
17
0
DICTIONARY
5
D
100
AcDbDictionary
0
DICTIONARY
5
1A
330
C
100
AcDbDictionary
0
DICTIONARY
5
17
100
AcDbDictionary
0
ENDSEC
0
EOF
